SplineFontDB: 3.0
FontName: Tuffy-Regular
FullName: Tuffy Regular
FamilyName: Tuffy
Weight: Regular
Copyright: Copyright (c) 2011, Thatcher Ulrich (http://tulrich.com), Karoly Barta, Michael Everson (http://www.evertype.com), with Reserved Font Name "Tuffy"
FontLog: "2011-08-30: Prepared v001.271 as a web font+AAoA-2010-08-20: Merged accented and extended characters from Karoly Barta and Michael Everson.+AAoA-2004-9-1: Created." 
Version: 001.271
ItalicAngle: 0
UnderlinePosition: -100
UnderlineWidth: 50
Ascent: 1597
Descent: 451
LayerCount: 2
Layer: 0 1 "Back"  1
Layer: 1 1 "Fore"  0
NeedsXUIDChange: 1
XUID: [1021 745 1046372284 8037501]
FSType: 0
OS2Version: 0
OS2_WeightWidthSlopeOnly: 0
OS2_UseTypoMetrics: 0
CreationTime: 1166531129
ModificationTime: 1314725042
PfmFamily: 33
TTFWeight: 400
TTFWidth: 5
LineGap: 0
VLineGap: 0
Panose: 2 11 6 3 6 1 0 0 0 0
OS2TypoAscent: 2340
OS2TypoAOffset: 0
OS2TypoDescent: -697
OS2TypoDOffset: 0
OS2TypoLinegap: 0
OS2WinAscent: 2340
OS2WinAOffset: 0
OS2WinDescent: 697
OS2WinDOffset: 0
HheadAscent: 2340
HheadAOffset: 0
HheadDescent: -697
HheadDOffset: 0
OS2SubXSize: 0
OS2SubYSize: 2
OS2SubXOff: -16560
OS2SubYOff: 0
OS2SupXSize: -25944
OS2SupYSize: -27176
OS2SupXOff: -16376
OS2SupYOff: 1
OS2StrikeYSize: 12312
OS2StrikeYPos: -16224
OS2Vendor: 'PfEd'
Lookup: 4 0 1 "Tuffy-Regular-'liga' Standard Ligatures Hungarian"  {"Tuffy-Regular-'liga' Standard Ligatures lookup 4-1"  } ['liga' ('latn' <'HUN ' > ) ]
Lookup: 1 0 0 "Tuffy-Regular-'locl' Localized Forms Romanian"  {"Tuffy-Regular-'locl' Localized Forms in Latin lookup 2-1"  } ['locl' ('DFLT' <'MOL ' 'ROM ' 'dflt' > 'latn' <'MOL ' 'ROM ' 'dflt' > ) ]
Lookup: 4 0 0 "Tuffy-Regular-'frac' Diagonal Fractions lookup 2"  {"Tuffy-Regular-'frac' Diagonal Fractions lookup 2-2"  } ['frac' ('DFLT' <'dflt' > 'grek' <'dflt' > 'latn' <'dflt' > ) ]

StartChar: exclam
Encoding: 33 33 1
Width: 421
Flags: HMW
LayerCount: 2
Fore
SplineSet
281 440 m 1
 281 415 281 415 263.5 398 c 0
 246 381 246 381 222 381.5 c 0
 198 382 198 382 181 398.5 c 0
 164 415 164 415 164 440 c 1
 123 1389 l 1
 123 1428 123 1428 152.5 1455.5 c 0
 182 1483 182 1483 221.5 1483 c 0
 261 1483 261 1483 291.5 1455.5 c 0
 322 1428 322 1428 322 1391 c 1
 281 440 l 1
EndSplineSet
Refer: 14 46 N 1 0 0 1 0 0 2
EndChar

StartChar: quotedbl
Encoding: 34 34 2
Width: 690
Flags: HMW
LayerCount: 2
Fore
SplineSet
444 1083 m 2,0,-1
 442 1092 l 1,1,-1
 422 1466 l 1,2,3
 422 1502 422 1502 443.5 1522 c 128,-1,4
 465 1542 465 1542 494 1542 c 2,5,-1
 498 1542 l 2,6,7
 556.555555556 1542 556.555555556 1542 569 1486 c 0,8,9
 571 1480 571 1480 571 1466 c 2,10,-1
 551 1092 l 2,11,12
 550 1070 550 1070 533 1057 c 128,-1,13
 516 1044 516 1044 496 1044 c 0,14,15
 452.210526316 1044 452.210526316 1044 444 1083 c 2,0,-1
150 1092 m 2,16,-1
 129 1466 l 1,17,18
 129 1502 129 1502 150.5 1522 c 128,-1,19
 172 1542 172 1542 201 1542 c 2,20,-1
 205 1542 l 2,21,22
 230 1542 230 1542 250.5 1527.5 c 0,23,24
 279 1507.34146341 279 1507.34146341 279 1466 c 1,25,-1
 258 1092 l 2,26,27
 257 1070 257 1070 240 1057 c 128,-1,28
 223 1044 223 1044 203.5 1044 c 0,29,30
 159.210526316 1044 159.210526316 1044 151 1083 c 0,31,32
 150 1086 150 1086 150 1092 c 2,16,-1
EndSplineSet
EndChar

StartChar: numbersign
Encoding: 35 35 3
Width: 1589
Flags: HMW
LayerCount: 2
Fore
SplineSet
969 547 m 1,0,-1
 969 885 l 1,1,-1
 627 885 l 1,2,-1
 627 547 l 1,3,-1
 969 547 l 1,0,-1
1118 406 m 1,4,-1
 1118 53 l 1,5,-1
 969 53 l 1,6,-1
 969 406 l 1,7,-1
 627 406 l 1,8,-1
 627 53 l 1,9,-1
 477 53 l 1,10,-1
 477 406 l 1,11,-1
 129 406 l 1,12,-1
 129 547 l 1,13,-1
 477 547 l 1,14,-1
 477 885 l 1,15,-1
 129 885 l 1,16,-1
 129 1024 l 1,17,-1
 477 1024 l 1,18,-1
 477 1403 l 1,19,-1
 627 1403 l 1,20,-1
 627 1024 l 1,21,-1
 969 1024 l 1,22,-1
 969 1403 l 1,23,-1
 1118 1403 l 1,24,-1
 1118 1024 l 1,25,-1
 1479 1024 l 1,26,-1
 1479 885 l 1,27,-1
 1118 885 l 1,28,-1
 1118 547 l 1,29,-1
 1479 547 l 1,30,-1
 1479 406 l 1,31,-1
 1118 406 l 1,4,-1
EndSplineSet
EndChar

StartChar: dollar
Encoding: 36 36 4
Width: 1017
Flags: HMW
LayerCount: 2
Back
SplineSet
434.176 1495.04 m 1,0,-1
 581.632 1495.04 l 1,1,-1
 581.632 -114.688 l 1,2,-1
 434.176 -114.688 l 1,3,-1
 434.176 1495.04 l 1,0,-1
24.5762 266.24 m 1,4,-1
 159.744 346.112 l 1,5,6
 235.408787002 229.175510997 235.408787002 229.175510997 288.87221804 184.322022354 c 0
 375.272619201 112.964295528 375.272619201 112.964295528 507.906 112.64 c 0,7,8
 644.369345304 112.64 644.369345304 112.64 727.688672652 185.494785239 c 0
 811.008 258.349570478 811.008 258.349570478 811.008 376.832 c 0,9,10
 811.008 416.178339877 811.008 416.178339877 799.981132802 450.045857173 c 0
 788.954265605 483.91337447 788.954265605 483.91337447 771.985578568 509.10913408 c 0
 755.016891531 534.304893691 755.016891531 534.304893691 726.008707146 556.824743471 c 0
 697.000522762 579.344593251 697.000522762 579.344593251 669.976027547 594.525378978 c 0
 642.951532333 609.706164706 642.951532333 609.706164706 602.279033677 625.111967961 c 0
 561.606535021 640.517771215 561.606535021 640.517771215 530.843234545 649.917204051 c 0
 500.079934068 659.316636887 500.079934068 659.316636887 454.656 671.744 c 0,11,12
 413.484986198 683.008093187 413.484986198 683.008093187 385.048736893 691.931563154 c 0
 356.612487588 700.85503312 356.612487588 700.85503312 315.33536165 717.698337721 c 0
 274.058235712 734.541642321 274.058235712 734.541642321 245.541205697 752.348029626 c 0
 217.024175683 770.154416931 217.024175683 770.154416931 185.049092262 798.262909149 c 0
 153.074008841 826.371401367 153.074008841 826.371401367 133.260519983 858.808111259 c 0
 113.447031125 891.24482115 113.447031125 891.24482115 99.558312087 936.365906234 c 0
 85.6695930488 981.486991317 85.6695930488 981.486991317 83.9678 1034.24 c 0,13,14
 81.0810423886 1123.72551497 81.0810423886 1123.72551497 113.909478587 1196.62753375 c 0
 146.737914786 1269.52955252 146.737914786 1269.52955252 205.53589485 1316.2288725 c 0
 264.333874914 1362.92819249 264.333874914 1362.92819249 341.930212962 1388.02409625 c 0
 419.526551011 1413.12 419.526551011 1413.12 507.904 1413.12 c 0,15,16
 566.475680804 1413.12 566.475680804 1413.12 615.822033823 1405.04903945 c 0
 665.168386842 1396.97807889 665.168386842 1396.97807889 704.882966177 1379.88846055 c 0
 744.597545513 1362.79884222 744.597545513 1362.79884222 776.002274564 1342.92515056 c 0
 807.407003614 1323.05145889 807.407003614 1323.05145889 836.788818029 1292.50623833 c 0
 866.170632444 1261.96101777 866.170632444 1261.96101777 887.711848638 1234.38126167 c 0
 909.253064831 1206.80150556 909.253064831 1206.80150556 935.934 1167.36 c 1,17,-1
 811.008 1087.49 l 1,18,19
 786.988467532 1128.90298701 786.988467532 1128.90298701 760.428560681 1159.9921645 c 0
 733.868653829 1191.08134199 733.868653829 1191.08134199 697.715439319 1217.5478355 c 0
 661.56222481 1244.014329 661.56222481 1244.014329 613.676560681 1257.9121645 c 0
 565.790896552 1271.81 565.790896552 1271.81 507.904 1271.81 c 0,20,21
 387.516944941 1271.81 387.516944941 1271.81 316.63847247 1212.28698204 c 0
 245.76 1152.76396409 245.76 1152.76396409 245.76 1034.24 c 0,22,23
 245.76 988.379155398 245.76 988.379155398 260.153613471 953.222406664 c 0
 274.547226942 918.065657931 274.547226942 918.065657931 295.322136529 897.021218336 c 0
 316.097046116 875.97677874 316.097046116 875.97677874 351.665706064 857.941378887 c 0
 387.234366012 839.905979033 387.234366012 839.905979033 416.73761801 830.642773891 c 0
 446.240870009 821.379568749 446.240870009 821.379568749 491.794465323 807.273351109 c 0
 537.348060637 793.167133469 537.348060637 793.167133469 565.246 782.336 c 0,24,25
 587.028449661 773.879710304 587.028449661 773.879710304 621.537270209 761.547183778 c 0
 656.046090758 749.214657252 656.046090758 749.214657252 679.536727791 740.884437222 c 0
 703.027364823 732.554217191 703.027364823 732.554217191 735.289082209 719.133657778 c 0
 767.550799595 705.713098365 767.550799595 705.713098365 789.924519791 693.872421222 c 0
 812.298239986 682.031744079 812.298239986 682.031744079 839.148718209 663.967179778 c 0
 865.999196433 645.902615477 865.999196433 645.902615477 884.091863791 626.995509222 c 0
 902.184531148 608.088402967 902.184531148 608.088402967 920.459634209 581.823861778 c 0
 938.734737271 555.559320589 938.734737271 555.559320589 949.382215791 526.029813222 c 0
 960.029694311 496.500305855 960.029694311 496.500305855 966.565286209 458.479815778 c 0
 973.100878108 420.459325701 973.100878108 420.459325701 972.8 376.832 c 0,26,27
 971.954450987 254.148828775 971.954450987 254.148828775 912.129206746 161.928685551 c 0
 852.303962505 69.708542326 852.303962505 69.708542326 747.650793254 21.0300144495 c 0
 642.997624003 -27.648513427 642.997624003 -27.648513427 507.904 -28.6719 c 1,28,29
 342.581124783 -27.1552504329 342.581124783 -27.1552504329 234.176082895 40.1431503785 c 0
 125.771041007 107.44155119 125.771041007 107.44155119 24.5762 266.24 c 1,4,-1
EndSplineSet
Fore
SplineSet
453 1537 m 1,0,-1
 582 1537 l 1,1,-1
 582 1411 l 1,2,3
 790 1395 790 1395 936 1168 c 1,4,-1
 811 1088 l 1,5,6
 776 1153 776 1153 716.5 1203.5 c 128,-1,7
 657 1254 657 1254 582 1264 c 1,8,-1
 582 775 l 1,9,10
 624 758.666666667 624 758.666666667 669.5 742.333333333 c 128,-1,11
 715 726 715 726 749 711 c 128,-1,12
 783 696 783 696 801.5 685 c 128,-1,13
 820 674 820 674 847.5 655.5 c 128,-1,14
 875 637 875 637 890.5 619 c 128,-1,15
 906 601 906 601 924 575.5 c 128,-1,16
 942 550 942 550 951 522.5 c 0,17,18
 973 455.277777778 973 455.277777778 973 383 c 0,19,20
 973 219 973 219 867.5 106 c 128,-1,21
 762 -7 762 -7 582 -26 c 1,22,-1
 582 -155 l 1,23,-1
 455 -155 l 1,24,-1
 455 -26 l 1,25,26
 292.578563996 -11.9635796046 292.578563996 -11.9635796046 197 63 c 0,27,28
 110.823723229 130.589236683 110.823723229 130.589236683 25 266 c 1,29,-1
 160 346 l 1,30,31
 246.555023923 211.358851675 246.555023923 211.358851675 304.5 172 c 0,32,33
 371.874538745 126.236162362 371.874538745 126.236162362 455 117 c 1,34,-1
 455 672 l 1,35,36
 182.129889976 737.751833741 182.129889976 737.751833741 112.5 899 c 0,37,38
 84 965 84 965 84 1051 c 0,39,40
 84 1206 84 1206 190 1303 c 128,-1,41
 296 1400 296 1400 453 1409 c 1,42,-1
 453 1537 l 1,0,-1
455 817 m 1,43,-1
 455 1270 l 1,44,45
 362 1258 362 1258 304 1199.5 c 128,-1,46
 246 1141 246 1141 246 1067.5 c 128,-1,47
 246 994 246 994 261 953.5 c 128,-1,48
 276 913 276 913 306 887 c 0,49,50
 357.527472527 842.342857143 357.527472527 842.342857143 455 817 c 1,43,-1
582 630 m 1,51,-1
 582 119 l 1,52,53
 690 137 690 137 750.5 207 c 128,-1,54
 811 277 811 277 811 372 c 0,55,56
 811 560.304347826 811 560.304347826 582 630 c 1,51,-1
EndSplineSet
EndChar

StartChar: percent
Encoding: 37 37 5
Width: 1402
Flags: HMW
LayerCount: 2
Fore
SplineSet
935 257.575342466 m 128,-1,1
 979 219 979 219 1036 219 c 128,-1,2
 1093 219 1093 219 1136.5 263 c 128,-1,3
 1180 307 1180 307 1180 373 c 0,4,5
 1180 391 1180 391 1176 404 c 1,6,7
 1165 455 1165 455 1125.5 488.5 c 128,-1,8
 1086 522 1086 522 1030 522 c 128,-1,9
 974 522 974 522 932.5 477.5 c 128,-1,10
 891 433 891 433 891 364.575342466 c 128,-1,0
 891 296.150684932 891 296.150684932 935 257.575342466 c 128,-1,1
841.5 564 m 128,-1,12
 921 643 921 643 1026.5 643 c 128,-1,13
 1132 643 1132 643 1207.5 582 c 0,14,15
 1309 499.993377483 1309 499.993377483 1309 380.496688742 c 128,-1,16
 1309 261 1309 261 1228.5 182.5 c 128,-1,17
 1148 104 1148 104 1042 104 c 128,-1,18
 936 104 936 104 862 164 c 0,19,20
 762 245.081081081 762 245.081081081 762 365.040540541 c 128,-1,11
 762 485 762 485 841.5 564 c 128,-1,12
231 1077 m 0,21,22
 231 1063 231 1063 239 1025.5 c 128,-1,23
 247 988 247 988 284 956 c 128,-1,24
 321 924 321 924 378.5 924 c 128,-1,25
 436 924 436 924 479 967.5 c 128,-1,26
 522 1011 522 1011 522 1077 c 0,27,28
 522 1147.1 522 1147.1 475 1187.05 c 128,-1,29
 428 1227 428 1227 372.5 1227 c 128,-1,30
 317 1227 317 1227 274 1182 c 128,-1,31
 231 1137 231 1137 231 1077 c 0,21,22
183.5 1269 m 128,-1,33
 263 1348 263 1348 369 1348 c 128,-1,34
 475 1348 475 1348 550 1287 c 0,35,36
 651 1204.85333333 651 1204.85333333 651 1084.92666667 c 128,-1,37
 651 965 651 965 570.5 887 c 128,-1,38
 490 809 490 809 384.5 809 c 128,-1,39
 279 809 279 809 204.5 869 c 0,40,41
 104 949.939597315 104 949.939597315 104 1069.96979866 c 128,-1,32
 104 1190 104 1190 183.5 1269 c 128,-1,33
424 137 m 1,42,-1
 274 137 l 1,43,-1
 995 1319 l 1,44,-1
 1139 1319 l 1,45,-1
 424 137 l 1,42,-1
EndSplineSet
EndChar

StartChar: ampersand
Encoding: 38 38 6
Width: 1241
Flags: HMW
LayerCount: 2
Back
SplineSet
1026.05 251.904 m 13,0,-1
 870.4 299.008 l 1,1,2
 825.05491766 201.066447988 825.05491766 201.066447988 724.958840285 147.913508475 c 0
 658.532789986 112.64 658.532789986 112.64 591.87 112.64 c 0,3,4
 501.839267974 112.64 501.839267974 112.64 427.02748366 149.172351733 c 0
 352.215699346 185.704703465 352.215699346 185.704703465 306.155849673 257.696981601 c 0
 260.096 329.689259736 260.096 329.689259736 260.096 423.936 c 0,5,6
 260.096 482.279058152 260.096 482.279058152 278.869650724 532.715474269 c 0
 297.643301447 583.151890386 297.643301447 583.151890386 329.615085276 619.014189731 c 0
 361.586869105 654.876489076 361.586869105 654.876489076 403.639394724 680.564690269 c 0
 445.691920342 706.252891462 445.691920342 706.252891462 492.590669276 718.694445731 c 0
 539.48941821 731.136 539.48941821 731.136 587.776 731.136 c 2,7,-1
 665.6 731.136 l 1,8,-1
 665.6 856.064 l 1,9,-1
 567.296 856.064 l 2,10,11
 504.716696514 856.064 504.716696514 856.064 450.104507462 888.501268616 c 0
 395.49231841 920.938537232 395.49231841 920.938537232 361.586159205 981.323398051 c 0
 327.68 1041.70825887 327.68 1041.70825887 327.68 1116.16 c 0,12,13
 327.68 1216.67107955 327.68 1216.67107955 401.180211037 1287.24553977 c 0
 474.680422075 1357.82 474.680422075 1357.82 569.344 1357.82 c 2,14,-1
 575.488 1357.82 l 2,15,16
 656.281266627 1357.82 656.281266627 1357.82 716.788740819 1315.38860374 c 0
 777.296215011 1272.95720748 777.296215011 1272.95720748 808.958 1200.13 c 1,17,-1
 946.176 1263.62 l 1,18,19
 892.584249325 1369.22265553 892.584249325 1369.22265553 792.514760638 1433.15632777 c 0
 692.44527195 1497.09 692.44527195 1497.09 569.344 1497.09 c 0,20,21
 494.172362807 1497.09 494.172362807 1497.09 422.287393801 1469.09645695 c 0
 350.402424795 1441.10291391 350.402424795 1441.10291391 294.384606199 1392.3152618 c 0
 238.366787602 1343.52760968 238.366787602 1343.52760968 204.175393801 1271.14364445 c 0
 169.984 1198.75967923 169.984 1198.75967923 169.984 1116.16 c 0,22,23
 169.984 1053.85140379 169.984 1053.85140379 188.494989 997.374785087 c 0
 207.005977999 940.89816638 207.005977999 940.89816638 236.241011 901.537214913 c 0
 265.476044001 862.176263446 265.476044001 862.176263446 294.798989 835.646785087 c 0
 324.121933998 809.117306728 324.121933998 809.117306728 352.256 794.624 c 1,24,25
 327.839005376 787.242177353 327.839005376 787.242177353 300.528748686 770.738304132 c 0
 273.218491995 754.23443091 273.218491995 754.23443091 245.080292981 730.027404202 c 0
 216.942093967 705.820377494 216.942093967 705.820377494 191.455350538 672.750980058 c 0
 165.968607109 639.681582621 165.968607109 639.681582621 146.005255944 602.110885683 c 0
 126.041904779 564.540188745 126.041904779 564.540188745 114.220952389 518.170655983 c 0
 102.4 471.801123222 102.4 471.801123222 102.4 423.936 c 0,26,27
 102.4 294.353382551 102.4 294.353382551 167.312169507 190.324370638 c 0
 232.224339013 86.2953587244 232.224339013 86.2953587244 344.005163827 28.8117293622 c 0
 455.78598864 -28.6719 455.78598864 -28.6719 591.872 -28.6719 c 0,28,29
 671.82618426 -28.6719 671.82618426 -28.6719 755.660598198 2.9673316931 c 0
 839.495012136 34.6065633862 839.495012136 34.6065633862 914.143401802 100.115234974 c 0
 988.791791468 165.623906561 988.791791468 165.623906561 1026.05 251.904 c 13,0,-1
EndSplineSet
Fore
SplineSet
811 1200 m 17,0,1
 772 1276 772 1276 717 1314 c 128,-1,2
 662 1352 662 1352 565 1352 c 128,-1,3
 468 1352 468 1352 399 1287.5 c 128,-1,4
 330 1223 330 1223 330 1119 c 128,-1,5
 330 1015 330 1015 403 946 c 128,-1,6
 476 877 476 877 567 877 c 2,7,-1
 668 877 l 1,8,-1
 668 735 l 1,9,-1
 571 735 l 2,10,11
 428 735 428 735 343 656 c 128,-1,12
 258 577 258 577 258 431.5 c 128,-1,13
 258 286 258 286 350 199.5 c 128,-1,14
 442 113 442 113 563.5 113 c 128,-1,15
 685 113 685 113 768.5 201.5 c 128,-1,16
 852 290 852 290 852 408 c 1,17,-1
 657 408 l 1,18,-1
 657 547 l 1,19,-1
 1159 547 l 1,20,-1
 1159 406 l 1,21,-1
 1018 406 l 1,22,23
 1018 291.175675676 1018 291.175675676 948 180.5 c 0,24,25
 815.495726496 -29 815.495726496 -29 561 -29 c 0,26,27
 378.570247934 -29 378.570247934 -29 239.5 103.5 c 0,28,29
 176 164 176 164 138 250 c 128,-1,30
 100 336 100 336 100 423 c 128,-1,31
 100 510 100 510 127 581 c 128,-1,32
 154 652 154 652 195 698.5 c 0,33,34
 278.869885983 793.620724346 278.869885983 793.620724346 365 813 c 1,35,36
 283 848 283 848 227.5 925.5 c 128,-1,37
 172 1003 172 1003 172 1109.5 c 128,-1,38
 172 1216 172 1216 219.5 1300.5 c 128,-1,39
 267 1385 267 1385 359 1439 c 128,-1,40
 451 1493 451 1493 574.5 1493 c 128,-1,41
 698 1493 698 1493 796.5 1429 c 128,-1,42
 895 1365 895 1365 946 1266 c 1,43,-1
 811 1200 l 17,0,1
EndSplineSet
EndChar

StartChar: quotesingle
Encoding: 39 39 7
Width: 382
Flags: HMW
LayerCount: 2
Fore
SplineSet
150 1092 m 2,0,-1
 129 1466 l 1,1,2
 129 1502 129 1502 150.5 1522 c 128,-1,3
 172 1542 172 1542 201 1542 c 2,4,-1
 205 1542 l 2,5,6
 230 1542 230 1542 250.5 1527.5 c 0,7,8
 279 1507.34146341 279 1507.34146341 279 1466 c 1,9,-1
 258 1092 l 2,10,11
 257 1070 257 1070 240 1057 c 128,-1,12
 223 1044 223 1044 203.5 1044 c 0,13,14
 159.210526316 1044 159.210526316 1044 151 1083 c 0,15,16
 150 1086 150 1086 150 1092 c 2,0,-1
EndSplineSet
EndChar

StartChar: parenleft
Encoding: 40 40 8
Width: 548
Flags: HMW
LayerCount: 2
Fore
SplineSet
279 -84 m 1,0,1
 169 85 169 85 105 297 c 128,-1,2
 41 509 41 509 41 724 c 0,3,4
 41 939 41 939 102.5 1154.5 c 128,-1,5
 164 1370 164 1370 279 1550 c 1,6,-1
 457 1550 l 1,7,8
 193 1168 193 1168 193 729 c 0,9,10
 193 513 193 513 266.5 299.5 c 128,-1,11
 340 86 340 86 457 -84 c 1,12,-1
 279 -84 l 1,0,1
EndSplineSet
EndChar

StartChar: parenright
Encoding: 41 41 9
Width: 536
Flags: HMW
LayerCount: 2
Fore
SplineSet
266 -84 m 1,0,-1
 90 -84 l 1,1,2
 217 103 217 103 285.5 315.5 c 128,-1,3
 354 528 354 528 354 731.5 c 0,4,5
 354 935 354 935 280 1157.5 c 128,-1,6
 206 1380 206 1380 90 1550 c 1,7,-1
 266 1550 l 1,8,9
 372 1384 372 1384 439 1165 c 128,-1,10
 506 946 506 946 506 731.5 c 0,11,12
 506 283.058823529 506 283.058823529 266 -84 c 1,0,-1
EndSplineSet
EndChar

StartChar: asterisk
Encoding: 42 42 10
Width: 913
Flags: HMW
LayerCount: 2
Fore
SplineSet
462 518 m 1,0,-1
 349 294 l 1,1,2
 330 254 330 254 297.5 254 c 0,3,4
 265 254 265 254 245 266 c 0,5,6
 207 288 207 288 207 318 c 0,7,8
 207 348 207 348 219 369 c 1,9,-1
 354 576 l 1,10,-1
 109 562 l 1,11,12
 81 562 81 562 57 579.5 c 128,-1,13
 33 597 33 597 33 634 c 0,14,15
 33 671 33 671 54 691.5 c 128,-1,16
 75 712 75 712 109 712 c 1,17,-1
 357 698 l 1,18,-1
 221 906 l 1,19,20
 209 928 209 928 209 957 c 0,21,22
 209 986 209 986 239 1003.5 c 0,23,24
 269 1021 269 1021 289 1021 c 0,25,26
 331 1021 331 1021 351 981 c 2,27,-1
 462 762 l 1,28,-1
 571 979 l 2,29,30
 591 1019 591 1019 622.5 1019 c 0,31,32
 654 1019 654 1019 673 1007 c 0,33,34
 713 984 713 984 713 955 c 0,35,36
 713 926 713 926 701 904 c 1,37,-1
 566 698 l 1,38,-1
 813 712 l 1,39,40
 847 712 847 712 868 691.5 c 128,-1,41
 889 671 889 671 889 634 c 0,42,43
 889 597 889 597 865 579.5 c 128,-1,44
 841 562 841 562 813 562 c 1,45,-1
 569 576 l 1,46,-1
 703 371 l 1,47,48
 715 350 715 350 715 320 c 0,49,50
 715 290 715 290 686 273 c 0,51,52
 657 256 657 256 624.5 256 c 0,53,54
 592 256 592 256 573 296 c 2,55,-1
 462 518 l 1,0,-1
EndSplineSet
EndChar

StartChar: plus
Encoding: 43 43 11
Width: 894
Flags: HMW
LayerCount: 2
Fore
SplineSet
78 711 m 1,0,-1
 385 711 l 1,1,-1
 385 1022 l 1,2,-1
 526 1022 l 1,3,-1
 526 711 l 1,4,-1
 834 711 l 1,5,-1
 834 569 l 1,6,-1
 526 569 l 1,7,-1
 526 258 l 1,8,-1
 385 258 l 1,9,-1
 385 569 l 1,10,-1
 78 569 l 1,11,-1
 78 711 l 1,0,-1
EndSplineSet
EndChar

StartChar: comma
Encoding: 44 44 12
Width: 399
Flags: HMW
LayerCount: 2
Fore
SplineSet
279 177.5 m 128,-1,1
 308 153 308 153 313 131 c 128,-1,2
 318 109 318 109 318 83 c 128,-1,3
 318 57 318 57 310 18.5 c 128,-1,4
 302 -20 302 -20 291.5 -49 c 128,-1,5
 281 -78 281 -78 264.5 -109.5 c 128,-1,6
 248 -141 248 -141 237 -158.5 c 128,-1,7
 226 -176 226 -176 211.5 -197 c 128,-1,8
 197 -218 197 -218 195 -221 c 1,9,-1
 139 -190 l 1,10,11
 211 -87 211 -87 211 -12 c 1,12,13
 172 -12 172 -12 143 11.5 c 0,14,15
 103 43.9137931034 103 43.9137931034 103 91.4568965517 c 128,-1,16
 103 139 103 139 135 170.5 c 128,-1,17
 167 202 167 202 208.5 202 c 128,-1,0
 250 202 250 202 279 177.5 c 128,-1,1
EndSplineSet
EndChar

StartChar: hyphen
Encoding: 45 45 13
Width: 866
Flags: HMW
LayerCount: 2
Fore
SplineSet
109 705 m 1,0,-1
 786 705 l 1,1,-1
 786 563 l 1,2,-1
 109 563 l 1,3,-1
 109 705 l 1,0,-1
EndSplineSet
EndChar

StartChar: period
Encoding: 46 46 14
Width: 405
Flags: HMW
LayerCount: 2
Back
SplineSet
55.5117 138.778 m 4,0,1
 55.5117 196.231162015 55.5117 196.231162015 96.1734310062 236.893581008 c 0
 136.835162012 277.556 136.835162012 277.556 194.288 277.556 c 0,2,3
 213.14852468 277.556 213.14852468 277.556 231.138059875 272.566778713 c 0
 249.127595071 267.577557425 249.127595071 267.577557425 264.343690125 258.628721287 c 0
 279.559785178 249.679885149 279.559785178 249.679885149 292.375152468 236.864408342 c 0
 305.190519758 224.048931535 305.190519758 224.048931535 314.139171606 208.832795361 c 0
 323.087823454 193.616659188 323.087823454 193.616659188 328.076911727 175.627371305 c 0
 333.066 157.638083423 333.066 157.638083423 333.066 138.778 c 0,4,5
 333.066 81.3234422652 333.066 81.3234422652 292.404258633 40.6617211326 c 0
 251.742517265 -7.1054294928e-15 251.742517265 -7.1054294928e-15 194.288 0 c 0,6,7
 136.834799448 0 136.834799448 0 96.1732497241 40.6618127765 c 0
 55.5117 81.3236255531 55.5117 81.3236255531 55.5117 138.778 c 4,0,1
EndSplineSet
Fore
SplineSet
135 170.5 m 128,-1,1
 167 202 167 202 208.5 202 c 128,-1,2
 250 202 250 202 279 177.5 c 0,3,4
 318 144.551724138 318 144.551724138 318 97.275862069 c 128,-1,5
 318 50 318 50 286.5 18.5 c 128,-1,6
 255 -13 255 -13 213.5 -13 c 128,-1,7
 172 -13 172 -13 143 11 c 0,8,9
 103 44.1034482759 103 44.1034482759 103 91.5517241379 c 128,-1,0
 103 139 103 139 135 170.5 c 128,-1,1
EndSplineSet
EndChar

StartChar: slash
Encoding: 47 47 15
Width: 808
Flags: HMW
LayerCount: 2
Fore
SplineSet
135 0 m 1,0,-1
 -23 0 l 1,1,-1
 694 1544 l 1,2,-1
 852 1544 l 1,3,-1
 135 0 l 1,0,-1
EndSplineSet
EndChar

StartChar: zero
Encoding: 48 48 16
Width: 1136
Flags: HMW
LayerCount: 2
Fore
SplineSet
289.5 103.5 m 0,0,1
 100 320.891774892 100 320.891774892 100 733.5 c 0,2,3
 100 1042.90909091 100 1042.90909091 226.5 1263.5 c 0,4,5
 287 1369 287 1369 379 1431 c 128,-1,6
 471 1493 471 1493 582 1493 c 0,7,8
 747 1493 747 1493 860.5 1361 c 128,-1,9
 974 1229 974 1229 1020 1011 c 0,10,11
 1049 875 1049 875 1049 697.5 c 128,-1,12
 1049 520 1049 520 994.5 350.5 c 128,-1,13
 940 181 940 181 830 76 c 128,-1,14
 720 -29 720 -29 562.5 -29 c 128,-1,15
 405 -29 405 -29 289.5 103.5 c 0,0,1
278 943.5 m 128,-1,17
 258 836 258 836 258 714 c 128,-1,18
 258 592 258 592 288 452 c 128,-1,19
 318 312 318 312 391 212.5 c 128,-1,20
 464 113 464 113 573 113 c 0,21,22
 653 113 653 113 716.5 169 c 128,-1,23
 780 225 780 225 816.5 316.5 c 0,24,25
 891 503.260273973 891 503.260273973 891 727 c 0,26,27
 891 869 891 869 860.5 1012.5 c 128,-1,28
 830 1156 830 1156 759.5 1254 c 128,-1,29
 689 1352 689 1352 582 1352 c 0,30,31
 502 1352 502 1352 438 1294.5 c 128,-1,32
 374 1237 374 1237 336 1144 c 128,-1,16
 298 1051 298 1051 278 943.5 c 128,-1,17
EndSplineSet
EndChar

StartChar: one
Encoding: 49 49 17
Width: 1136
Flags: HMW
LayerCount: 2
Fore
SplineSet
582 1206 m 1,0,-1
 424 1206 l 1,1,-1
 647 1456 l 1,2,-1
 739 1456 l 1,3,-1
 739 0 l 1,4,-1
 582 0 l 1,5,-1
 582 1206 l 1,0,-1
EndSplineSet
EndChar

StartChar: two
Encoding: 50 50 18
Width: 1136
Flags: HMW
LayerCount: 2
Back
SplineSet
111.81 1007.74 m 4,0,1
 111.81 1106.7230777 111.81 1106.7230777 146.997597187 1196.86577337 c 0
 182.185194374 1287.00846903 182.185194374 1287.00846903 241.656902813 1352.19844538 c 0
 301.128611252 1417.38842173 301.128611252 1417.38842173 383.363597187 1455.95921087 c 0
 465.598583123 1494.53 465.598583123 1494.53 555.898 1494.53 c 0,2,3
 616.251516887 1494.53 616.251516887 1494.53 673.817744281 1477.02984522 c 0
 731.383971676 1459.52969043 731.383971676 1459.52969043 780.075505719 1428.14057145 c 0
 828.767039762 1396.75145247 828.767039762 1396.75145247 869.776151689 1351.79919707 c 0
 910.785263616 1306.84694167 910.785263616 1306.84694167 939.421024237 1253.47353441 c 0
 968.056784859 1200.10012716 968.056784859 1200.10012716 984.021892429 1136.99854892 c 0
 999.987 1073.89697068 999.987 1073.89697068 999.987 1007.74 c 0,4,5
 999.987 950.955055472 999.987 950.955055472 988.330740827 896.25351264 c 0
 976.674481654 841.551969809 976.674481654 841.551969809 954.748276666 793.635665202 c 0
 932.822071677 745.719360596 932.822071677 745.719360596 902.465131498 703.422130716 c 0
 872.108191318 661.124900836 872.108191318 661.124900836 833.521256257 627.849012141 c 0
 794.934321196 594.573123447 794.934321196 594.573123447 751.22121313 570.538620512 c 0
 707.508105064 546.504117577 707.508105064 546.504117577 657.60495305 533.727058788 c 0
 607.701801037 520.95 607.701801037 520.95 555.898 520.95 c 0,6,7
 465.598624706 520.95 465.598624706 520.95 383.363604118 559.520925437 c 0
 301.128583529 598.091850874 301.128583529 598.091850874 241.656895882 663.281933938 c 0
 182.185208235 728.472017002 182.185208235 728.472017002 146.997604118 818.614644187 c 0
 111.81 908.757271372 111.81 908.757271372 111.81 1007.74 c 4,0,1
338.125 1007.74 m 4,8,9
 338.125 1124.41641908 338.125 1124.41641908 401.93233236 1206.98820954 c 0
 465.739664721 1289.56 465.739664721 1289.56 555.898 1289.56 c 0,10,11
 585.494526934 1289.56 585.494526934 1289.56 613.724111953 1279.42883005 c 0
 641.953696972 1269.29766011 641.953696972 1269.29766011 665.831388047 1251.12575328 c 0
 689.709079123 1232.95384645 689.709079123 1232.95384645 709.819352693 1206.92966339 c 0
 729.929626264 1180.90548033 729.929626264 1180.90548033 743.972239899 1150.00575328 c 0
 758.014853535 1119.10602623 758.014853535 1119.10602623 765.843926767 1082.57383005 c 0
 773.673 1046.04163388 773.673 1046.04163388 773.673 1007.74 c 0,12,13
 773.673 891.064540949 773.673 891.064540949 709.86491923 808.489270474 c 0
 646.056838461 725.914 646.056838461 725.914 555.898 725.914 c 0,14,15
 465.740506842 725.914 465.740506842 725.914 401.932753421 808.489370573 c 0
 338.125 891.064741145 338.125 891.064741145 338.125 1007.74 c 4,8,9
EndSplineSet
Fore
SplineSet
262 1110 m 9,0,-1
 123 1165 l 1,1,2
 162 1303 162 1303 290 1399 c 128,-1,3
 418 1495 418 1495 569 1495 c 0,4,5
 780.415841584 1495 780.415841584 1495 902 1341.5 c 0,6,7
 989 1231.6625 989 1231.6625 989 1053 c 0,8,9
 989 843.792207792 989 843.792207792 759.5 659 c 0,10,11
 710.847258486 619.825065274 710.847258486 619.825065274 656.923629243 584.412532637 c 128,-1,12
 603 549 603 549 576.5 530 c 128,-1,13
 550 511 550 511 501 465 c 128,-1,14
 452 419 452 419 404 364 c 0,15,16
 293 236.8125 293 236.8125 293 141 c 1,17,-1
 1016 141 l 1,18,-1
 1016 0 l 1,19,-1
 109 0 l 1,20,21
 109 326.178571429 109 326.178571429 418 580 c 0,22,23
 495.538461538 643.692307692 495.538461538 643.692307692 557.269230769 684.846153846 c 128,-1,24
 619 726 619 726 636 738 c 128,-1,25
 653 750 653 750 683.5 774 c 128,-1,26
 714 798 714 798 731.5 816.5 c 128,-1,27
 749 835 749 835 771.5 863.5 c 128,-1,28
 794 892 794 892 806 919 c 0,29,30
 836 986.5 836 986.5 836 1053 c 0,31,32
 836 1192 836 1192 756 1273 c 128,-1,33
 676 1354 676 1354 572.5 1354 c 128,-1,34
 469 1354 469 1354 384 1290.5 c 128,-1,35
 299 1227 299 1227 262 1110 c 9,0,-1
EndSplineSet
EndChar

StartChar: three
Encoding: 51 51 19
Width: 1126
Flags: HMW
LayerCount: 2
Back
SplineSet
25.6201 1076.06 m 4,0,1
 25.6201 1195.96090875 25.6201 1195.96090875 85.3895128605 1292.36606052 c 0
 145.158925721 1388.77121229 145.158925721 1388.77121229 246.514253806 1441.65060615 c 0
 347.869581891 1494.53 347.869581891 1494.53 469.709 1494.53 c 0,2,3
 591.548391987 1494.53 591.548391987 1494.53 692.903514664 1441.65059668 c 0
 794.25863734 1388.77119336 794.25863734 1388.77119336 854.02781867 1292.36606999 c 0
 913.797 1195.96094662 913.797 1195.96094662 913.797 1076.06 c 0,4,5
 913.797 956.161354103 913.797 956.161354103 854.027894694 859.756921859 c 0
 794.258789388 763.352489615 794.258789388 763.352489615 692.903438639 710.472744808 c 0
 591.548087891 657.593 591.548087891 657.593 469.709 657.593 c 0,6,7
 291.330143008 657.593 291.330143008 657.593 165.611796745 766.100524905 c 0
 39.3208881683 875.102228436 39.3208881683 875.102228436 26.8312639505 1043.18996669 c 0
 25.6560349102 1060.00449668 25.6560349102 1060.00449668 25.6201 1076.06 c 4,0,1
226.314 1076.06 m 4,8,9
 226.314 1174.38103001 226.314 1174.38103001 296.200312938 1234.105515 c 0
 366.086625876 1293.83 366.086625876 1293.83 469.709 1293.83 c 0,10,11
 573.330804882 1293.83 573.330804882 1293.83 643.217402441 1234.10544123 c 0
 713.104 1174.38088246 713.104 1174.38088246 713.104 1076.06 c 0,12,13
 713.104 977.735849583 713.104 977.735849583 643.217670242 918.010924792 c 0
 573.331340484 858.286 573.331340484 858.286 469.709 858.286 c 0,14,15
 419.416986608 858.286 419.416986608 858.286 375.013060268 873.613580564 c 0
 330.609133928 888.941161129 330.609133928 888.941161129 297.613627232 916.595810061 c 0
 264.618120536 944.250458993 264.618120536 944.250458993 245.466060268 985.545861814 c 0
 226.314 1026.84126464 226.314 1026.84126464 226.314 1076.06 c 4,8,9
469.709 1076.06 m 29
23.4863 414.198 m 4,17,18
 23.4863 466.00119306 23.4863 466.00119306 35.1424869816 515.903955107 c 0
 46.7986739632 565.806717154 46.7986739632 565.806717154 68.7247920271 609.51970087 c 0
 90.650910091 653.232684586 90.650910091 653.232684586 121.007732463 691.819605253 c 0
 151.364554834 730.406525919 151.364554834 730.406525919 189.951445088 760.763578421 c 0
 228.538335342 791.120630923 228.538335342 791.120630923 272.251405932 813.046952191 c 0
 315.964476522 834.97327346 315.964476522 834.97327346 365.867751794 846.62963673 c 0
 415.771027066 858.286 415.771027066 858.286 467.575 858.286 c 0,19,20
 557.87389483 858.286 557.87389483 858.286 640.10864393 823.098249616 c 0
 722.34339303 787.910499233 722.34339303 787.910499233 781.814746695 728.438734759 c 0
 841.28610036 668.966970284 841.28610036 668.966970284 876.47355018 586.731968366 c 0
 911.661 504.496966448 911.661 504.496966448 911.661 414.198 c 0,21,22
 911.661 341.879948837 911.661 341.879948837 889.238305992 274.109196805 c 0
 866.815611985 206.338444772 866.815611985 206.338444772 825.712318008 151.750249595 c 0
 784.609024031 97.1620544184 784.609024031 97.1620544184 730.020881992 56.0587904046 c 0
 675.432739954 14.9555263908 675.432739954 14.9555263908 607.662494008 -7.46703680459 c 0
 539.892248062 -29.8896 539.892248062 -29.8896 467.575 -29.8896 c 0,23,24
 298.692845521 -29.8896 298.692845521 -29.8896 172.545637604 82.3582420897 c 0
 50.3585826248 191.082275535 50.3585826248 191.082275535 27.7990944198 352.105629144 c 0
 23.5554916904 383.404908739 23.5554916904 383.404908739 23.4863 414.198 c 4,17,18
224.181 414.198 m 4,25,26
 224.181 463.689622162 224.181 463.689622162 243.4662304 508.760900569 c 0
 262.7514608 553.832178976 262.7514608 553.832178976 295.346285225 586.427208806 c 0
 327.941109651 619.022238637 327.941109651 619.022238637 373.01226165 638.307619319 c 0
 418.083413649 657.593 418.083413649 657.593 467.575 657.593 c 0,27,28
 568.339904695 657.593 568.339904695 657.593 639.653952348 586.278547652 c 0
 710.968 514.964095304 710.968 514.964095304 710.968 414.198 c 0,29,30
 710.968 364.707152638 710.968 364.707152638 691.682640467 319.636103565 c 0
 672.397280934 274.565054491 672.397280934 274.565054491 639.802468908 241.97003706 c 0
 607.207656882 209.375019629 607.207656882 209.375019629 562.136734217 190.089509815 c 0
 517.065811553 170.804 517.065811553 170.804 467.575 170.804 c 0,31,32
 366.809095303 170.804 366.809095303 170.804 295.495047652 242.118452347 c 0
 224.181 313.432904695 224.181 313.432904695 224.181 414.198 c 4,25,26
467.575 414.198 m 29
EndSplineSet
Fore
SplineSet
113 252 m 9,0,-1
 268 299 l 1,1,2
 306 217 306 217 385 165 c 128,-1,3
 464 113 464 113 547 113 c 0,4,5
 686 113 686 113 782.5 198 c 128,-1,6
 879 283 879 283 879 424 c 0,7,8
 879 571 879 571 774.5 653.5 c 0,9,10
 676.333333333 731 676.333333333 731 551 731 c 2,11,-1
 473 731 l 1,12,-1
 473 856 l 1,13,-1
 571 856 l 2,14,15
 668 856 668 856 739.5 930 c 128,-1,16
 811 1004 811 1004 811 1110 c 128,-1,17
 811 1216 811 1216 737.5 1287 c 128,-1,18
 664 1358 664 1358 569 1358 c 2,19,-1
 563 1358 l 2,20,21
 483 1358 483 1358 422.5 1315.5 c 128,-1,22
 362 1273 362 1273 330 1200 c 1,23,-1
 193 1264 l 1,24,25
 246 1369 246 1369 346 1433 c 128,-1,26
 446 1497 446 1497 558 1497 c 128,-1,27
 670 1497 670 1497 761 1450 c 128,-1,28
 852 1403 852 1403 910.5 1314 c 128,-1,29
 969 1225 969 1225 969 1129.5 c 128,-1,30
 969 1034 969 1034 936 963 c 0,31,32
 880.421052632 843.421052632 880.421052632 843.421052632 786 795 c 1,33,34
 864.786006699 772.193524377 864.786006699 772.193524377 946.5 673.5 c 0,35,36
 1036 565.402597403 1036 565.402597403 1036 424 c 0,37,38
 1036 228 1036 228 895 99.5 c 128,-1,39
 754 -29 754 -29 547 -29 c 0,40,41
 422 -29 422 -29 295 47.5 c 128,-1,42
 168 124 168 124 113 252 c 9,0,-1
EndSplineSet
EndChar

StartChar: four
Encoding: 52 52 20
Width: 1136
Flags: HMW
LayerCount: 2
Fore
SplineSet
864 1456 m 1,0,-1
 864 537 l 1,1,-1
 1053 537 l 1,2,-1
 1053 397 l 1,3,-1
 864 397 l 1,4,-1
 864 0 l 1,5,-1
 707 0 l 1,6,-1
 707 397 l 1,7,-1
 88 397 l 1,8,-1
 694 1456 l 1,9,-1
 864 1456 l 1,0,-1
711 1221 m 1,10,-1
 324 539 l 1,11,-1
 711 539 l 1,12,-1
 711 1221 l 1,10,-1
EndSplineSet
EndChar

StartChar: five
Encoding: 53 53 21
Width: 1136
Flags: HMW
LayerCount: 2
Back
SplineSet
224.181 1131.57 m 4,0,1
 224.181 1230.11179941 224.181 1230.11179941 273.34268013 1313.72878319 c 0
 322.50436026 1397.34576696 322.50436026 1397.34576696 407.103986537 1445.93788348 c 0
 491.703612813 1494.53 491.703612813 1494.53 591.405 1494.53 c 0,2,3
 691.107354571 1494.53 691.107354571 1494.53 775.707671976 1445.9378766 c 0
 860.307989381 1397.34575321 860.307989381 1397.34575321 909.469994691 1313.72879006 c 0
 958.632 1230.11182691 958.632 1230.11182691 958.632 1131.57 c 0,4,5
 958.632 1033.02827775 958.632 1033.02827775 909.469949515 949.412236105 c 0
 860.30789903 865.796194458 860.30789903 865.796194458 775.707717152 817.205097229 c 0
 691.107535274 768.614 691.107535274 768.614 591.405 768.614 c 0,6,7
 491.703432112 768.614 491.703432112 768.614 407.103941361 817.205090353 c 0
 322.504450611 865.796180706 322.504450611 865.796180706 273.342725305 949.41224298 c 0
 224.181 1033.02830525 224.181 1033.02830525 224.181 1131.57 c 4,0,1
145.182 414.198 m 4,8,9
 145.182 504.496982129 145.182 504.496982129 180.369640638 586.73197098 c 0
 215.557281276 668.966959831 215.557281276 668.966959831 275.028999987 728.438732145 c 0
 334.500718698 787.91050446 334.500718698 787.91050446 416.736046888 823.09825223 c 0
 498.971375077 858.286 498.971375077 858.286 589.271 858.286 c 0,10,11
 679.570624923 858.286 679.570624923 858.286 761.805953112 823.09825223 c 0
 844.041281302 787.91050446 844.041281302 787.91050446 903.513000013 728.438732145 c 0
 962.984718724 668.966959831 962.984718724 668.966959831 998.172359362 586.73197098 c 0
 1033.36 504.496982129 1033.36 504.496982129 1033.36 414.198 c 0,12,13
 1033.36 323.897974909 1033.36 323.897974909 998.17238383 241.662839568 c 0
 962.984767661 159.427704228 962.984767661 159.427704228 903.512975545 99.9563291819 c 0
 844.041183428 40.4849541362 844.041183428 40.4849541362 761.80597758 5.29767706809 c 0
 679.570771733 -29.8896 679.570771733 -29.8896 589.271 -29.8896 c 0,14,15
 498.971228267 -29.8896 498.971228267 -29.8896 416.73602242 5.29767706809 c 0
 334.500816572 40.4849541362 334.500816572 40.4849541362 275.029024455 99.9563291819 c 0
 215.557232339 159.427704228 215.557232339 159.427704228 180.36961617 241.662839568 c 0
 145.182 323.897974909 145.182 323.897974909 145.182 414.198 c 4,8,9
345.877 414.198 m 4,16,17
 345.877 514.964 345.877 514.964 417.1915 586.2785 c 0
 488.506 657.593 488.506 657.593 589.271 657.593 c 0,18,19
 690.036095305 657.593 690.036095305 657.593 761.351047652 586.278452349 c 0
 832.666 514.963904697 832.666 514.963904697 832.666 414.198 c 0,20,21
 832.666 313.433345303 832.666 313.433345303 761.350922652 242.118672651 c 0
 690.035845303 170.804 690.035845303 170.804 589.271 170.804 c 0,22,23
 488.50625 170.804 488.50625 170.804 417.191625 242.118625 c 0
 345.877 313.43325 345.877 313.43325 345.877 414.198 c 4,16,17
589.271 414.198 m 29
EndSplineSet
Fore
SplineSet
498.21875 795.5 m 128,-1,1
 463 784 463 784 444.5 777 c 128,-1,2
 426 770 426 770 408 758.5 c 128,-1,3
 390 747 390 747 381.5 741 c 128,-1,4
 373 735 373 735 359.5 723.5 c 128,-1,5
 346 712 346 712 344 711 c 1,6,-1
 199 786 l 1,7,-1
 293 1456 l 1,8,-1
 965 1456 l 1,9,-1
 965 1315 l 1,10,-1
 424 1315 l 1,11,-1
 358 887 l 1,12,13
 449 942 449 942 608 942 c 128,-1,14
 767 942 767 942 884 845 c 0,15,16
 1049 708.205128205 1049 708.205128205 1049 459 c 0,17,18
 1049 329 1049 329 995.5 218.5 c 128,-1,19
 942 108 942 108 837.5 39.5 c 128,-1,20
 733 -29 733 -29 580.5 -29 c 128,-1,21
 428 -29 428 -29 304.5 69.5 c 128,-1,22
 181 168 181 168 135 330 c 1,23,-1
 291 358 l 1,24,25
 375 113 375 113 598 113 c 0,26,27
 730 113 730 113 811.5 209.5 c 128,-1,28
 893 306 893 306 893 461 c 0,29,30
 893 627.075471698 893 627.075471698 780.5 732.5 c 0,31,32
 701 807 701 807 617.21875 807 c 128,-1,0
 533.4375 807 533.4375 807 498.21875 795.5 c 128,-1,1
EndSplineSet
EndChar

StartChar: six
Encoding: 54 54 22
Width: 1136
Flags: HMW
LayerCount: 2
Back
SplineSet
199.348 1131.57 m 4,0,1
 199.348 1230.11175528 199.348 1230.11175528 248.509936671 1313.72877215 c 0
 297.671873343 1397.34578903 297.671873343 1397.34578903 382.271729995 1445.93789451 c 0
 466.871586648 1494.53 466.871586648 1494.53 566.573 1494.53 c 0,2,3
 641.244261351 1494.53 641.244261351 1494.53 709.2466946 1465.77016358 c 0
 777.249127849 1437.01032717 777.249127849 1437.01032717 826.427352275 1388.40280517 c 0
 875.6055767 1339.79528317 875.6055767 1339.79528317 904.70278835 1272.58360108 c 0
 933.8 1205.371919 933.8 1205.371919 933.8 1131.57 c 0,4,5
 933.8 1033.02827775 933.8 1033.02827775 884.637949515 949.412236105 c 0
 835.47589903 865.796194458 835.47589903 865.796194458 750.875717152 817.205097229 c 0
 666.275535274 768.614 666.275535274 768.614 566.573 768.614 c 0,6,7
 491.902356268 768.614 491.902356268 768.614 423.900439586 797.373225243 c 0
 355.898522904 826.132450486 355.898522904 826.132450486 306.720419789 874.739181007 c 0
 257.542316673 923.345911528 257.542316673 923.345911528 228.445158336 990.557037743 c 0
 199.348 1057.76816396 199.348 1057.76816396 199.348 1131.57 c 4,0,1
120.35 414.198 m 4,8,9
 120.35 504.496982129 120.35 504.496982129 155.537640638 586.73197098 c 0
 190.725281276 668.966959831 190.725281276 668.966959831 250.196999987 728.438732145 c 0
 309.668718698 787.91050446 309.668718698 787.91050446 391.904046888 823.09825223 c 0
 474.139375077 858.286 474.139375077 858.286 564.439 858.286 c 0,10,11
 654.738646219 858.286 654.738646219 858.286 736.974269161 823.098243843 c 0
 819.209892104 787.910487686 819.209892104 787.910487686 878.681996464 728.438740532 c 0
 938.154100823 668.966993379 938.154100823 668.966993379 973.342050411 586.731962593 c 0
 1008.53 504.496931807 1008.53 504.496931807 1008.53 414.198 c 0,12,13
 1008.53 323.89802523 1008.53 323.89802523 973.34207488 241.662847955 c 0
 938.15414976 159.42767068 938.15414976 159.42767068 878.681971995 99.9563207949 c 0
 819.20979423 40.4849709101 819.20979423 40.4849709101 736.97429363 5.29768545505 c 0
 654.738793029 -29.8896 654.738793029 -29.8896 564.439 -29.8896 c 0,14,15
 474.139228267 -29.8896 474.139228267 -29.8896 391.90402242 5.29767706809 c 0
 309.668816572 40.4849541362 309.668816572 40.4849541362 250.197024455 99.9563291819 c 0
 190.725232339 159.427704228 190.725232339 159.427704228 155.53761617 241.662839568 c 0
 120.35 323.897974909 120.35 323.897974909 120.35 414.198 c 4,8,9
321.045 414.198 m 4,16,17
 321.045 514.964 321.045 514.964 392.3595 586.2785 c 0
 463.674 657.593 463.674 657.593 564.439 657.593 c 0,18,19
 665.204095305 657.593 665.204095305 657.593 736.519047652 586.278452349 c 0
 807.834 514.963904697 807.834 514.963904697 807.834 414.198 c 0,20,21
 807.834 348.116968464 807.834 348.116968464 775.249307745 292.044908783 c 0
 742.66461549 235.972849101 742.66461549 235.972849101 686.592358922 203.388424551 c 0
 630.520102353 170.804 630.520102353 170.804 564.439 170.804 c 0,22,23
 463.67425 170.804 463.67425 170.804 392.359625 242.118625 c 0
 321.045 313.43325 321.045 313.43325 321.045 414.198 c 4,16,17
564.439 414.198 m 29
EndSplineSet
Fore
SplineSet
879 408 m 0,0,1
 879 550.12804878 879 550.12804878 768 641.5 c 0,2,3
 686 709 686 709 565.5 709 c 128,-1,4
 445 709 445 709 362 619 c 128,-1,5
 279 529 279 529 279 412 c 0,6,7
 279 268.644171779 279 268.644171779 388.5 184 c 0,8,9
 470 121 470 121 589 121 c 128,-1,10
 708 121 708 121 793.5 208.5 c 128,-1,11
 879 296 879 296 879 408 c 0,0,1
436 827 m 1,12,13
 509 858 509 858 573 858 c 0,14,15
 735 858 735 858 860 757.5 c 0,16,17
 1028 622.428 1028 622.428 1028 408 c 0,18,19
 1028 247.313043478 1028 247.313043478 904.5 112 c 0,20,21
 847 49 847 49 759.5 10 c 128,-1,22
 672 -29 672 -29 571 -29 c 0,23,24
 405 -29 405 -29 287.5 73.5 c 0,25,26
 129 211.765957447 129 211.765957447 129 410 c 0,27,28
 129 529.170212766 129 529.170212766 164 611.085106383 c 128,-1,29
 199 693 199 693 216 727 c 128,-1,30
 233 761 233 761 262.5 811 c 128,-1,31
 292 861 292 861 297 870 c 2,32,-1
 631 1454 l 1,33,-1
 786 1454 l 1,34,-1
 436 827 l 1,12,13
EndSplineSet
EndChar

StartChar: seven
Encoding: 55 55 23
Width: 1136
Flags: HMW
LayerCount: 2
Fore
SplineSet
1079 1456 m 1,0,-1
 524 0 l 1,1,-1
 342 0 l 1,2,-1
 858 1307 l 1,3,-1
 111 1307 l 1,4,-1
 111 1456 l 1,5,-1
 1079 1456 l 1,0,-1
EndSplineSet
EndChar

StartChar: eight
Encoding: 56 56 24
Width: 1136
Flags: HMW
LayerCount: 2
Back
SplineSet
136.642 1076.06 m 4,0,1
 136.642 1195.96079417 136.642 1195.96079417 196.411625775 1292.36603188 c 0
 256.181251549 1388.77126958 256.181251549 1388.77126958 357.536374225 1441.65063479 c 0
 458.891496902 1494.53 458.891496902 1494.53 580.73 1494.53 c 0,2,3
 702.569450035 1494.53 702.569450035 1494.53 803.925029175 1441.65061772 c 0
 905.280608316 1388.77123543 905.280608316 1388.77123543 965.050304158 1292.36604895 c 0
 1024.82 1195.96086247 1024.82 1195.96086247 1024.82 1076.06 c 0,4,5
 1024.82 956.161438255 1024.82 956.161438255 965.050380182 859.756942897 c 0
 905.280760365 763.352447539 905.280760365 763.352447539 803.924953151 710.47272377 c 0
 702.569145938 657.593 702.569145938 657.593 580.73 657.593 c 0,6,7
 489.708979993 657.593 489.708979993 657.593 408.075329999 688.822939093 c 0
 326.441680005 720.052878186 326.441680005 720.052878186 266.609170001 774.584295282 c 0
 206.776659998 829.115712378 206.776659998 829.115712378 171.709329999 907.574782843 c 0
 136.642 986.033853309 136.642 986.033853309 136.642 1076.06 c 4,0,1
337.336 1076.06 m 4,8,9
 337.336 1174.38081636 337.336 1174.38081636 407.222437938 1234.10540818 c 0
 477.108875876 1293.83 477.108875876 1293.83 580.73 1293.83 c 0,10,11
 684.352374124 1293.83 684.352374124 1293.83 754.238687062 1234.105515 c 0
 824.125 1174.38103001 824.125 1174.38103001 824.125 1076.06 c 0,12,13
 824.125 1026.84126464 824.125 1026.84126464 804.972939732 985.545861814 c 0
 785.820879464 944.250458993 785.820879464 944.250458993 752.825372768 916.595810061 c 0
 719.829866072 888.941161129 719.829866072 888.941161129 675.425939732 873.613580564 c 0
 631.022013392 858.286 631.022013392 858.286 580.73 858.286 c 0,14,15
 477.108340275 858.286 477.108340275 858.286 407.222170138 918.010957843 c 0
 337.336 977.735915685 337.336 977.735915685 337.336 1076.06 c 4,8,9
580.73 1076.06 m 29
134.508 414.198 m 4,17,18
 134.508 504.496982129 134.508 504.496982129 169.695640638 586.73197098 c 0
 204.883281276 668.966959831 204.883281276 668.966959831 264.354999987 728.438732145 c 0
 323.826718698 787.91050446 323.826718698 787.91050446 406.062046888 823.09825223 c 0
 488.297375077 858.286 488.297375077 858.286 578.597 858.286 c 0,19,20
 668.895862886 858.286 668.895862886 858.286 751.130169856 823.098262197 c 0
 833.364476826 787.910524394 833.364476826 787.910524394 892.835252019 728.438722178 c 0
 952.306027212 668.966919962 952.306027212 668.966919962 987.493013606 586.731980947 c 0
 1022.68 504.497041933 1022.68 504.497041933 1022.68 414.198 c 0,21,22
 1022.68 323.897915104 1022.68 323.897915104 987.493038074 241.662829601 c 0
 952.306076148 159.427744097 952.306076148 159.427744097 892.835227551 99.9563391493 c 0
 833.364378953 40.4849342014 833.364378953 40.4849342014 751.130194324 5.29766710072 c 0
 668.896009695 -29.8896 668.896009695 -29.8896 578.597 -29.8896 c 0,23,24
 488.297228267 -29.8896 488.297228267 -29.8896 406.06202242 5.29767706809 c 0
 323.826816572 40.4849541362 323.826816572 40.4849541362 264.355024455 99.9563291819 c 0
 204.883232339 159.427704228 204.883232339 159.427704228 169.69561617 241.662839568 c 0
 134.508 323.897974909 134.508 323.897974909 134.508 414.198 c 4,17,18
335.202 414.198 m 4,25,26
 335.202 514.96425 335.202 514.96425 406.516375 586.278625 c 0
 477.83075 657.593 477.83075 657.593 578.597 657.593 c 0,27,28
 679.36180939 657.593 679.36180939 657.593 750.675404695 586.278595304 c 0
 821.989 514.964190609 821.989 514.964190609 821.989 414.198 c 0,29,30
 821.989 313.433059391 821.989 313.433059391 750.675279697 242.118529696 c 0
 679.361559393 170.804 679.361559393 170.804 578.597 170.804 c 0,31,32
 512.515008758 170.804 512.515008758 170.804 456.44275219 203.388464996 c 0
 400.370495621 235.972929992 400.370495621 235.972929992 367.78624781 292.044868337 c 0
 335.202 348.116806682 335.202 348.116806682 335.202 414.198 c 4,25,26
578.597 414.198 m 29
EndSplineSet
Fore
SplineSet
381 183 m 128,-1,1
 469 113 469 113 594 113 c 128,-1,2
 719 113 719 113 816 206.5 c 128,-1,3
 913 300 913 300 913 432 c 0,4,5
 913 587.240437158 913 587.240437158 792.5 673.5 c 0,6,7
 701 739 701 739 573.5 739 c 128,-1,8
 446 739 446 739 354 656.5 c 128,-1,9
 262 574 262 574 262 432 c 0,10,11
 262 402 262 402 269 364 c 1,12,0
 293 253 293 253 381 183 c 128,-1,1
423 930 m 0,13,14
 490 881 490 881 593.5 881 c 128,-1,15
 697 881 697 881 767.5 946 c 128,-1,16
 838 1011 838 1011 838 1124 c 0,17,18
 838 1241.83846154 838 1241.83846154 750 1307.5 c 0,19,20
 685 1356 685 1356 575 1356 c 128,-1,21
 465 1356 465 1356 398.5 1290 c 128,-1,22
 332 1224 332 1224 332 1110.2761194 c 128,-1,23
 332 996.552238806 332 996.552238806 423 930 c 0,13,14
360 807 m 1,24,25
 174 915.816326531 174 915.816326531 174 1124 c 0,26,27
 174 1283 174 1283 291 1390 c 128,-1,28
 408 1497 408 1497 572.5 1497 c 128,-1,29
 737 1497 737 1497 848 1414.5 c 128,-1,30
 959 1332 959 1332 987 1201 c 1,31,32
 995 1169 995 1169 995 1124 c 0,33,34
 995 917 995 917 807 807 c 1,35,36
 892 768 892 768 966 694 c 0,37,38
 1071 589 1071 589 1071 446 c 128,-1,39
 1071 303 1071 303 1003.5 196.5 c 128,-1,40
 936 90 936 90 824 30.5 c 128,-1,41
 712 -29 712 -29 582 -29 c 0,42,43
 411 -29 411 -29 280 73.5 c 128,-1,44
 149 176 149 176 114 336 c 1,45,46
 104 388 104 388 104 449 c 128,-1,47
 104 510 104 510 129.5 577 c 128,-1,48
 155 644 155 644 196.5 688.5 c 0,49,50
 273.603217158 771.1769437 273.603217158 771.1769437 360 807 c 1,24,25
EndSplineSet
EndChar

StartChar: nine
Encoding: 57 57 25
Width: 1136
Flags: HMW
LayerCount: 2
Back
SplineSet
241.089 1054.5 m 4,0,1
 241.089 955.247934343 241.089 955.247934343 310.328436386 883.302967172 c 0
 379.567872772 811.358 379.567872772 811.358 484.653 811.358 c 0,2,3
 585.30259215 811.358 585.30259215 811.358 652.363296075 881.427551075 c 0
 719.424 951.49710215 719.424 951.49710215 719.424 1043.11 c 0,4,5
 719.424 1086.32348872 719.424 1086.32348872 706.905033726 1125.33751609 c 0
 694.386067453 1164.35154346 694.386067453 1164.35154346 671.861054274 1194.39984391 c 0
 649.336041094 1224.44814436 649.336041094 1224.44814436 619.325865726 1246.58935609 c 0
 589.315690359 1268.73056782 589.315690359 1268.73056782 553.025246274 1280.34528391 c 0
 516.734802188 1291.96 516.734802188 1291.96 477.993 1291.96 c 0,6,7
 431.818264224 1291.96 431.818264224 1291.96 388.778476329 1274.30820142 c 0
 345.738688434 1256.65640284 345.738688434 1256.65640284 313.059851796 1225.96101733 c 0
 280.381015158 1195.26563183 280.381015158 1195.26563183 260.735007579 1150.42663892 c 0
 241.089 1105.58764601 241.089 1105.58764601 241.089 1054.5 c 4,0,1
737.784 716.073 m 4,8,9
 716.5566734 686.991163852 716.5566734 686.991163852 685.411391151 664.985683559 c 0
 654.266108902 642.980203265 654.266108902 642.980203265 619.749530724 630.637722691 c 0
 585.232952545 618.295242117 585.232952545 618.295242117 551.351984901 612.323621059 c 0
 517.471017258 606.352 517.471017258 606.352 484.653 606.352 c 0,10,11
 402.176884543 606.352 402.176884543 606.352 329.079960268 632.692049151 c 0
 255.983035992 659.032098302 255.983035992 659.032098302 203.076914132 703.530734849 c 0
 150.170792272 748.029371397 150.170792272 748.029371397 111.529185868 805.476945151 c 0
 72.8875794642 862.924518905 72.8875794642 862.924518905 53.7377397321 926.297070849 c 0
 34.5879 989.669622794 34.5879 989.669622794 34.5879 1052.6 c 0,12,13
 34.5879 1143.42469727 34.5879 1143.42469727 69.6102734625 1225.8691683 c 0
 104.632646925 1308.31363932 104.632646925 1308.31363932 163.949748412 1367.84567545 c 0
 223.2668499 1427.37771159 223.2668499 1427.37771159 305.396529713 1462.5238558 c 0
 387.526209525 1497.67 387.526209525 1497.67 477.993 1497.67 c 0,14,15
 567.08109357 1497.67 567.08109357 1497.67 643.623852315 1467.93503344 c 0
 720.166611061 1438.20006689 720.166611061 1438.20006689 775.403459685 1386.59115856 c 0
 830.640308308 1334.98225022 830.640308308 1334.98225022 870.672220315 1265.46972144 c 0
 910.704132322 1195.95719267 910.704132322 1195.95719267 931.479267685 1116.36088656 c 0
 952.254403047 1036.76458044 952.254403047 1036.76458044 955.165 951.096 c 0,16,17
 958.318457284 858.186138543 958.318457284 858.186138543 943.432 720.511 c 0
EndSplineSet
Fore
SplineSet
293 1053 m 0,0,1
 293 911.018404908 293 911.018404908 403.5 819.5 c 0,2,3
 485 752 485 752 606 752 c 128,-1,4
 727 752 727 752 810 841.5 c 128,-1,5
 893 931 893 931 893 1049 c 0,6,7
 893 1190.22699387 893 1190.22699387 782.5 1277 c 0,8,9
 701 1341 701 1341 582.5 1341 c 128,-1,10
 464 1341 464 1341 378.5 1253 c 128,-1,11
 293 1165 293 1165 293 1053 c 0,0,1
735 633 m 1,12,13
 662 602 662 602 598 602 c 0,14,15
 436 602 436 602 311 702.5 c 0,16,17
 143 837.572 143 837.572 143 1053 c 0,18,19
 143 1183.6 143 1183.6 224 1297 c 0,20,21
 310.564537158 1418.19035202 310.564537158 1418.19035202 446 1465.5 c 0,22,23
 519 1491 519 1491 600 1491 c 0,24,25
 766 1491 766 1491 884 1388 c 0,26,27
 1042 1250.08474576 1042 1250.08474576 1042 1051 c 0,28,29
 1042 930.183673469 1042 930.183673469 1006.5 847.591836735 c 128,-1,30
 971 765 971 765 956 734 c 128,-1,31
 941 703 941 703 908.5 648.5 c 128,-1,32
 876 594 876 594 874 590 c 2,33,-1
 550 0 l 1,34,-1
 382 0 l 1,35,-1
 735 633 l 1,12,13
EndSplineSet
EndChar

StartChar: less
Encoding: 60 60 28
Width: 843
Flags: HMW
LayerCount: 2
Fore
SplineSet
592 23 m 1,0,-1
 84 635 l 1,1,-1
 592 1235 l 1,2,-1
 791 1235 l 1,3,-1
 281 633 l 1,4,-1
 791 23 l 1,5,-1
 592 23 l 1,0,-1
EndSplineSet
EndChar

StartChar: equal
Encoding: 61 61 29
Width: 907
Flags: HMW
LayerCount: 2
Fore
SplineSet
66 500 m 1,0,-1
 866 500 l 1,1,-1
 866 358 l 1,2,-1
 66 358 l 1,3,-1
 66 500 l 1,0,-1
66 866 m 1,4,-1
 866 866 l 1,5,-1
 866 725 l 1,6,-1
 66 725 l 1,7,-1
 66 866 l 1,4,-1
EndSplineSet
EndChar

StartChar: greater
Encoding: 62 62 30
Width: 856
Flags: HMW
LayerCount: 2
Fore
SplineSet
291 20 m 1,0,-1
 92 20 l 1,1,-1
 600 633 l 1,2,-1
 92 1235 l 1,3,-1
 291 1235 l 1,4,-1
 797 635 l 1,5,-1
 291 20 l 1,0,-1
EndSplineSet
EndChar

StartChar: question
Encoding: 63 63 31
Width: 985
Flags: HMW
LayerCount: 2
Back
SplineSet
264.745 1093.14 m 0,0,1
 264.745 1173.09874893 264.745 1173.09874893 336.309762606 1231.32937446 c 0
 407.874525212 1289.56 407.874525212 1289.56 508.14 1289.56 c 0,2,3
 536.490521995 1289.56 536.490521995 1289.56 563.879543985 1284.28050768 c 0
 591.268565976 1279.00101536 591.268565976 1279.00101536 615.195237356 1269.13955063 c 0
 639.121908735 1259.2780859 639.121908735 1259.2780859 660.294844277 1245.684531 c 0
 681.467779819 1232.0909761 681.467779819 1232.0909761 698.088216947 1214.94444859 c 0
 714.708654076 1197.79792108 714.708654076 1197.79792108 726.736313665 1178.5012657 c 0
 738.763973253 1159.20461031 738.763973253 1159.20461031 745.148986627 1137.38398212 c 0
 751.534 1115.56335392 751.534 1115.56335392 751.534 1093.14 c 0,4,5
 751.534 1054.06831908 751.534 1054.06831908 732.248621615 1018.48595943 c 0
 712.96324323 982.903599783 712.96324323 982.903599783 680.368347135 957.170696821 c 0
 647.77345104 931.437793858 647.77345104 931.437793858 602.702309115 916.212396929 c 0
 557.63116719 900.987 557.63116719 900.987 508.14 900.987 c 0,6,7
 407.375170166 900.987 407.375170166 900.987 336.060085083 957.288031513 c 0
 264.745 1013.58906303 264.745 1013.58906303 264.745 1093.14 c 0,0,1
51.2402 1093.14 m 0,8,9
 51.2402 1202.11835857 51.2402 1202.11835857 111.83589995 1294.58875631 c 0
 172.431599901 1387.05915405 172.431599901 1387.05915405 276.705966716 1440.79457703 c 0
 380.980333532 1494.53 380.980333532 1494.53 503.869 1494.53 c 0,10,11
 577.577552415 1494.53 577.577552415 1494.53 646.651504052 1474.26341235 c 0
 715.725455689 1453.9968247 715.725455689 1453.9968247 771.363735948 1416.84562765 c 0
 827.002016207 1379.69443059 827.002016207 1379.69443059 868.895984052 1330.35477235 c 0
 910.789951896 1281.01511411 910.789951896 1281.01511411 933.643975948 1219.76018765 c 0
 956.498 1158.50526118 956.498 1158.50526118 956.498 1093.14 c 0,12,13
 956.498 984.163061185 956.498 984.163061185 895.902279391 891.69334863 c 0
 835.306558781 799.223636074 835.306558781 799.223636074 731.032053943 745.488318037 c 0
 626.757549104 691.753 626.757549104 691.753 503.869 691.753 c 0,14,15
 380.980456129 691.753 380.980456129 691.753 276.705997366 745.488320017 c 0
 172.431538602 799.223640034 172.431538602 799.223640034 111.835869301 891.69334665 c 0
 51.2402 984.163053266 51.2402 984.163053266 51.2402 1093.14 c 0,8,9
EndSplineSet
Fore
SplineSet
573 501 m 2
 573 360 l 1
 416 360 l 1
 416 505 l 2
 416 652.125 416 652.125 541 761.5 c 0
 561 779 561 779 595.5 807.5 c 0
 630 836 630 836 654.5 858 c 0
 679 880 679 880 689 889.5 c 0
 699 899 699 899 721 924.5 c 0
 743 950 743 950 751 970 c 0
 774 1027.5 774 1027.5 774 1094 c 0
 774 1218 774 1218 697 1287 c 0
 620 1356 620 1356 496 1356 c 0
 414 1356 414 1356 344.5 1311 c 0
 275 1266 275 1266 239 1204 c 0
 203 1142 203 1142 203 1085 c 1
 57 1110 l 1
 76 1274 76 1274 198 1385.5 c 0
 320 1497 320 1497 489 1497 c 0
 665.375 1497 665.375 1497 794 1399 c 0
 857 1351 857 1351 894.5 1273 c 0
 932 1195 932 1195 932 1098 c 0
 932 884.03125 932 884.03125 719 726.5 c 0
 671 691 671 691 644 669 c 0
 617 647 617 647 595 603.5 c 0
 573 560 573 560 573 501 c 2
EndSplineSet
Refer: 14 46 N 1 0 0 1 293 0 2
EndChar

StartChar: at
Encoding: 64 64 32
Width: 1624
Flags: HMW
LayerCount: 2
Back
SplineSet
1095.49 730.855 m 4,0,1
 1095.49 800.59625 1095.49 800.59625 1144.846875 849.953125 c 0
 1194.20375 899.31 1194.20375 899.31 1263.94 899.31 c 0,2,3
 1333.68297654 899.31 1333.68297654 899.31 1383.04148827 849.95351174 c 0
 1432.4 800.59702348 1432.4 800.59702348 1432.4 730.855 c 0,4,5
 1432.4 661.114803868 1432.4 661.114803868 1383.04127693 611.757901934 c 0
 1333.68255387 562.401 1333.68255387 562.401 1263.94 562.401 c 0,6,7
 1218.20784467 562.401 1218.20784467 562.401 1179.40112783 584.952579204 c 0
 1140.594411 607.504158408 1140.594411 607.504158408 1118.0422055 646.312087463 c 0
 1095.49 685.120016518 1095.49 685.120016518 1095.49 730.855 c 4,0,1
969.309 730.184 m 0,8,9
 969.309 852.162744495 969.309 852.162744495 1055.63499723 938.491372247 c 0
 1141.96099446 1024.82 1141.96099446 1024.82 1263.94 1024.82 c 0,10,11
 1385.91986326 1024.82 1385.91986326 1024.82 1472.24993163 938.490943371 c 0
 1558.58 852.161886743 1558.58 852.161886743 1558.58 730.184 c 0,12,13
 1558.58 608.204381211 1558.58 608.204381211 1472.25019061 521.876190606 c 0
 1385.92038122 435.548 1385.92038122 435.548 1263.94 435.548 c 0,14,15
 1141.96047652 435.548 1141.96047652 435.548 1055.63473826 521.875761733 c 0
 969.309 608.203523466 969.309 608.203523466 969.309 730.184 c 0,8,9
581.585 730.654 m 0,16,17
 581.585 818.564577731 581.585 818.564577731 644.424413865 881.403788865 c 0
 707.263827731 944.243 707.263827731 944.243 795.175 944.243 c 0,18,19
 883.084544116 944.243 883.084544116 944.243 945.922272058 881.403852945 c 0
 1008.76 818.564705889 1008.76 818.564705889 1008.76 730.654 c 0,20,21
 1008.76 673.024886796 1008.76 673.024886796 980.027741227 623.777555032 c 0
 951.295482454 574.530223269 951.295482454 574.530223269 902.049258773 545.797111634 c 0
 852.803035093 517.064 852.803035093 517.064 795.175 517.064 c 0,22,23
 707.26375 517.064 707.26375 517.064 644.424375 579.903375 c 0
 581.585 642.74275 581.585 642.74275 581.585 730.654 c 0,16,17
157.566 730.323 m 0,24,25
 157.566 860.174605441 157.566 860.174605441 207.869058349 978.101199865 c 0
 258.172116699 1096.02779429 258.172116699 1096.02779429 343.350097901 1181.20575326 c 0
 428.528079102 1266.38371223 428.528079102 1266.38371223 546.455245849 1316.68685612 c 0
 664.382412597 1366.99 664.382412597 1366.99 794.235 1366.99 c 0,26,27
 898.22905495 1366.99 898.22905495 1366.99 995.462641869 1334.93600382 c 0
 1092.69622879 1302.88200765 1092.69622879 1302.88200765 1170.92627813 1244.05965218 c 0
 1249.15632747 1185.2372967 1249.15632747 1185.2372967 1307.97912187 1107.00798782 c 0
 1366.80191626 1028.77867894 1366.80191626 1028.77867894 1398.85595813 931.546756176 c 0
 1430.91 834.314833409 1430.91 834.314833409 1430.91 730.323 c 0,28,29
 1430.91 626.329730626 1430.91 626.329730626 1398.85594331 529.097149228 c 0
 1366.80188662 431.864567831 1366.80188662 431.864567831 1307.97913669 353.635251572 c 0
 1249.15638677 275.405935313 1249.15638677 275.405935313 1170.92626331 216.583808428 c 0
 1092.69613985 157.761681544 1092.69613985 157.761681544 995.462656692 125.707990772 c 0
 898.229173539 93.6543 898.229173539 93.6543 794.235 93.6543 c 0,30,31
 664.38222657 93.6543 664.38222657 93.6543 546.455214845 143.957024934 c 0
 428.52820312 194.259749867 428.52820312 194.259749867 343.350128905 279.437503191 c 0
 258.17205469 364.615256516 258.17205469 364.615256516 207.869027345 482.542443684 c 0
 157.566 600.469630851 157.566 600.469630851 157.566 730.323 c 0,24,25
29.8896 730.184 m 0,32,33
 29.8896 885.926471798 29.8896 885.926471798 90.3349863523 1027.49089113 c 0
 150.780372705 1169.05531047 150.780372705 1169.05531047 253.071601148 1271.34692137 c 0
 355.362829591 1373.63853227 355.362829591 1373.63853227 496.927386352 1434.08426613 c 0
 638.491943114 1494.53 638.491943114 1494.53 794.235 1494.53 c 0,34,35
 949.977005332 1494.53 949.977005332 1494.53 1091.54129776 1434.08424494 c 0
 1233.1055902 1373.63848989 1233.1055902 1373.63848989 1335.39706161 1271.34694256 c 0
 1437.68853303 1169.05539522 1437.68853303 1169.05539522 1498.13426651 1027.49086994 c 0
 1558.58 885.926344664 1558.58 885.926344664 1558.58 730.184 c 0,36,37
 1558.58 473.121139664 1558.58 473.121139664 1404.2927727 269.127452511 c 0
 1262.44703162 81.5835045289 1262.44703162 81.5835045289 1040.69902057 6.30773138896 c 0
 920.939866041 -33.9906390907 920.939866041 -33.9906390907 794.235 -34.1602 c 0,38,39
 537.171858203 -34.1602 537.171858203 -34.1602 333.178151593 120.125763126 c 0
 145.633513543 261.970850367 145.633513543 261.970850367 70.3576592758 483.718812203 c 0
 30.0591606391 603.47819359 30.0591606391 603.47819359 29.8896 730.184 c 0,32,33
452.629 730.184 m 0,40,41
 452.629 799.375520074 452.629 799.375520074 479.794658113 862.612310637 c 0
 506.960316225 925.849101201 506.960316225 925.849101201 552.765107512 971.653892488 c 0
 598.569898799 1017.45868377 598.569898799 1017.45868377 661.806689363 1044.62434189 c 0
 725.043479926 1071.79 725.043479926 1071.79 794.235 1071.79 c 0,42,43
 849.649155698 1071.79 849.649155698 1071.79 901.730368462 1054.4783659 c 0
 953.811581227 1037.16673179 953.811581227 1037.16673179 995.824039538 1005.4763701 c 0
 1037.83649785 973.786008419 1037.83649785 973.786008419 1069.52672046 931.773389895 c 0
 1101.21694308 889.760771371 1101.21694308 889.760771371 1118.52847154 837.679474105 c 0
 1135.84 785.598176838 1135.84 785.598176838 1135.84 730.184 c 0,44,45
 1135.84 637.796582717 1135.84 637.796582717 1089.96968847 559.057395679 c 0
 1044.09937694 480.318208641 1044.09937694 480.318208641 965.360644862 434.447604321 c 0
 886.621912781 388.577 886.621912781 388.577 794.235 388.577 c 0,46,47
 701.848061214 388.577 701.848061214 388.577 623.109098637 434.447593255 c 0
 544.37013606 480.31818651 544.37013606 480.31818651 498.49956803 559.057406745 c 0
 452.629 637.796626981 452.629 637.796626981 452.629 730.184 c 0,40,41
EndSplineSet
Fore
SplineSet
1176 213 m 1,0,-1
 1253 111 l 1,1,2
 1054 -35 1054 -35 792.5 -35 c 128,-1,3
 531 -35 531 -35 322 136.5 c 128,-1,4
 113 308 113 308 58 569 c 0,5,6
 41 651 41 651 41 731 c 0,7,8
 41 939 41 939 143 1114.5 c 128,-1,9
 245 1290 245 1290 421 1392.5 c 128,-1,10
 597 1495 597 1495 805 1495 c 0,11,12
 941 1495 941 1495 1068.5 1448.5 c 128,-1,13
 1196 1402 1196 1402 1292.5 1323 c 128,-1,14
 1389 1244 1389 1244 1457.5 1138 c 0,15,16
 1565 971.649635036 1565 971.649635036 1565 782 c 0,17,18
 1565 707 1565 707 1538 637.5 c 128,-1,19
 1511 568 1511 568 1469 521 c 0,20,21
 1376.95744681 418 1376.95744681 418 1284 418 c 0,22,23
 1229 418 1229 418 1169 446.5 c 128,-1,24
 1109 475 1109 475 1069 518 c 1,25,26
 1025 458 1025 458 954.5 423.5 c 128,-1,27
 884 389 884 389 805 389 c 0,28,29
 683 389 683 389 589 466 c 0,30,31
 463 569.212765957 463 569.212765957 463 720.106382979 c 128,-1,32
 463 871 463 871 563 971 c 128,-1,33
 663 1071 663 1071 793 1071 c 128,-1,34
 923 1071 923 1071 1010 994.5 c 0,35,36
 1128 890.74137931 1128 890.74137931 1128 731 c 0,37,38
 1128 653.243902439 1128 653.243902439 1177.5 600.12195122 c 128,-1,39
 1227 547 1227 547 1280.5 547 c 128,-1,40
 1334 547 1334 547 1385 618.5 c 128,-1,41
 1436 690 1436 690 1436 782 c 0,42,43
 1436 930.126126126 1436 930.126126126 1349.5 1066.5 c 0,44,45
 1232.31865593 1251.24536227 1232.31865593 1251.24536227 1027 1328 c 0,46,47
 920 1368 920 1368 796.5 1368 c 128,-1,48
 673 1368 673 1368 554.5 1316 c 128,-1,49
 436 1264 436 1264 351.5 1177 c 128,-1,50
 267 1090 267 1090 217.5 972 c 128,-1,51
 168 854 168 854 168 758 c 0,52,53
 168 430.971181556 168 430.971181556 401.5 236.5 c 0,54,55
 575 92 575 92 805 92 c 0,56,57
 898 92 898 92 999.5 126 c 128,-1,58
 1101 160 1101 160 1176 213 c 1,0,-1
671.5 562.5 m 0,59,60
 730 516 730 516 812.5 516 c 128,-1,61
 895 516 895 516 949.5 578 c 128,-1,62
 1004 640 1004 640 1004 731 c 0,63,64
 1004 824.769911504 1004 824.769911504 937.5 885.384955752 c 128,-1,65
 871 946 871 946 796 946 c 128,-1,66
 721 946 721 946 656.5 882.5 c 128,-1,67
 592 819 592 819 592 722.346153846 c 128,-1,68
 592 625.692307692 592 625.692307692 671.5 562.5 c 0,59,60
EndSplineSet
EndChar

StartChar: m
Encoding: 109 109 33
Width: 1533
Flags: HMW
LayerCount: 2
Back
SplineSet
280.576 0 m 9,0,-1
 129.024 0 l 1,1,-1
 129.024 1073.15 l 1,2,-1
 280.576 1073.15 l 1,3,-1
 280.576 870.4 l 1,4,5
 283.681283193 876.610566387 283.681283193 876.610566387 289.870507191 889.105330134 c 0
 304.767581587 919.179443657 304.767581587 919.179443657 312.753932544 934.5900663 c 0
 320.7402835 950.000688942 320.7402835 950.000688942 336.464639362 976.611525374 c 0
 352.188995224 1003.22236181 352.188995224 1003.22236181 364.25441771 1017.55698287 c 0
 376.319840196 1031.89160393 376.319840196 1031.89160393 395.505212598 1050.5673407 c 0
 414.690584999 1069.24307747 414.690584999 1069.24307747 433.72680376 1078.64629929 c 0
 452.76302252 1088.0495211 452.76302252 1088.0495211 478.301136206 1094.93476055 c 0
 503.839249891 1101.82 503.839249891 1101.82 532.48 1101.82 c 0,6,7
 583.087563879 1101.82 583.087563879 1101.82 625.369467499 1091.4222869 c 0
 667.651371119 1081.0245738 667.651371119 1081.0245738 704.037865834 1059.05637977 c 0
 740.42436055 1037.08818573 740.42436055 1037.08818573 767.837356388 1001.63436097 c 0
 795.250352226 966.18053622 795.250352226 966.18053622 814.704754723 917.442898284 c 0
 834.15915722 868.705260349 834.15915722 868.705260349 844.08657861 803.302435049 c 0
 854.014 737.899609749 854.014 737.899609749 854.014 657.408 c 2,8,-1
 854.016 0 l 1,9,-1
 702.464 0 l 1,10,-1
 702.462 657.408 l 2,11,12
 702.462 826.977752864 702.462 826.977752864 666.807540155 895.792876432 c 0
 631.153080311 964.608 631.153080311 964.608 532.482 964.608 c 0,13,14
 476.063023359 964.608 476.063023359 964.608 427.781805976 934.779599989 c 0
 379.500588594 904.951199977 379.500588594 904.951199977 347.835287774 856.004400011 c 0
 316.169986953 807.057600045 316.169986953 807.057600045 298.372993476 745.211599989 c 0
 280.576 683.365599932 280.576 683.365599932 280.576 618.496 c 2,15,-1
 280.576 0 l 9,0,-1
143.36 1474.56 m 25,16,-1
 143.36 -53.248 l 1
430.08 1466.37 m 25,18,-1
 430.08 -61.4404 l 1
286.72 -69.6318 m 25,20,-1
 286.72 1458.18 l 1,21,-1
 286.72 -69.6318 l 25,20,-1
573.44 1470.46 m 25,22,-1
 573.44 -57.3438 l 1
716.8 1466.37 m 25,24,-1
 716.8 -61.4404 l 1
860.16 -49.1523 m 25,26,-1
 860.16 1478.66 l 1,27,-1
 860.16 -49.1523 l 25,26,-1
EndSplineSet
Fore
SplineSet
854 0 m 1,0,-1
 702 0 l 1,1,-1
 702 547 l 2,2,3
 702 783.697674419 702 783.697674419 646.5 880.5 c 0,4,5
 598.053333333 965 598.053333333 965 499 965 c 0,6,7
 281 965 281 965 281 550 c 2,8,-1
 281 0 l 1,9,-1
 129 0 l 1,10,-1
 129 1073 l 1,11,-1
 281 1073 l 1,12,-1
 281 891 l 1,13,14
 341.212520593 1018.11532125 341.212520593 1018.11532125 395.5 1058 c 0,15,16
 455.388888889 1102 455.388888889 1102 556.694444444 1102 c 128,-1,17
 658 1102 658 1102 732.5 1033.5 c 128,-1,18
 807 965 807 965 834 860 c 1,19,20
 860 964 860 964 935 1033 c 128,-1,21
 1010 1102 1010 1102 1119 1102 c 0,22,23
 1278 1102 1278 1102 1352.5 982.5 c 128,-1,24
 1427 863 1427 863 1427 653 c 2,25,-1
 1427 0 l 1,26,-1
 1276 0 l 1,27,-1
 1276 543 l 2,28,29
 1276 746.344827586 1276 746.344827586 1241.5 832 c 0,30,31
 1207.13385827 917.322834646 1207.13385827 917.322834646 1151.5 943 c 0,32,33
 1119 958 1119 958 1076 958 c 0,34,35
 854 958 854 958 854 549 c 2,36,-1
 854 0 l 1,0,-1
EndSplineSet
EndChar

StartChar: n
Encoding: 110 110 34
Width: 1064
Flags: HMW
LayerCount: 2
Back
SplineSet
280.576 0 m 13,0,-1
 129.024 0 l 1,1,-1
 129.024 1073.15 l 1,2,-1
 280.576 1073.15 l 1,3,-1
 280.576 892.928 l 1,4,5
 287.77243843 910.019541271 287.77243843 910.019541271 299.144119333 929.015817944 c 0
 310.515800236 948.012094617 310.515800236 948.012094617 326.40344918 968.362619374 c 0
 342.291098125 988.713144132 342.291098125 988.713144132 360.846836534 1007.82962552 c 0
 379.402574943 1026.94610692 379.402574943 1026.94610692 401.970469588 1044.0951908 c 0
 424.538364234 1061.24427469 424.538364234 1061.24427469 448.200305922 1074.03272756 c 0
 471.86224761 1086.82118044 471.86224761 1086.82118044 499.032533728 1094.32059022 c 0
 526.202819847 1101.82 526.202819847 1101.82 552.96 1101.82 c 0,6,7
 627.906551494 1101.82 627.906551494 1101.82 701.286425357 1066.42237674 c 0
 774.66629922 1031.02475348 774.66629922 1031.02475348 830.819809018 972.10174826 c 0
 886.973318815 913.178743039 886.973318815 913.178743039 921.696394107 830.58012674 c 0
 956.419469399 747.981510441 956.419469399 747.981510441 956.414 659.456 c 2,8,-1
 956.416 0 l 1,9,-1
 804.864 0 l 1,10,-1
 804.864 661.504 l 2,11,12
 804.864 729.821252983 804.864 729.821252983 782.416902647 788.202990081 c 0
 759.969805295 846.584727178 759.969805295 846.584727178 723.567534853 884.394916169 c 0
 687.16526441 922.205105161 687.16526441 922.205105161 642.140777647 943.406552581 c 0
 597.116290884 964.608 597.116290884 964.608 550.912 964.608 c 0,13,14
 498.082174188 964.608 498.082174188 964.608 448.346716531 936.769052211 c 0
 398.611258875 908.930104422 398.611258875 908.930104422 361.827970969 862.462947789 c 0
 325.044683063 815.995791157 325.044683063 815.995791157 302.809341531 751.809052211 c 0
 280.574 687.622313265 280.574 687.622313265 280.574 618.496 c 2,15,-1
 280.576 0 l 13,0,-1
1003.52 -49.1523 m 25,16,-1
 1003.52 1478.66 l 1,17,-1
 1003.52 -49.1523 l 25,16,-1
143.36 1474.56 m 25,18,-1
 143.36 -53.248 l 1
430.08 1466.37 m 25,20,-1
 430.08 -61.4404 l 1
286.72 -69.6318 m 25,22,-1
 286.72 1458.18 l 1,23,-1
 286.72 -69.6318 l 25,22,-1
573.44 1470.46 m 25,24,-1
 573.44 -57.3438 l 1
716.8 1466.37 m 25,26,-1
 716.8 -61.4404 l 1
860.16 -49.1523 m 25,28,-1
 860.16 1478.66 l 1,29,-1
 860.16 -49.1523 l 25,28,-1
EndSplineSet
Fore
SplineSet
281 0 m 9,0,-1
 129 0 l 1,1,-1
 129 1073 l 1,2,-1
 281 1073 l 1,3,-1
 281 892 l 1,4,5
 309 981 309 981 391 1041.5 c 128,-1,6
 473 1102 473 1102 586 1102 c 0,7,8
 755 1102 755 1102 855.5 962.5 c 128,-1,9
 956 823 956 823 956 541 c 2,10,-1
 956 0 l 1,11,-1
 805 0 l 1,12,-1
 805 541 l 2,13,14
 805 841.411764706 805 841.411764706 665 932 c 0,15,16
 614 965 614 965 535.5 965 c 128,-1,17
 457 965 457 965 395.5 905 c 0,18,19
 281 793.292682927 281 793.292682927 281 540 c 2,20,-1
 281 0 l 9,0,-1
EndSplineSet
EndChar

StartChar: o
Encoding: 111 111 35
Width: 1054
Flags: HMW
LayerCount: 2
Back
SplineSet
1003.52 -49.1523 m 29,0,-1
 1003.52 1478.66 l 1,1,-1
 1003.52 -49.1523 l 29,0,-1
143.36 1474.56 m 25,2,-1
 143.36 -53.248 l 1
430.08 1466.37 m 25,4,-1
 430.08 -61.4404 l 1
286.72 -69.6318 m 25,6,-1
 286.72 1458.18 l 1,7,-1
 286.72 -69.6318 l 25,6,-1
573.44 1470.46 m 25,8,-1
 573.44 -57.3438 l 1
716.8 1466.37 m 25,10,-1
 716.8 -61.4404 l 1
860.16 -49.1523 m 25,12,-1
 860.16 1478.66 l 1,13,-1
 860.16 -49.1523 l 25,12,-1
EndSplineSet
Fore
SplineSet
150.5 251 m 128,-1,1
 102 377 102 377 102 516.5 c 128,-1,2
 102 656 102 656 130.5 757 c 128,-1,3
 159 858 159 858 212.5 933.5 c 0,4,5
 326.231788079 1094 326.231788079 1094 539 1094 c 0,6,7
 677 1094 677 1094 777.5 1019 c 0,8,9
 975 871.611940299 975 871.611940299 975 537 c 0,10,11
 975 196.313432836 975 196.313432836 779.5 47.5 c 0,12,13
 679 -29 679 -29 539.5 -29 c 128,-1,14
 400 -29 400 -29 299.5 48 c 128,-1,0
 199 125 199 125 150.5 251 c 128,-1,1
283.5 749.5 m 128,-1,16
 256 658 256 658 256 552.5 c 128,-1,17
 256 447 256 447 272 371 c 128,-1,18
 288 295 288 295 321 234.5 c 0,19,20
 391.090909091 106 391.090909091 106 539 106 c 0,21,22
 749.210526316 106 749.210526316 106 805 371 c 0,23,24
 821 447 821 447 821 552.5 c 128,-1,25
 821 658 821 658 793.5 749.5 c 128,-1,26
 766 841 766 841 701 899.5 c 128,-1,27
 636 958 636 958 538.5 958 c 128,-1,28
 441 958 441 958 376 899.5 c 128,-1,15
 311 841 311 841 283.5 749.5 c 128,-1,16
EndSplineSet
EndChar

StartChar: p
Encoding: 112 112 36
Width: 1044
Flags: HMW
LayerCount: 2
Back
SplineSet
280.576 0 m 13,0,-1
 129.024 0 l 1,1,-1
 129.024 1073.15 l 1,2,-1
 280.576 1073.15 l 1,3,-1
 280.576 870.4 l 1,4,5
 298.125437 905.498874 298.125437 905.498874 319.298658624 937.10963525 c 0
 340.471880247 968.7203965 340.471880247 968.7203965 369.353629376 999.46095675 c 0
 398.235378505 1030.201517 398.235378505 1030.201517 430.021730624 1052.38528325 c 0
 461.808082742 1074.5690495 461.808082742 1074.5690495 501.703581376 1088.19452475 c 0
 541.599080011 1101.82 541.599080011 1101.82 583.68 1101.82 c 0,6,7
 634.593571065 1101.82 634.593571065 1101.82 680.39266081 1091.32708327 c 0
 726.191750556 1080.83416654 726.191750556 1080.83416654 768.48133919 1059.1515834 c 0
 810.770927824 1037.46900026 810.770927824 1037.46900026 844.667957106 1001.53915734 c 0
 878.564986389 965.609314424 878.564986389 965.609314424 903.800079931 917.538101917 c 0
 929.035173472 869.46688941 929.035173472 869.46688941 942.724586736 803.207231416 c 0
 956.414 736.947573423 956.414 736.947573423 956.414 657.408 c 2,8,-1
 956.416 0 l 1,9,-1
 804.864 0 l 1,10,-1
 804.862 657.408 l 2,11,12
 804.862 816.107622935 804.862 816.107622935 747.155726684 890.357811468 c 0
 689.449453368 964.608 689.449453368 964.608 583.682 964.608 c 0,13,14
 538.082434346 964.608 538.082434346 964.608 492.595936293 945.343578805 c 0
 447.109438241 926.07915761 447.109438241 926.07915761 409.541327707 892.105637195 c 0
 371.973217173 858.13211678 371.973217173 858.13211678 342.648672293 814.861402805 c 0
 313.324127414 771.59068883 313.324127414 771.59068883 296.950063707 720.335781195 c 0
 280.576 669.080873559 280.576 669.080873559 280.576 618.496 c 2,15,-1
 280.576 0 l 13,0,-1
143.36 1474.56 m 25,16,-1
 143.36 -53.248 l 1
430.08 1466.37 m 25,18,-1
 430.08 -61.4404 l 1
286.72 -69.6318 m 25,20,-1
 286.72 1458.18 l 1,21,-1
 286.72 -69.6318 l 25,20,-1
573.44 1470.46 m 25,22,-1
 573.44 -57.3438 l 1
716.8 1466.37 m 25,24,-1
 716.8 -61.4404 l 1
860.16 -49.1523 m 25,26,-1
 860.16 1478.66 l 1,27,-1
 860.16 -49.1523 l 25,26,-1
EndSplineSet
Fore
SplineSet
281 886 m 1,0,1
 372.2 1102 372.2 1102 580 1102 c 0,2,3
 681 1102 681 1102 759 1055.5 c 128,-1,4
 837 1009 837 1009 883 928.5 c 0,5,6
 975 767.5 975 767.5 975 539 c 0,7,8
 975 313 975 313 883 149 c 0,9,10
 837 67 837 67 758.5 19 c 128,-1,11
 680 -29 680 -29 598 -29 c 128,-1,12
 516 -29 516 -29 466 -11.5 c 128,-1,13
 416 6 416 6 381 38 c 0,14,15
 321.855614973 92.0748663102 321.855614973 92.0748663102 281 184 c 1,16,-1
 281 -428 l 1,17,-1
 129 -428 l 1,18,-1
 129 1073 l 1,19,-1
 281 1073 l 9,20,-1
 281 886 l 1,0,1
821 539 m 128,-1,22
 821 739 821 739 744.5 852.5 c 128,-1,23
 668 966 668 966 552 966 c 128,-1,24
 436 966 436 966 356 851 c 128,-1,25
 276 736 276 736 276 537.5 c 128,-1,26
 276 339 276 339 356 222.5 c 128,-1,27
 436 106 436 106 551.5 106 c 128,-1,28
 667 106 667 106 744 222.5 c 128,-1,21
 821 339 821 339 821 539 c 128,-1,22
EndSplineSet
EndChar

StartChar: q
Encoding: 113 113 37
Width: 1048
Flags: HMW
LayerCount: 2
Back
SplineSet
262.144 538.624 m 4,0,1
 262.144 360.092223467 262.144 360.092223467 333.424248105 232.699755588 c 1
 404.836489502 107.305677079 404.836489502 107.305677079 509.954 106.496 c 0,2,3
 545.267979189 106.496 545.267979189 106.496 584.866693399 123.653339434 c 0
 624.465407608 140.810678867 624.465407608 140.810678867 664.040378601 177.074980566 c 0
 703.615349594 213.339282266 703.615349594 213.339282266 735.401701399 263.081179434 c 0
 767.188053203 312.823076601 767.188053203 312.823076601 787.050026601 384.824100566 c 0
 806.912 456.825124532 806.912 456.825124532 806.912 538.624 c 0,4,5
 806.912 625.817677113 806.912 625.817677113 780.32204554 704.840451394 c 0
 753.73209108 783.863225675 753.73209108 783.863225675 711.068251335 838.175407981 c 0
 668.404411589 892.487590288 668.404411589 892.487590288 614.32838929 924.451795144 c 0
 560.252366991 956.416 560.252366991 956.416 505.856 956.416 c 0,6,7
 437.44819128 956.416 437.44819128 956.416 381.404714487 900.949333333 c 0
 325.361237693 845.482666667 325.361237693 845.482666667 293.752618847 749.738666667 c 0
 262.144 653.994666667 262.144 653.994666667 262.144 538.624 c 4,0,1
802.816 161.792 m 5,8,9
 673.562059679 -28.6963 673.562059679 -28.6963 513.495 -28.6963 c 0,10,11
 512.629786145 -28.6963 512.629786145 -28.6963 511.745921187 -28.690088248 c 0
 510.862056229 -28.6838764959 510.862056229 -28.6838764959 509.95 -28.6719 c 0,12,13
 508.449844828 -28.6816 508.449844828 -28.6816 507.263 -28.6816 c 0,14,15
 450.93744845 -28.6816 450.93744845 -28.6816 400.361803406 -10.844097409 c 0
 349.786158361 6.99340518209 349.786158361 6.99340518209 310.127552279 38.5057988667 c 0
 270.468946197 70.0181925513 270.468946197 70.0181925513 237.2058967 113.275131746 c 0
 203.942847203 156.53207094 203.942847203 156.53207094 180.415960443 207.214778459 c 0
 156.889073682 257.897485977 156.889073682 257.897485977 140.525162006 314.24219297 c 0
 124.161250331 370.586899963 124.161250331 370.586899963 116.352625166 428.108252511 c 0
 108.544 485.629605059 108.544 485.629605059 108.544 542.72 c 0,16,17
 108.544 628.010805672 108.544 628.010805672 125.015227273 708.478232709 c 0
 141.486454545 788.945659746 141.486454545 788.945659746 174.943044727 858.797911291 c 0
 208.399634909 928.650162836 208.399634909 928.650162836 255.136955273 981.041368709 c 0
 301.874275636 1033.43257458 301.874275636 1033.43257458 366.504772727 1063.53128729 c 0
 431.135269818 1093.63 431.135269818 1093.63 505.856 1093.63 c 0,18,19
 599.273447972 1093.63 599.273447972 1093.63 678.137328309 1035.87749586 c 0
 757.001208645 978.124991718 757.001208645 978.124991718 802.818 894.976 c 1,20,-1
 802.816 1073.15 l 1,21,-1
 954.368 1073.15 l 1,22,-1
 954.368 -18.4316 l 2,23,24
 954.368 -75.5506285714 954.368 -75.5506285714 942.569213686 -127.911333528 c 0
 930.770427373 -180.272038484 930.770427373 -180.272038484 909.419870862 -222.92320758 c 0
 888.069314351 -265.574376676 888.069314351 -265.574376676 858.631067914 -301.949714869 c 0
 829.192821477 -338.325053061 829.192821477 -338.325053061 793.561585147 -365.113036152 c 0
 757.930348818 -391.901019242 757.930348818 -391.901019242 717.946006689 -410.786351603 c 0
 677.961664561 -429.671683965 677.961664561 -429.671683965 635.143112844 -439.091841983 c 0
 592.324561127 -448.512 592.324561127 -448.512 548.864 -448.512 c 0,25,26
 475.114284269 -448.512 475.114284269 -448.512 409.443400161 -426.97954139 c 0
 343.772516053 -405.447082781 343.772516053 -405.447082781 296.699111839 -370.43370661 c 0
 249.625707625 -335.420330439 249.625707625 -335.420330439 213.713928161 -290.52477339 c 0
 177.802148696 -245.629216342 177.802148696 -245.629216342 158.159959839 -199.34477861 c 0
 138.517770982 -153.060340878 138.517770982 -153.060340878 133.12 -108.544 c 1,27,-1
 276.478 -108.544 l 1,28,29
 283.324832591 -152.513429099 283.324832591 -152.513429099 309.018114641 -191.276113183 c 0
 334.711396691 -230.038797267 334.711396691 -230.038797267 371.176744734 -256.455261817 c 0
 407.642092776 -282.871726366 407.642092776 -282.871726366 452.020958391 -298.107863183 c 0
 496.399824006 -313.344 496.399824006 -313.344 540.672 -313.344 c 0,30,31
 578.974655285 -313.344 578.974655285 -313.344 615.935607911 -302.876638317 c 0
 652.896560536 -292.409276634 652.896560536 -292.409276634 686.887304089 -269.793284883 c 0
 720.878047643 -247.177293132 720.878047643 -247.177293132 746.548855911 -214.927243117 c 0
 772.219664179 -182.677193102 772.219664179 -182.677193102 787.517832089 -135.640913683 c 0
 802.816 -88.6046342647 802.816 -88.6046342647 802.816 -32.7676 c 2,32,-1
 802.816 161.792 l 5,8,9
143.36 1474.56 m 25,33,-1
 143.36 -53.248 l 1
430.08 1466.37 m 25,35,-1
 430.08 -61.4404 l 1
286.72 -69.6318 m 25,37,-1
 286.72 1458.18 l 1,38,-1
 286.72 -69.6318 l 25,37,-1
573.44 1470.46 m 25,39,-1
 573.44 -57.3438 l 1
716.8 1466.37 m 25,41,-1
 716.8 -61.4404 l 1
860.16 -49.1523 m 25,43,-1
 860.16 1478.66 l 1,44,-1
 860.16 -49.1523 l 25,43,-1
EndSplineSet
Fore
SplineSet
468 1102 m 0,0,1
 675.8 1102 675.8 1102 767 886 c 1,2,-1
 767 1073 l 1,3,-1
 919 1073 l 1,4,-1
 919 -199 l 2,5,6
 919 -260 919 -260 945 -286.5 c 128,-1,7
 971 -313 971 -313 1037 -313 c 1,8,-1
 1037 -449 l 1,9,10
 905 -449 905 -449 836 -390.5 c 128,-1,11
 767 -332 767 -332 767 -205 c 2,12,-1
 767 184 l 1,13,14
 675.714285714 -29 675.714285714 -29 466 -29 c 0,15,16
 366 -29 366 -29 288 19.5 c 128,-1,17
 210 68 210 68 164.5 149.5 c 0,18,19
 73 313.395604396 73 313.395604396 73 539 c 0,20,21
 73 767.5 73 767.5 165 928.5 c 0,22,23
 211 1009 211 1009 289 1055.5 c 128,-1,24
 367 1102 367 1102 468 1102 c 0,0,1
227 539 m 128,-1,26
 227 339 227 339 304 222.5 c 128,-1,27
 381 106 381 106 496.5 106 c 128,-1,28
 612 106 612 106 692 222.5 c 128,-1,29
 772 339 772 339 772 537.5 c 128,-1,30
 772 736 772 736 692 851 c 128,-1,31
 612 966 612 966 496 966 c 128,-1,32
 380 966 380 966 303.5 852.5 c 128,-1,25
 227 739 227 739 227 539 c 128,-1,26
EndSplineSet
EndChar

StartChar: r
Encoding: 114 114 38
Width: 686
Flags: HMW
LayerCount: 2
Back
SplineSet
143.36 1474.56 m 29,0,-1
 143.36 -53.248 l 1
430.08 1466.37 m 29,2,-1
 430.08 -61.4404 l 1
286.72 -69.6318 m 29,4,-1
 286.72 1458.18 l 1,5,-1
 286.72 -69.6318 l 29,4,-1
573.44 1470.46 m 29,6,-1
 573.44 -57.3438 l 1
716.8 1466.37 m 29,8,-1
 716.8 -61.4404 l 1
860.16 -49.1523 m 29,10,-1
 860.16 1478.66 l 1,11,-1
 860.16 -49.1523 l 29,10,-1
EndSplineSet
Fore
SplineSet
737 1066 m 1,0,-1
 657 935 l 1,1,2
 608 965 608 965 532.5 965 c 128,-1,3
 457 965 457 965 395.5 905 c 0,4,5
 281 793.292682927 281 793.292682927 281 540 c 2,6,-1
 281 0 l 1,7,-1
 129 0 l 1,8,-1
 129 1073 l 1,9,-1
 281 1073 l 1,10,-1
 281 892 l 1,11,12
 309 981 309 981 391 1041.5 c 128,-1,13
 473 1102 473 1102 570.5 1102 c 128,-1,14
 668 1102 668 1102 737 1066 c 1,0,-1
EndSplineSet
EndChar

StartChar: s
Encoding: 115 115 39
Width: 921
Flags: HMW
LayerCount: 2
Back
SplineSet
108.544 806.912 m 4,0,1
 108.544 866.045503372 108.544 866.045503372 136.293029098 919.898365145 c 0
 164.042058196 973.751226918 164.042058196 973.751226918 210.941439652 1012.6972911 c 0
 257.840821108 1051.64335529 257.840821108 1051.64335529 322.691466598 1074.68667765 c 0
 387.542112089 1097.73 387.542112089 1097.73 458.752 1097.73 c 0,2,3
 553.832760503 1097.73 553.832760503 1097.73 634.512190126 1058.79645398 c 0
 715.191619748 1019.86290795 715.191619748 1019.86290795 762.075809874 952.865546024 c 0
 808.96 885.868184094 808.96 885.868184094 808.96 806.912 c 0,4,5
 808.96 767.389190589 808.96 767.389190589 796.369830382 729.6914598 c 0
 783.779660765 691.99372901 783.779660765 691.99372901 761.197419618 660.107623534 c 0
 738.615178471 628.221518057 738.615178471 628.221518057 706.275330382 601.366219059 c 0
 673.935482294 574.510920061 673.935482294 574.510920061 635.537419618 555.758438349 c 0
 597.139356942 537.005956636 597.139356942 537.005956636 551.742830382 526.550978318 c 0
 506.346303823 516.096 506.346303823 516.096 458.752 516.096 c 0,6,7
 310.984645645 516.096 310.984645645 516.096 207.807164048 604.123363065 c 0
 109.099832389 689.500435017 109.099832389 689.500435017 108.544 806.912 c 4,0,1
264.192 802.816 m 0,8,9
 264.192 835.298023752 264.192 835.298023752 279.932487491 864.879155 c 0
 295.672974982 894.460286248 295.672974982 894.460286248 322.276590634 915.853141875 c 0
 348.880206285 937.245997501 348.880206285 937.245997501 385.666893741 949.90349875 c 0
 422.453581197 962.561 422.453581197 962.561 462.848 962.561 c 0,10,11
 489.846022808 962.561 489.846022808 962.561 515.597305985 956.818089016 c 0
 541.348589161 951.075178032 541.348589161 951.075178032 563.129944015 940.774452651 c 0
 584.91129887 930.47372727 584.91129887 930.47372727 603.256102281 915.722135312 c 0
 621.600905691 900.970543355 621.600905691 900.970543355 634.410684756 883.455526725 c 0
 647.220463821 865.940510095 647.220463821 865.940510095 654.36223191 845.233181609 c 0
 661.504 824.525853122 661.504 824.525853122 661.504 802.816 c 0,12,13
 661.504 781.106390607 661.504 781.106390607 654.362230793 760.399239061 c 0
 647.220461586 739.692087515 647.220461586 739.692087515 634.410685873 722.177177606 c 0
 621.60091016 704.662267697 621.60091016 704.662267697 603.256101164 689.910739061 c 0
 584.911292167 675.159210424 584.911292167 675.159210424 563.129945133 664.858510939 c 0
 541.348598099 654.557811455 541.348598099 654.557811455 515.597304867 648.814905727 c 0
 489.846011636 643.072 489.846011636 643.072 462.848 643.072 c 0,14,15
 380.604051033 643.072 380.604051033 643.072 322.398025517 689.877128965 c 0
 264.192 736.682257931 264.192 736.682257931 264.192 802.816 c 0,8,9
104.448 296.96 m 0,16,17
 104.448 349.654020481 104.448 349.654020481 122.751102233 399.03496856 c 0
 141.054204466 448.41591664 141.054204466 448.41591664 174.605825767 488.19162344 c 0
 208.157447067 527.96733024 208.157447067 527.96733024 252.716334233 557.91733656 c 0
 297.275221399 587.86734288 297.275221399 587.86734288 352.594337767 604.20567144 c 0
 407.913454135 620.544 407.913454135 620.544 466.944 620.544 c 0,18,19
 540.652916394 620.544 540.652916394 620.544 607.779038149 594.904613216 c 0
 674.905159904 569.265226432 674.905159904 569.265226432 723.450055601 525.931293034 c 0
 771.994951298 482.597359636 771.994951298 482.597359636 800.717475649 422.676925716 c 0
 829.44 362.756491797 829.44 362.756491797 829.44 296.96 c 0,20,21
 829.44 167.56108984 829.44 167.56108984 729.399348554 73.8293951644 c 0
 627.331656645 -21.8015068347 627.331656645 -21.8015068347 479.868821753 -26.4218244436 c 0
 472.912851174 -26.6095325889 472.912851174 -26.6095325889 466.944 -26.624 c 0,22,23
 407.913454135 -26.624 407.913454135 -26.624 352.594337767 -10.2856714399 c 0
 297.275221399 6.05265712015 297.275221399 6.05265712015 252.716334233 36.0026634399 c 0
 208.157447067 65.9526697597 208.157447067 65.9526697597 174.605825767 105.72837656 c 0
 141.054204466 145.50408336 141.054204466 145.50408336 122.751102233 194.88503144 c 0
 104.448 244.265979519 104.448 244.265979519 104.448 296.96 c 0,16,17
256 301.056 m 0,24,25
 256 340.617229358 256 340.617229358 272.551923085 376.645335101 c 0
 289.103846171 412.673440845 289.103846171 412.673440845 317.07884254 438.728649274 c 0
 345.053838909 464.783857703 345.053838909 464.783857703 383.736704335 480.199928851 c 0
 422.419569762 495.616 422.419569762 495.616 464.896 495.616 c 0,26,27
 521.611316085 495.616 521.611316085 495.616 569.735829021 469.569273316 c 0
 617.860341957 443.522546633 617.860341957 443.522546633 645.826170979 398.700726684 c 0
 673.792 353.878906734 673.792 353.878906734 673.792 301.056 c 0,28,29
 673.792 212.520926258 673.792 212.520926258 601.977939838 154.281475041 c 0
 542.390371165 106.884657951 542.390371165 106.884657951 464.896 106.496 c 0,30,31
 378.412842687 106.496 378.412842687 106.496 317.206421343 163.502081837 c 0
 256 220.508163674 256 220.508163674 256 301.056 c 0,24,25
143.36 1474.56 m 25,32,-1
 143.36 -53.248 l 1
430.08 1466.37 m 25,34,-1
 430.08 -61.4404 l 1
286.72 -69.6318 m 25,36,-1
 286.72 1458.18 l 1,37,-1
 286.72 -69.6318 l 25,36,-1
573.44 1470.46 m 25,38,-1
 573.44 -57.3438 l 1
716.8 1466.37 m 25,40,-1
 716.8 -61.4404 l 1
860.16 -49.1523 m 25,42,-1
 860.16 1478.66 l 1,43,-1
 860.16 -49.1523 l 25,42,-1
EndSplineSet
Fore
SplineSet
368 513 m 128,-1,1
 327 529 327 529 276.5 558 c 128,-1,2
 226 587 226 587 195 619.5 c 0,3,4
 121 697.080645161 121 697.080645161 121 821.540322581 c 128,-1,5
 121 946 121 946 221 1021 c 128,-1,6
 321 1096 321 1096 469 1098 c 1,7,8
 682.549295775 1098 682.549295775 1098 787 943.5 c 0,9,10
 811 908 811 908 823 871 c 1,11,-1
 677 841 l 1,12,13
 623 963 623 963 471 963 c 0,14,15
 391 963 391 963 332.5 923.5 c 128,-1,16
 274 884 274 884 274 813 c 0,17,18
 274 768 274 768 288 747 c 128,-1,19
 302 726 302 726 310.5 714 c 128,-1,20
 319 702 319 702 336 690.5 c 128,-1,21
 353 679 353 679 362.5 672.5 c 128,-1,22
 372 666 372 666 392.5 657.5 c 128,-1,23
 413 649 413 649 420.5 645.5 c 0,24,25
 433 639.666666667 433 639.666666667 458 631.333333333 c 128,-1,26
 483 623 483 623 514.5 611.5 c 128,-1,27
 546 600 546 600 563 594 c 128,-1,28
 580 588 580 588 611.5 575 c 128,-1,29
 643 562 643 562 661.5 552 c 128,-1,30
 680 542 680 542 707 525 c 128,-1,31
 734 508 734 508 750.5 492 c 128,-1,32
 767 476 767 476 786 453 c 128,-1,33
 805 430 805 430 815.5 406 c 0,34,35
 840 350 840 350 840 287 c 0,36,37
 840 150 840 150 732 60.5 c 128,-1,38
 624 -29 624 -29 472.5 -29 c 128,-1,39
 321 -29 321 -29 227.5 38 c 128,-1,40
 134 105 134 105 96 217 c 1,41,-1
 243 245 l 1,42,43
 273 178 273 178 325 142 c 128,-1,44
 377 106 377 106 473.5 106 c 128,-1,45
 570 106 570 106 628 154 c 128,-1,46
 686 202 686 202 686 287 c 0,47,48
 686 366.915492958 686 366.915492958 612.5 413.5 c 0,49,50
 555.709216789 449.494158373 555.709216789 449.494158373 482.354608395 473.247079186 c 128,-1,0
 409 497 409 497 368 513 c 128,-1,1
EndSplineSet
EndChar

StartChar: t
Encoding: 116 116 40
Width: 696
Flags: HMW
LayerCount: 2
Back
SplineSet
143.36 1474.56 m 29,0,-1
 143.36 -53.248 l 1
430.08 1466.37 m 29,2,-1
 430.08 -61.4404 l 1
286.72 -69.6318 m 29,4,-1
 286.72 1458.18 l 1,5,-1
 286.72 -69.6318 l 29,4,-1
573.44 1470.46 m 29,6,-1
 573.44 -57.3438 l 1
716.8 1466.37 m 29,8,-1
 716.8 -61.4404 l 1
860.16 -49.1523 m 29,10,-1
 860.16 1478.66 l 1,11,-1
 860.16 -49.1523 l 29,10,-1
EndSplineSet
Fore
SplineSet
244 938 m 1,0,-1
 102 938 l 1,1,-1
 102 1073 l 1,2,-1
 244 1073 l 1,3,-1
 244 1323 l 1,4,-1
 395 1323 l 1,5,-1
 395 1073 l 1,6,-1
 592 1073 l 1,7,-1
 592 938 l 1,8,-1
 395 938 l 1,9,-1
 395 215 l 2,10,11
 395 98 395 98 512 98 c 2,12,-1
 582 98 l 1,13,-1
 582 -29 l 1,14,-1
 512 -29 l 2,15,16
 364 -29 364 -29 304 26.5 c 128,-1,17
 244 82 244 82 244 211 c 2,18,-1
 244 938 l 1,0,-1
EndSplineSet
EndChar

StartChar: u
Encoding: 117 117 41
Width: 1064
Flags: HMW
LayerCount: 2
Back
SplineSet
143.36 1474.56 m 29,0,-1
 143.36 -53.248 l 1
430.08 1466.37 m 29,2,-1
 430.08 -61.4404 l 1
286.72 -69.6318 m 29,4,-1
 286.72 1458.18 l 1,5,-1
 286.72 -69.6318 l 29,4,-1
573.44 1470.46 m 29,6,-1
 573.44 -57.3438 l 1
716.8 1466.37 m 29,8,-1
 716.8 -61.4404 l 1
860.16 -49.1523 m 29,10,-1
 860.16 1478.66 l 1,11,-1
 860.16 -49.1523 l 29,10,-1
EndSplineSet
Fore
SplineSet
795 1073 m 9,0,-1
 947 1073 l 1,1,-1
 947 0 l 1,2,-1
 795 0 l 1,3,-1
 795 181 l 1,4,5
 767 92 767 92 685 31.5 c 128,-1,6
 603 -29 603 -29 490 -29 c 0,7,8
 321 -29 321 -29 220.5 110.5 c 128,-1,9
 120 250 120 250 120 532 c 2,10,-1
 120 1073 l 1,11,-1
 271 1073 l 1,12,-1
 271 532 l 2,13,14
 271 231.588235294 271 231.588235294 411 141 c 0,15,16
 462 108 462 108 540.5 108 c 128,-1,17
 619 108 619 108 680.5 168 c 0,18,19
 795 279.707317073 795 279.707317073 795 533 c 2,20,-1
 795 1073 l 9,0,-1
EndSplineSet
EndChar

StartChar: v
Encoding: 118 118 42
Width: 1024
Flags: HMW
LayerCount: 2
Back
SplineSet
143.36 1474.56 m 29,0,-1
 143.36 -53.248 l 1
430.08 1466.37 m 29,2,-1
 430.08 -61.4404 l 1
286.72 -69.6318 m 29,4,-1
 286.72 1458.18 l 1,5,-1
 286.72 -69.6318 l 29,4,-1
573.44 1470.46 m 29,6,-1
 573.44 -57.3438 l 1
716.8 1466.37 m 29,8,-1
 716.8 -61.4404 l 1
860.16 -49.1523 m 29,10,-1
 860.16 1478.66 l 1,11,-1
 860.16 -49.1523 l 29,10,-1
EndSplineSet
Fore
SplineSet
446 0 m 1,0,-1
 82 1073 l 1,1,-1
 242 1073 l 1,2,-1
 522 195 l 1,3,-1
 809 1073 l 1,4,-1
 967 1073 l 1,5,-1
 598 0 l 1,6,-1
 446 0 l 1,0,-1
EndSplineSet
EndChar

StartChar: w
Encoding: 119 119 43
Width: 1374
Flags: HMW
LayerCount: 2
Back
SplineSet
143.36 1474.56 m 29,0,-1
 143.36 -53.248 l 1
430.08 1466.37 m 29,2,-1
 430.08 -61.4404 l 1
286.72 -69.6318 m 29,4,-1
 286.72 1458.18 l 1,5,-1
 286.72 -69.6318 l 29,4,-1
573.44 1470.46 m 29,6,-1
 573.44 -57.3438 l 1
716.8 1466.37 m 29,8,-1
 716.8 -61.4404 l 1
860.16 -49.1523 m 29,10,-1
 860.16 1478.66 l 1,11,-1
 860.16 -49.1523 l 29,10,-1
EndSplineSet
Fore
SplineSet
698 862 m 1,0,-1
 471 0 l 1,1,-1
 354 0 l 1,2,-1
 68 1073 l 1,3,-1
 221 1073 l 1,4,-1
 414 250 l 1,5,-1
 623 1065 l 1,6,7
 774 1065 l 1,8,-1
 983 250 l 1,9,-1
 1176 1073 l 1,10,-1
 1329 1073 l 1,11,-1
 1042 0 l 1,12,-1
 920 0 l 1,13,-1
 698 862 l 1,0,-1
EndSplineSet
EndChar

StartChar: x
Encoding: 120 120 44
Width: 901
Flags: HMW
LayerCount: 2
Back
SplineSet
143.36 1474.56 m 29,0,-1
 143.36 -53.248 l 1
430.08 1466.37 m 29,2,-1
 430.08 -61.4404 l 1
286.72 -69.6318 m 29,4,-1
 286.72 1458.18 l 1,5,-1
 286.72 -69.6318 l 29,4,-1
573.44 1470.46 m 29,6,-1
 573.44 -57.3438 l 1
716.8 1466.37 m 29,8,-1
 716.8 -61.4404 l 1
860.16 -49.1523 m 29,10,-1
 860.16 1478.66 l 1,11,-1
 860.16 -49.1523 l 29,10,-1
EndSplineSet
Fore
SplineSet
870 0 m 1,0,-1
 700 0 l 1,1,-1
 459 440 l 1,2,-1
 229 0 l 1,3,-1
 53 0 l 1,4,-1
 367 539 l 1,5,-1
 55 1073 l 1,6,-1
 225 1073 l 1,7,-1
 459 639 l 1,8,-1
 692 1073 l 1,9,-1
 862 1073 l 1,10,-1
 551 543 l 1,11,-1
 870 0 l 1,0,-1
EndSplineSet
EndChar

StartChar: y
Encoding: 121 121 45
Width: 1064
Flags: HMW
LayerCount: 2
Back
SplineSet
794.624 1073.15 m 13,0,-1
 946.176 1073.15 l 1,1,-1
 946.176 0 l 1,2,-1
 794.624 0 l 1,3,-1
 794.624 180.224 l 1,4,5
 781.5366072 149.1414421 781.5366072 149.1414421 755.812272018 114.435589308 c 0
 730.087936835 79.7297365165 730.087936835 79.7297365165 695.099727982 46.9084763166 c 0
 660.111519129 14.0872161167 660.111519129 14.0872161167 614.052272018 -7.29234194163 c 0
 567.993024906 -28.6719 567.993024906 -28.6719 522.24 -28.6719 c 0,6,7
 447.29388392 -28.6719 447.29388392 -28.6719 373.914006587 6.72633396181 c 0
 300.534129254 42.1245679236 300.534129254 42.1245679236 244.380555913 101.048300413 c 0
 188.226982573 159.972032903 188.226982573 159.972032903 153.503756587 242.571265212 c 0
 118.780530601 325.170497521 118.780530601 325.170497521 118.786 413.696 c 2,8,-1
 118.784 1073.15 l 1,9,-1
 270.336 1073.15 l 1,10,-1
 270.336 411.648 l 2,11,12
 270.336 365.623096854 270.336 365.623096854 280.671002882 323.665650426 c 0
 291.006005763 281.708203998 291.006005763 281.708203998 309.064830452 248.902599574 c 0
 327.12365514 216.096995149 327.12365514 216.096995149 351.554299178 189.313409685 c 0
 375.984943216 162.529824221 375.984943216 162.529824221 404.224237859 144.982747722 c 0
 432.463532503 127.435671223 432.463532503 127.435671223 463.108262141 117.989835611 c 0
 493.752991779 108.544 493.752991779 108.544 524.288 108.544 c 0,13,14
 559.575880124 108.544 559.575880124 108.544 594.035602827 121.181992846 c 0
 628.495325531 133.819985692 628.495325531 133.819985692 658.146397173 156.322007154 c 0
 687.797468815 178.824028617 687.797468815 178.824028617 713.161788012 211.028511364 c 0
 738.52610721 243.232994112 738.52610721 243.232994112 756.451360136 281.098303451 c 0
 774.376613062 318.963612789 774.376613062 318.963612789 784.501306531 363.680363216 c 0
 794.626 408.397113643 794.626 408.397113643 794.626 454.656 c 2,15,-1
 794.624 1073.15 l 13,0,-1
143.36 1474.56 m 25,16,-1
 143.36 -53.248 l 1
430.08 1466.37 m 25,18,-1
 430.08 -61.4404 l 1
286.72 -69.6318 m 25,20,-1
 286.72 1458.18 l 1,21,-1
 286.72 -69.6318 l 25,20,-1
573.44 1470.46 m 25,22,-1
 573.44 -57.3438 l 1
716.8 1466.37 m 25,24,-1
 716.8 -61.4404 l 1
860.16 -49.1523 m 25,26,-1
 860.16 1478.66 l 1,27,-1
 860.16 -49.1523 l 25,26,-1
EndSplineSet
Fore
SplineSet
947 -18 m 2,0,1
 947 -116 947 -116 909 -199.5 c 128,-1,2
 871 -283 871 -283 809.5 -336.5 c 0,3,4
 680.177570093 -449 680.177570093 -449 520 -449 c 0,5,6
 307 -449 307 -449 157 -275 c 1,7,-1
 263 -190 l 1,8,9
 366 -313 366 -313 520 -313 c 0,10,11
 618.846153846 -313 618.846153846 -313 704 -245.5 c 0,12,13
 795 -173.365853659 795 -173.365853659 795 -33 c 2,14,-1
 795 181 l 1,15,16
 767 92 767 92 685 31.5 c 128,-1,17
 603 -29 603 -29 490 -29 c 0,18,19
 321 -29 321 -29 220.5 110.5 c 128,-1,20
 120 250 120 250 120 532 c 2,21,-1
 120 1073 l 1,22,-1
 271 1073 l 1,23,-1
 271 532 l 2,24,25
 271 231.588235294 271 231.588235294 411 141 c 0,26,27
 462 108 462 108 540.5 108 c 128,-1,28
 619 108 619 108 680.5 168 c 0,29,30
 795 279.707317073 795 279.707317073 795 533 c 2,31,-1
 795 1073 l 1,32,-1
 947 1073 l 1,33,-1
 947 -18 l 2,0,1
EndSplineSet
EndChar

StartChar: z
Encoding: 122 122 46
Width: 962
Flags: HMW
LayerCount: 2
Back
SplineSet
143.36 1474.56 m 29,0,-1
 143.36 -53.248 l 1
430.08 1466.37 m 29,2,-1
 430.08 -61.4404 l 1
286.72 -69.6318 m 29,4,-1
 286.72 1458.18 l 1,5,-1
 286.72 -69.6318 l 29,4,-1
573.44 1470.46 m 29,6,-1
 573.44 -57.3438 l 1
716.8 1466.37 m 29,8,-1
 716.8 -61.4404 l 1
860.16 -49.1523 m 29,10,-1
 860.16 1478.66 l 1,11,-1
 860.16 -49.1523 l 29,10,-1
EndSplineSet
Fore
SplineSet
342 141 m 1,0,-1
 877 141 l 1,1,-1
 877 0 l 1,2,-1
 90 0 l 1,3,-1
 655 932 l 1,4,-1
 131 932 l 1,5,-1
 131 1073 l 1,6,-1
 907 1073 l 1,7,-1
 342 141 l 1,0,-1
EndSplineSet
EndChar

StartChar: Oslash
Encoding: 216 216 53
Width: 1285
Flags: HMW
LayerCount: 2
Fore
SplineSet
400 41 m 1,0,-1
 369 -29 l 1,1,-1
 217 -29 l 1,2,-1
 291 134 l 1,3,4
 167 273 167 273 120 500 c 0,5,6
 96 611 96 611 96 705.5 c 128,-1,7
 96 800 96 800 109 884 c 128,-1,8
 122 968 122 968 149 1054.5 c 128,-1,9
 176 1141 176 1141 221.5 1216 c 128,-1,10
 267 1291 267 1291 327 1350 c 0,11,12
 456.152542373 1477 456.152542373 1477 655 1477 c 0,13,14
 777 1477 777 1477 874 1427 c 1,15,-1
 905 1496 l 1,16,-1
 1057 1496 l 1,17,-1
 988 1345 l 1,18,19
 1137 1200 1137 1200 1190 943 c 1,20,21
 1214 834 1214 834 1214 735 c 128,-1,22
 1214 636 1214 636 1200.5 552.5 c 128,-1,23
 1187 469 1187 469 1160.5 384 c 128,-1,24
 1134 299 1134 299 1088 225.5 c 128,-1,25
 1042 152 1042 152 982.5 94.5 c 0,26,27
 854.704347826 -29 854.704347826 -29 655 -29 c 0,28,29
 511 -29 511 -29 400 41 c 1,0,-1
458 170 m 1,30,31
 544 111 544 111 644 111 c 128,-1,32
 744 111 744 111 815.5 149 c 128,-1,33
 887 187 887 187 932 248 c 128,-1,34
 977 309 977 309 1007.5 390 c 0,35,36
 1063 537.393442623 1063 537.393442623 1063 685.696721311 c 0,37,38
 1063 1033.58227848 1063 1033.58227848 926 1207 c 1,39,-1
 458 170 l 1,30,31
356 279 m 1,40,-1
 816 1300 l 1,41,42
 743 1338 743 1338 654.5 1338 c 128,-1,43
 566 1338 566 1338 494.5 1298.5 c 128,-1,44
 423 1259 423 1259 378 1196.5 c 128,-1,45
 333 1134 333 1134 303 1050.5 c 0,46,47
 248 897.416666667 248 897.416666667 248 747.708333333 c 0,48,49
 248 441.947368421 248 441.947368421 356 279 c 1,40,-1
EndSplineSet
EndChar

StartChar: Thorn
Encoding: 222 222 57
Width: 1329
Flags: HMW
LayerCount: 2
Fore
SplineSet
303 477 m 1,0,1
 727.112244898 477 727.112244898 477 836.5 637 c 0,2,3
 870 686 870 686 870 750 c 0,4,5
 870 771 870 771 865 794 c 0,6,7
 819 1010 819 1010 303 1010 c 1,8,-1
 303 477 l 1,0,1
303 1150 m 1,9,10
 1027 1150 1027 1150 1027 750 c 0,11,12
 1027 580.990291262 1027 580.990291262 920.5 490 c 0,13,14
 813.317100597 398.426260704 813.317100597 398.426260704 654 367.5 c 0,15,16
 496.878787879 337 496.878787879 337 303 337 c 1,17,-1
 303 0 l 1,18,-1
 145 0 l 1,19,-1
 145 1456 l 1,20,-1
 303 1456 l 1,21,-1
 303 1150 l 1,9,10
EndSplineSet
EndChar

StartChar: germandbls
Encoding: 223 223 58
Width: 1212
Flags: HMW
LayerCount: 2
Fore
SplineSet
174 1152 m 1,0,1
 229 1298 229 1298 351.5 1388.5 c 128,-1,2
 474 1479 474 1479 647 1479 c 128,-1,3
 820 1479 820 1479 941 1397.5 c 128,-1,4
 1062 1316 1062 1316 1092 1174 c 1,5,6
 1100 1131 1100 1131 1100 1087 c 2,7,-1
 1100 1074 l 2,8,9
 1100 922.818181818 1100 922.818181818 944 820 c 0,10,11
 867.143270622 769.344428365 867.143270622 769.344428365 780 747 c 1,12,13
 872.376930999 723.36869207 872.376930999 723.36869207 945.188465499 672.184346035 c 0,14,15
 1117 551.405940594 1117 551.405940594 1117 378 c 0,16,17
 1117 -30 1117 -30 611 -30 c 0,18,19
 531 -30 531 -30 425 23 c 1,20,-1
 516 146 l 1,21,22
 527 142 527 142 547 132 c 0,23,24
 591 110 591 110 632.5 110 c 128,-1,25
 674 110 674 110 724 116.5 c 128,-1,26
 774 123 774 123 821.5 141 c 128,-1,27
 869 159 869 159 900.5 188.5 c 0,28,29
 970 253.587301587 970 253.587301587 970 378 c 0,30,31
 970 517.044354839 970 517.044354839 817 606.5 c 0,32,33
 693 679 693 679 552 679 c 2,34,-1
 516 679 l 2,35,36
 491 679 491 679 474 673 c 1,37,-1
 474 825 l 1,38,39
 489 821 489 821 510 821 c 2,40,-1
 552 821 l 2,41,42
 641 821 641 821 731 850.5 c 128,-1,43
 821 880 821 880 886 940 c 128,-1,44
 951 1000 951 1000 951 1074 c 0,45,46
 951 1113 951 1113 943 1150 c 0,47,48
 902 1342 902 1342 655 1342 c 0,49,50
 452.025 1342 452.025 1342 361.5 1200 c 0,51,52
 336 1160 336 1160 309.5 1083.5 c 128,-1,53
 283 1007 283 1007 269 812 c 128,-1,54
 255 617 255 617 250 353 c 128,-1,55
 245 89 245 89 240 0 c 1,56,-1
 92 0 l 1,57,58
 104 130 104 130 110 391 c 128,-1,59
 116 652 116 652 128.5 852.5 c 128,-1,60
 141 1053 141 1053 174 1152 c 1,0,1
EndSplineSet
EndChar

StartChar: ae
Encoding: 230 230 63
Width: 1486
Flags: HMW
LayerCount: 2
Back
SplineSet
849.216 604.16 m 5,0,-1
 1379.01 604.16 l 1,1,2
 1373.56185957 658.514097003 1373.56185957 658.514097003 1360.14908049 709.107954125 c 0
 1346.73630141 759.701811248 1346.73630141 759.701811248 1323.95139951 805.357629875 c 0
 1301.16649761 851.013448501 1301.16649761 851.013448501 1271.44460049 884.839570125 c 0
 1241.72270337 918.665691749 1241.72270337 918.665691749 1201.15491951 938.564845875 c 0
 1160.58713566 958.464 1160.58713566 958.464 1114.11 958.464 c 0,3,4
 1080.63460056 958.464 1080.63460056 958.464 1050.11035889 948.11471925 c 0
 1019.58611721 937.765438501 1019.58611721 937.765438501 994.75632333 919.238884248 c 0
 969.926529448 900.712329996 969.926529448 900.712329996 948.412737894 874.783483099 c 0
 926.89894634 848.854636202 926.89894634 848.854636202 910.553670269 818.017251595 c 0
 894.208394199 787.179866988 894.208394199 787.179866988 881.603350139 751.865727997 c 0
 868.998306079 716.551589005 868.998306079 716.551589005 861.035845196 679.597648097 c 0
 853.073384314 642.643707188 853.073384314 642.643707188 849.216 604.16 c 5,0,-1
849.185 468.992 m 5,5,6
 853.688524883 423.498127156 853.688524883 423.498127156 863.965711547 379.993190493 c 0
 874.242898211 336.48825383 874.242898211 336.48825383 890.092705119 295.646809507 c 0
 905.942512027 254.805365183 905.942512027 254.805365183 928.44680414 220.631412716 c 0
 950.951096253 186.457460249 950.951096253 186.457460249 978.190519934 160.834365062 c 0
 1005.42994361 135.211269876 1005.42994361 135.211269876 1040.31923007 120.853634938 c 0
 1075.20851652 106.496 1075.20851652 106.496 1114.11 106.496 c 0,7,8
 1181.70226737 106.496 1181.70226737 106.496 1232.59276752 142.723496841 c 0
 1283.48326767 178.950993682 1283.48326767 178.950993682 1317.73 242.655 c 1,9,-1
 1450.69 187.616 l 1,10,11
 1415.92295749 120.345334947 1415.92295749 120.345334947 1367.64493954 72.66229207 c 0
 1319.36692159 24.9792491933 1319.36692159 24.9792491933 1254.58839379 -1.84632540335 c 0
 1189.80986599 -28.6719 1189.80986599 -28.6719 1114.11 -28.6719 c 0,12,13
 1016.67266847 -28.6719 1016.67266847 -28.6719 937.871475995 15.1779940334 c 0
 859.070283519 59.0278880669 859.070283519 59.0278880669 808.047430255 135.798140342 c 0
 757.024576991 212.568392616 757.024576991 212.568392616 729.744288495 315.081925283 c 0
 702.464 417.595457951 702.464 417.595457951 702.464 536.576 c 0,14,15
 702.464 631.385317976 702.464 631.385317976 719.513838515 715.560142747 c 0
 736.563677031 799.734967518 736.563677031 799.734967518 770.889345485 868.968353253 c 0
 805.215013938 938.201738988 805.215013938 938.201738988 853.993294515 988.319886747 c 0
 902.771575093 1038.43803451 902.771575093 1038.43803451 969.265921485 1066.03401725 c 0
 1035.76026788 1093.63 1035.76026788 1093.63 1114.11 1093.63 c 0,16,17
 1211.71288503 1093.63 1211.71288503 1093.63 1290.37746 1051.04043796 c 0
 1369.04203498 1008.45087593 1369.04203498 1008.45087593 1420.1478525 933.276874535 c 0
 1471.25367001 858.102873141 1471.25367001 858.102873141 1498.506835 756.769812965 c 0
 1525.76 655.436752788 1525.76 655.436752788 1525.76 536.576 c 0,18,19
 1525.76 520.268448824 1525.76 520.268448824 1524.96227329 503.32229349 c 0
 1524.16454659 486.376138157 1524.16454659 486.376138157 1522.62 468.992 c 1,20,-1
 849.185 468.992 l 5,5,6
466.944 602.112 m 4,21,22
 411.767591241 602.112 411.767591241 602.112 364.883931873 581.551847619 c 0
 318.000272506 560.991695238 318.000272506 560.991695238 286.956068127 526.576152381 c 0
 255.911863747 492.160609524 255.911863747 492.160609524 238.547931873 447.471847619 c 0
 221.184 402.783085714 221.184 402.783085714 221.184 354.304 c 0,23,24
 221.184 332.880377991 221.184 332.880377991 224.596925116 311.833830209 c 0
 228.009850232 290.787282426 228.009850232 290.787282426 234.761889699 270.98651547 c 0
 241.513929165 251.185748514 241.513929165 251.185748514 251.195641166 232.723158055 c 0
 260.877353166 214.260567596 260.877353166 214.260567596 273.800309452 197.859711629 c 0
 286.723265737 181.458855662 286.723265737 181.458855662 302.066949808 167.366955037 c 0
 317.410633878 153.275054412 317.410633878 153.275054412 335.897692168 142.060841945 c 0
 354.384750458 130.846629477 354.384750458 130.846629477 374.783591783 122.912151196 c 0
 395.182433108 114.977672916 395.182433108 114.977672916 418.626778588 110.736836458 c 0
 442.071124067 106.496 442.071124067 106.496 466.944 106.496 c 0,25,26
 563.038011299 106.496 563.038011299 106.496 637.87100565 180.90858427 c 0
 712.704 255.321168539 712.704 255.321168539 712.704 354.304 c 0,27,28
 712.704 378.867551487 712.704 378.867551487 707.3292667 403.143682249 c 0
 701.954533401 427.419813011 701.954533401 427.419813011 692.1827333 449.212317751 c 0
 682.410933199 471.004822491 682.410933199 471.004822491 668.4012667 491.183682249 c 0
 654.391600202 511.362542007 654.391600202 511.362542007 637.4627333 528.156317751 c 0
 620.533866397 544.950093495 620.533866397 544.950093495 600.4812667 558.775682249 c 0
 580.428667003 572.601271004 580.428667003 572.601271004 558.9347333 582.140317751 c 0
 537.440799596 591.679364498 537.440799596 591.679364498 513.9372667 596.895682249 c 0
 490.433733804 602.112 490.433733804 602.112 466.944 602.112 c 4,21,22
466.944 737.28 m 4,29,30
 516.826666667 737.28 516.826666667 737.28 560.205214815 727.738107937 c 0
 603.583762963 718.196215873 603.583762963 718.196215873 633.842785185 702.277892063 c 0
 664.101807407 686.359568254 664.101807407 686.359568254 684.749214815 668.346107937 c 0
 705.396622222 650.332647619 705.396622222 650.332647619 716.8 630.784 c 1,31,-1
 715.651 675.84 l 2,32,33
 715.651 701.33506745 715.651 701.33506745 712.273233705 725.835351181 c 0
 708.895467409 750.335634912 708.895467409 750.335634912 702.222358888 772.946673511 c 0
 695.549250367 795.55771211 695.549250367 795.55771211 685.933003252 816.306945145 c 0
 676.316756137 837.05617818 676.316756137 837.05617818 663.518079053 855.209411508 c 0
 650.719401969 873.362644836 650.719401969 873.362644836 635.433661688 888.77636627 c 0
 620.147921407 904.190087704 620.147921407 904.190087704 601.792663415 916.301054855 c 0
 583.437405422 928.412022006 583.437405422 928.412022006 563.05115963 936.905770934 c 0
 542.664913839 945.399519861 542.664913839 945.399519861 519.322062592 949.88375993 c 0
 495.979211345 954.368 495.979211345 954.368 471.04 954.368 c 0,34,35
 436.388881356 954.368 436.388881356 954.368 402.548193097 948.547379538 c 0
 368.707504839 942.726759076 368.707504839 942.726759076 339.851806903 932.348620462 c 0
 310.996108967 921.970481848 310.996108967 921.970481848 286.836193097 907.715379538 c 0
 262.676277228 893.460277228 262.676277228 893.460277228 245.76 876.544 c 1,36,37
 167.936 978.944 l 1,38,39
 180.214628755 989.056164588 180.214628755 989.056164588 191.967453366 997.872752056 c 0
 203.720277977 1006.68933952 203.720277977 1006.68933952 217.733682437 1015.99588992 c 0
 231.747086897 1025.30244031 231.747086897 1025.30244031 245.625615231 1033.13669719 c 0
 259.504143566 1040.97095406 259.504143566 1040.97095406 275.774395743 1048.63022188 c 0
 292.044647919 1056.2894897 292.044647919 1056.2894897 308.588270924 1062.33229664 c 0
 325.131893929 1068.37510357 325.131893929 1068.37510357 344.198384769 1073.57796948 c 0
 363.264875609 1078.78083539 363.264875609 1078.78083539 383.01298423 1082.22307304 c 0
 402.761092851 1085.6653107 402.761092851 1085.6653107 425.163213301 1087.60265535 c 0
 447.565333751 1089.54 447.565333751 1089.54 471.04 1089.54 c 0,40,41
 572.541437289 1089.54 572.541437289 1089.54 657.692609322 1043.27744188 c 0
 742.843781356 997.014883757 742.843781356 997.014883757 797.270390678 900.961224788 c 0
 851.697 804.907565819 851.697 804.907565819 851.697 675.84 c 1,42,-1
 849.92 552.96 l 1,43,-1
 851.968 270.336 l 2,44,45
 851.968 251.221333333 851.968 251.221333333 854.553643493 233.138251852 c 0
 857.139286986 215.05517037 857.139286986 215.05517037 862.52368984 197.283081481 c 0
 867.908092695 179.510992593 867.908092695 179.510992593 877.119569419 164.795733333 c 0
 886.331046143 150.080474074 886.331046143 150.080474074 898.629171322 138.725451852 c 0
 910.9272965 127.37042963 910.9272965 127.37042963 928.357495345 121.029214815 c 0
 945.78769419 114.688 945.78769419 114.688 966.656 114.688 c 1,46,-1
 966.656 -20.4805 l 1,47,48
 868.962501557 -20.4805 868.962501557 -20.4805 813.824151552 6.90138234078 c 0
 758.685801548 34.2832646816 758.685801548 34.2832646816 745.472 100.352 c 1,49,50
 733.118267831 80.0565828649 733.118267831 80.0565828649 712.0325228 59.8814461025 c 0
 690.946777769 39.70630934 690.946777769 39.70630934 657.7594772 18.6146195225 c 0
 624.572176631 -2.47707029502 624.572176631 -2.47707029502 574.6885228 -15.5744851475 c 0
 524.804868969 -28.6719 524.804868969 -28.6719 466.944 -28.6719 c 0,51,52
 356.335183621 -28.6719 356.335183621 -28.6719 266.918512572 22.0068157797 c 0
 177.501841523 72.6855315594 177.501841523 72.6855315594 127.663020761 160.26528422 c 0
 77.8242 247.845036881 77.8242 247.845036881 77.8242 354.304 c 0,53,54
 77.8242 394.001648122 77.8242 394.001648122 86.1741994058 432.455546294 c 0
 94.5241988116 470.909444467 94.5241988116 470.909444467 109.79416075 504.908453706 c 0
 125.064122689 538.907462944 125.064122689 538.907462944 146.974144718 569.935546294 c 0
 168.884166747 600.963629645 168.884166747 600.963629645 195.554092 626.476453706 c 0
 222.224017254 651.989277767 222.224017254 651.989277767 253.854071281 672.759546294 c 0
 285.484125308 693.529814822 285.484125308 693.529814822 319.71402325 707.724453706 c 0
 353.943921193 721.919092589 353.943921193 721.919092589 391.454016593 729.599546294 c 0
 428.964111994 737.28 428.964111994 737.28 466.944 737.28 c 4,29,30
EndSplineSet
Fore
SplineSet
562 553 m 128,-1,1
 511 602 511 602 421 602 c 128,-1,2
 331 602 331 602 283.5 532 c 128,-1,3
 236 462 236 462 236 354 c 0,4,5
 236 305 236 305 244 269 c 0,6,7
 278 106 278 106 436 106 c 0,8,9
 528 106 528 106 582.5 178 c 128,-1,10
 637 250 637 250 637 354 c 0,11,12
 637 385 637 385 625 444.5 c 128,-1,0
 613 504 613 504 562 553 c 128,-1,1
640 692 m 1,13,14
 640 954 640 954 440 954 c 0,15,16
 375 954 375 954 335 935 c 128,-1,17
 295 916 295 916 256 877 c 1,18,-1
 178 979 l 1,19,20
 184 984 184 984 203 1000 c 128,-1,21
 222 1016 222 1016 228.5 1021 c 128,-1,22
 235 1026 235 1026 253.5 1039 c 128,-1,23
 272 1052 272 1052 282.5 1056.5 c 128,-1,24
 293 1061 293 1061 312.5 1069.5 c 128,-1,25
 332 1078 332 1078 349 1081 c 0,26,27
 400 1090 400 1090 440 1090 c 0,28,29
 534 1090 534 1090 600.5 1045.5 c 128,-1,30
 667 1001 667 1001 721 910 c 1,31,32
 779 1005 779 1005 840 1049.5 c 128,-1,33
 901 1094 901 1094 1001 1094 c 0,34,35
 1145 1094 1145 1094 1233.5 1004 c 128,-1,36
 1322 914 1322 914 1355 756 c 1,37,38
 1376 662 1376 662 1376 537 c 1,39,-1
 1373 469 l 1,40,-1
 783 469 l 1,41,42
 783 277.463917526 783 277.463917526 866.5 169 c 0,43,44
 915 106 915 106 1001 106 c 0,45,46
 1066.39534884 106 1066.39534884 106 1092.69767442 135 c 0,47,48
 1126.40261811 172.161860988 1126.40261811 172.161860988 1142.70130905 203.080930494 c 128,-1,49
 1159 234 1159 234 1160 235.5 c 128,-1,50
 1161 237 1161 237 1164 243 c 1,51,-1
 1297 188 l 1,52,53
 1241 78 1241 78 1175.5 24.5 c 128,-1,54
 1110 -29 1110 -29 1001 -29 c 0,55,56
 919.2 -29 919.2 -29 882.1 -8 c 128,-1,57
 845 13 845 13 827 25.5 c 128,-1,58
 809 38 809 38 787 66.5 c 0,59,60
 757.215384615 105.084615385 757.215384615 105.084615385 719 164 c 1,61,62
 715 157 715 157 703.5 136 c 128,-1,63
 692 115 692 115 687.5 107.5 c 128,-1,64
 683 100 683 100 671 81.5 c 128,-1,65
 659 63 659 63 651.5 55 c 128,-1,66
 644 47 644 47 630 32.5 c 128,-1,67
 616 18 616 18 603.5 11.5 c 128,-1,68
 591 5 591 5 572.5 -4.5 c 128,-1,69
 554 -14 554 -14 534.5 -18 c 0,70,71
 480.875 -29 480.875 -29 436 -29 c 0,72,73
 300 -29 300 -29 210.5 47.5 c 128,-1,74
 121 124 121 124 94 251 c 1,75,76
 84 306 84 306 84 354 c 0,77,78
 84 517 84 517 184 627 c 128,-1,79
 284 737 284 737 436 737 c 0,80,81
 523 737 523 737 564 711.5 c 128,-1,82
 605 686 605 686 641 633 c 1,83,-1
 640 692 l 1,13,14
1221 604 m 1,84,85
 1191.08450704 958 1191.08450704 958 1001 958 c 0,86,87
 943 958 943 958 899 925 c 128,-1,88
 855 892 855 892 831.5 837.5 c 0,89,90
 785.027807487 729.724064171 785.027807487 729.724064171 783 604 c 1,91,-1
 1221 604 l 1,84,85
EndSplineSet
EndChar

StartChar: igrave
Encoding: 236 236 68
Width: 430
Flags: HMW
LayerCount: 2
Fore
SplineSet
150 1073 m 1
 301 1073 l 1
 301 0 l 1
 150 0 l 1
 150 1073 l 1
EndSplineSet
Refer: 119 96 N 1 0 0 1 -177 -347 2
EndChar

StartChar: iacute
Encoding: 237 237 69
Width: 421
Flags: HMW
LayerCount: 2
Fore
SplineSet
150 1073 m 1
 301 1073 l 1
 301 0 l 1
 150 0 l 1
 150 1073 l 1
EndSplineSet
Refer: 152 180 N 1 0 0 1 91 -347 2
EndChar

StartChar: icircumflex
Encoding: 238 238 70
Width: 888
Flags: HMW
LayerCount: 2
Fore
SplineSet
391 1073 m 1
 543 1073 l 1
 543 0 l 1
 391 0 l 1
 391 1073 l 1
EndSplineSet
Refer: 117 94 N 1 0 0 1 -18 -31 2
EndChar

StartChar: idieresis
Encoding: 239 239 71
Width: 667
Flags: HMW
LayerCount: 2
Fore
SplineSet
272 1073 m 1
 424 1073 l 1
 424 0 l 1
 272 0 l 1
 272 1073 l 1
EndSplineSet
Refer: 143 168 N 1 0 0 1 -68 -401 2
EndChar

StartChar: eth
Encoding: 240 240 72
Width: 1030
Flags: HMW
LayerCount: 2
Fore
SplineSet
261.5 607.5 m 128,-1,1
 233 530 233 530 233 469.5 c 0,2,3
 233 273.523178808 233 273.523178808 343.5 174 c 0,4,5
 419 106 419 106 492 106 c 0,6,7
 605 106 605 106 690.5 213.5 c 128,-1,8
 776 321 776 321 776 455 c 0,9,10
 776 610.576719577 776 610.576719577 650.5 713.5 c 0,11,12
 556 791 556 791 453 791 c 0,13,14
 394 791 394 791 342 738 c 128,-1,0
 290 685 290 685 261.5 607.5 c 128,-1,1
684 1290 m 1,15,16
 751 1213 751 1213 816.5 1097 c 0,17,18
 908.990943396 933.199245283 908.990943396 933.199245283 918.495471698 769.599622642 c 128,-1,19
 928 606 928 606 928 540 c 2,20,-1
 928 502 l 2,21,22
 928 273 928 273 804.5 122 c 128,-1,23
 681 -29 681 -29 505.5 -29 c 128,-1,24
 330 -29 330 -29 229.5 63 c 0,25,26
 82 198.024875622 82 198.024875622 82 459 c 0,27,28
 82 653 82 653 192.5 789.5 c 128,-1,29
 303 926 303 926 463 926 c 0,30,31
 597.625 926 597.625 926 686.5 847 c 0,32,33
 700 835 700 835 724 812 c 128,-1,34
 748 789 748 789 760 778 c 1,35,36
 760 886.442307692 760 886.442307692 693.5 1020.72115385 c 128,-1,37
 627 1155 627 1155 571 1204 c 1,38,-1
 418 1061 l 1,39,-1
 319 1161 l 1,40,-1
 455 1290 l 1,41,42
 384 1315 384 1315 319 1315 c 128,-1,43
 254 1315 254 1315 180 1307 c 1,44,-1
 166 1454 l 1,45,46
 193 1456 193 1456 248 1456 c 0,47,48
 440 1456 440 1456 575 1386 c 1,49,-1
 731 1526 l 1,50,-1
 827 1417 l 1,51,-1
 684 1290 l 1,15,16
EndSplineSet
EndChar

StartChar: oslash
Encoding: 248 248 79
Width: 1024
Flags: HMW
LayerCount: 2
Back
SplineSet
96.2559 536.576 m 4,0,1
 96.2559 631.38535407 96.2559 631.38535407 113.305763691 715.560147259 c 0
 130.355627381 799.734940447 130.355627381 799.734940447 164.681409909 868.968348741 c 0
 199.007192437 938.201757035 199.007192437 938.201757035 247.785690091 988.319891259 c 0
 296.564187744 1038.43802548 296.564187744 1038.43802548 363.058936309 1066.03401274 c 0
 429.553684874 1093.63 429.553684874 1093.63 507.904 1093.63 c 0,2,3
 605.506862693 1093.63 605.506862693 1093.63 684.171143782 1051.04045631 c 0
 762.835424871 1008.45091262 762.835424871 1008.45091262 813.940856218 933.27685619 c 0
 865.046287564 858.10279976 865.046287564 858.10279976 892.299143782 756.76983131 c 0
 919.552 655.43686286 919.552 655.43686286 919.552 536.576 c 0,4,5
 919.552 280.624072379 919.552 280.624072379 805.574599201 124.358364648 c 1
 693.078424556 -28.1095585375 693.078424556 -28.1095585375 507.904 -28.6719 c 0,6,7
 429.661408726 -28.6719 429.661408726 -28.6719 363.072401791 -0.224310622842 c 0
 296.483394855 28.2232787543 296.483394855 28.2232787543 247.772224609 79.5230250228 c 0
 199.061054363 130.822771291 199.061054363 130.822771291 164.694875391 201.298834977 c 0
 130.328696418 271.774898663 130.328696418 271.774898663 113.292298209 356.740250623 c 0
 96.2559 441.705602583 96.2559 441.705602583 96.2559 536.576 c 4,0,1
239.616 536.576 m 4,8,9
 239.616 369.85673406 239.616 369.85673406 307.449796993 245.454092626 c 1
 384.119600945 107.289250467 384.119600945 107.289250467 507.904 106.496 c 0,10,11
 563.562788571 106.496 563.562788571 106.496 609.489188571 132.478503385 c 0
 655.415588571 158.461006769 655.415588571 158.461006769 685.747931429 201.132504615 c 0
 716.080274286 243.804002462 716.080274286 243.804002462 736.956708571 300.381735385 c 0
 757.833142857 356.959468308 757.833142857 356.959468308 767.012571429 416.221656615 c 0
 776.192 475.483844923 776.192 475.483844923 776.192 536.576 c 0,12,13
 776.192 586.379915916 776.192 586.379915916 768.704153797 636.158821221 c 0
 761.216307593 685.937726527 761.216307593 685.937726527 746.815846203 733.270512112 c 0
 732.415384814 780.603297698 732.415384814 780.603297698 709.501783426 821.313191592 c 0
 686.588182039 862.023085485 686.588182039 862.023085485 657.689920277 892.711104705 c 0
 628.791658516 923.399123924 628.791658516 923.399123924 590.224746389 940.931561962 c 0
 551.657834262 958.464 551.657834262 958.464 507.904 958.464 c 0,14,15
 378.281706673 958.464 378.281706673 958.464 302.464155434 814.351684387 c 0
 239.863098015 694.33048644 239.863098015 694.33048644 239.616 536.576 c 4,8,9
EndSplineSet
Fore
SplineSet
743 771 m 1,0,-1
 369 174 l 1,1,2
 434 106 434 106 510.5 106 c 128,-1,3
 587 106 587 106 640 145 c 128,-1,4
 693 184 693 184 723 248.5 c 0,5,6
 782 375.35 782 375.35 782 537 c 0,7,8
 782 681 782 681 743 771 c 1,0,-1
666 895 m 1,9,10
 601 958 601 958 527 958 c 128,-1,11
 453 958 453 958 401 920 c 128,-1,12
 349 882 349 882 318 820.5 c 0,13,14
 254 693.532258065 254 693.532258065 254 537 c 0,15,16
 254 395.2 254 395.2 293 299 c 1,17,-1
 666 895 l 1,9,10
835 917 m 1,18,19
 934 760.684210526 934 760.684210526 934 537 c 0,20,21
 934 198.208333333 934 198.208333333 743 47 c 0,22,23
 647 -29 647 -29 518.5 -29 c 128,-1,24
 390 -29 390 -29 291 49 c 1,25,-1
 243 -29 l 1,26,-1
 86 -29 l 1,27,-1
 201 153 l 1,28,29
 102 313.2 102 313.2 102 537 c 0,30,31
 102 872.387434555 102 872.387434555 292.5 1020 c 0,32,33
 388 1094 388 1094 518.5 1094 c 128,-1,34
 649 1094 649 1094 744 1019 c 1,35,-1
 793 1098 l 1,36,-1
 948 1098 l 1,37,-1
 835 917 l 1,18,19
EndSplineSet
EndChar

StartChar: thorn
Encoding: 254 254 83
Width: 1003
Flags: HMW
LayerCount: 2
Fore
SplineSet
281 0 m 17,0,-1
 129 0 l 1,1,-1
 129 1454 l 1,2,-1
 281 1454 l 1,3,-1
 281 1112 l 1,4,5
 369.275661951 1241.26079071 369.275661951 1241.26079071 466.5 1271 c 0,6,7
 509 1284 509 1284 561 1284 c 0,8,9
 700 1284 700 1284 790.5 1184 c 0,10,11
 934 1025.43646409 934 1025.43646409 934 733 c 0,12,13
 934 305.575342466 934 305.575342466 689 196.5 c 0,14,15
 616 164 616 164 546 164 c 128,-1,16
 476 164 476 164 434.5 179 c 128,-1,17
 393 194 393 194 366 216 c 0,18,19
 311.217391304 260.637681159 311.217391304 260.637681159 281 311 c 1,20,-1
 281 0 l 17,0,-1
690 1082.5 m 0,21,22
 639 1149 639 1149 578.5 1149 c 128,-1,23
 518 1149 518 1149 466 1119 c 128,-1,24
 414 1089 414 1089 371.5 1036.5 c 0,25,26
 276 918.529411765 276 918.529411765 276 729 c 0,27,28
 276 648 276 648 292 576 c 0,29,30
 320 444 320 444 389 371.5 c 128,-1,31
 458 299 458 299 532 299 c 0,32,33
 646 299 646 299 714 412.5 c 128,-1,34
 782 526 782 526 782 744.269607843 c 128,-1,35
 782 962.539215686 782 962.539215686 690 1082.5 c 0,21,22
EndSplineSet
EndChar

StartChar: Euro
Encoding: 8364 8364 87
Width: 1089
Flags: HMW
LayerCount: 2
Fore
SplineSet
270 762 m 1,0,-1
 141 762 l 1,1,-1
 141 897 l 1,2,-1
 294 897 l 1,3,4
 333 1031 333 1031 422.5 1113.5 c 128,-1,5
 512 1196 512 1196 631 1196 c 128,-1,6
 750 1196 750 1196 812.5 1167 c 128,-1,7
 875 1138 875 1138 952 1063 c 1,8,-1
 856 967 l 1,9,10
 806 1018 806 1018 762 1039.5 c 128,-1,11
 718 1061 718 1061 647.5 1061 c 0,12,13
 519.702702703 1061 519.702702703 1061 451 897 c 1,14,-1
 721 897 l 1,15,-1
 721 762 l 1,16,-1
 415 762 l 1,17,18
 412 734 412 734 412 704.5 c 128,-1,19
 412 675 412 675 415 645 c 1,20,-1
 715 645 l 1,21,-1
 715 510 l 1,22,-1
 450 510 l 1,23,24
 484 433 484 433 536.5 389.5 c 128,-1,25
 589 346 589 346 647.5 346 c 128,-1,26
 706 346 706 346 752 367.5 c 128,-1,27
 798 389 798 389 860 457 c 1,28,-1
 956 360 l 1,29,30
 873.821989529 265.647469459 873.821989529 265.647469459 811.5 240.5 c 0,31,32
 738.391304348 211 738.391304348 211 621.695652174 211 c 128,-1,33
 505 211 505 211 418.5 293 c 128,-1,34
 332 375 332 375 294 510 c 1,35,-1
 135 510 l 1,36,-1
 135 645 l 1,37,-1
 271 645 l 1,38,39
 268 678 268 678 268 703 c 128,-1,40
 268 728 268 728 270 762 c 1,0,-1
EndSplineSet
EndChar

StartChar: A
Encoding: 65 65 88
Width: 1302
Flags: HMW
LayerCount: 2
Fore
SplineSet
659 1214 m 1,0,-1
 455 621 l 1,1,-1
 870 621 l 1,2,-1
 659 1214 l 1,0,-1
907 485 m 1,3,-1
 410 485 l 1,4,-1
 248 0 l 1,5,-1
 72 0 l 1,6,-1
 596 1456 l 1,7,8
 723 1456 l 1,9,-1
 1247 0 l 1,10,-1
 1067 0 l 1,11,-1
 907 485 l 1,3,-1
EndSplineSet
EndChar

StartChar: B
Encoding: 66 66 89
Width: 1179
Flags: HMW
LayerCount: 2
Back
SplineSet
337.92 1085.44 m 4,0,1
 337.92 1204.1425 337.92 1204.1425 421.92875 1288.15125 c 0
 505.9375 1372.16 505.9375 1372.16 624.64 1372.16 c 0,2,3
 743.341922652 1372.16 743.341922652 1372.16 827.350961326 1288.15116367 c 0
 911.36 1204.14232735 911.36 1204.14232735 911.36 1085.44 c 0,4,5
 911.36 966.73825 911.36 966.73825 827.350875 882.729125 c 0
 743.34175 798.72 743.34175 798.72 624.64 798.72 c 0,6,7
 505.937672652 798.72 505.937672652 798.72 421.928836326 882.729038674 c 0
 337.92 966.738077348 337.92 966.738077348 337.92 1085.44 c 4,0,1
262.144 405.504 m 4,8,9
 262.144 478.796660582 262.144 478.796660582 290.704310277 545.54356843 c 0
 319.264620553 612.290476279 319.264620553 612.290476279 367.535330348 660.56105657 c 0
 415.806040143 708.831636861 415.806040143 708.831636861 482.552841527 737.39181843 c 0
 549.29964291 765.952 549.29964291 765.952 622.592 765.952 c 0,10,11
 720.453796804 765.952 720.453796804 765.952 803.492115868 717.697217466 c 0
 886.530434932 669.442434932 886.530434932 669.442434932 934.785217466 586.404115868 c 0
 983.04 503.365796804 983.04 503.365796804 983.04 405.504 c 0,12,13
 983.04 332.211639716 983.04 332.211639716 954.479817172 265.464794119 c 0
 925.919634345 198.717948523 925.919634345 198.717948523 877.649057828 150.447180881 c 0
 829.378481311 102.176413239 829.378481311 102.176413239 762.631567172 73.6160566193 c 0
 695.884653034 45.0557 695.884653034 45.0557 622.592 45.0557 c 0,14,15
 549.299696041 45.0557 549.299696041 45.0557 482.552850382 73.6160642163 c 0
 415.806004723 102.176428433 415.806004723 102.176428433 367.535321493 150.447173284 c 0
 319.264638264 198.717918135 319.264638264 198.717918135 290.704319132 265.464801716 c 0
 262.144 332.211685298 262.144 332.211685298 262.144 405.504 c 4,8,9
EndSplineSet
Fore
SplineSet
279 705 m 1,0,-1
 279 141 l 1,1,-1
 598 141 l 2,2,3
 794.986666667 141 794.986666667 141 882 266.5 c 0,4,5
 930 335.730769231 930 335.730769231 930 430 c 0,6,7
 930 465 930 465 923 494 c 1,8,9
 904 588 904 588 823 646.5 c 128,-1,10
 742 705 742 705 598 705 c 2,11,-1
 279 705 l 1,0,-1
516 1315 m 1,12,-1
 279 1317 l 1,13,-1
 279 844 l 1,14,-1
 516 844 l 2,15,16
 742.014925373 844 742.014925373 844 815.5 958.5 c 0,17,18
 850 1012.25581395 850 1012.25581395 850 1060.12790698 c 128,-1,19
 850 1108 850 1108 843.5 1136.5 c 128,-1,20
 837 1165 837 1165 818.5 1195 c 128,-1,21
 800 1225 800 1225 764 1253.5 c 0,22,23
 686.315789474 1315 686.315789474 1315 516 1315 c 1,12,-1
121 1456 m 1,24,-1
 516 1456 l 2,25,26
 839.04950495 1456 839.04950495 1456 958.5 1264.5 c 0,27,28
 1010 1181.93650794 1010 1181.93650794 1010 1071.96825397 c 128,-1,29
 1010 962 1010 962 926.5 872 c 128,-1,30
 843 782 843 782 756 782 c 1,31,32
 953.5 782 953.5 782 1043.5 594 c 0,33,34
 1085 507.311111111 1085 507.311111111 1085 448.655555556 c 128,-1,35
 1085 390 1085 390 1081 357 c 128,-1,36
 1077 324 1077 324 1064.5 280.5 c 128,-1,37
 1052 237 1052 237 1031 199.5 c 128,-1,38
 1010 162 1010 162 972.5 124 c 128,-1,39
 935 86 935 86 885.5 59.5 c 0,40,41
 774.358490566 7.1054273576e-15 774.358490566 7.1054273576e-15 598 0 c 2,42,-1
 121 0 l 1,43,-1
 121 1456 l 1,24,-1
EndSplineSet
EndChar

StartChar: C
Encoding: 67 67 90
Width: 1220
Flags: HMW
LayerCount: 2
Fore
SplineSet
1167 293 m 1,0,1
 1118.50900164 163.690671031 1118.50900164 163.690671031 1011 72.5 c 0,2,3
 891.336842105 -29 891.336842105 -29 700 -29 c 0,4,5
 355.671875 -29 355.671875 -29 193.5 292 c 0,6,7
 100 477.072164948 100 477.072164948 100 725 c 0,8,9
 100 971.103092784 100 971.103092784 194.5 1164 c 0,10,11
 296.251007742 1371.69793333 296.251007742 1371.69793333 483 1452 c 0,12,13
 583 1495 583 1495 680.5 1495 c 128,-1,14
 778 1495 778 1495 845.5 1476.5 c 128,-1,15
 913 1458 913 1458 962 1428 c 128,-1,16
 1011 1398 1011 1398 1050 1357.5 c 0,17,18
 1120.90393013 1283.86899563 1120.90393013 1283.86899563 1153 1194 c 1,19,-1
 1004 1153 l 1,20,21
 975 1244 975 1244 890.5 1299 c 128,-1,22
 806 1354 806 1354 702 1354 c 2,23,-1
 700 1354 l 2,24,25
 596 1354 596 1354 511.5 1300 c 128,-1,26
 427 1246 427 1246 374.5 1156 c 0,27,28
 266 970 266 970 266 725 c 0,29,30
 266 477.128440367 266 477.128440367 380.5 297.5 c 0,31,32
 435 212 435 212 518 161.5 c 128,-1,33
 601 111 601 111 703.5 111 c 128,-1,34
 806 111 806 111 897 176.5 c 128,-1,35
 988 242 988 242 1020 334 c 1,36,-1
 1167 293 l 1,0,1
EndSplineSet
EndChar

StartChar: D
Encoding: 68 68 91
Width: 1220
Flags: HMW
LayerCount: 2
Fore
SplineSet
987 692 m 0,0,1
 987 792 987 792 977 857 c 128,-1,2
 967 922 967 922 946 989.5 c 128,-1,3
 925 1057 925 1057 888 1114.5 c 128,-1,4
 851 1172 851 1172 801.5 1217.5 c 0,5,6
 695.428571429 1315 695.428571429 1315 524 1315 c 2,7,-1
 279 1315 l 1,8,-1
 279 141 l 1,9,-1
 524 141 l 2,10,11
 778.875 141 778.875 141 886.5 305 c 0,12,13
 987 458.142857143 987 458.142857143 987 692 c 0,0,1
1113.5 999.5 m 128,-1,15
 1153 869 1153 869 1153 721 c 128,-1,16
 1153 573 1153 573 1113.5 441 c 128,-1,17
 1074 309 1074 309 1001 210.5 c 128,-1,18
 928 112 928 112 815.5 56 c 128,-1,19
 703 0 703 0 565 0 c 2,20,-1
 121 0 l 1,21,-1
 121 1456 l 1,22,-1
 565 1456 l 2,23,24
 702 1456 702 1456 815 1395 c 128,-1,25
 928 1334 928 1334 1001 1232 c 128,-1,14
 1074 1130 1074 1130 1113.5 999.5 c 128,-1,15
EndSplineSet
EndChar

StartChar: E
Encoding: 69 69 92
Width: 1142
Flags: HMW
LayerCount: 2
Fore
SplineSet
121 1456 m 1,0,-1
 1042 1456 l 1,1,-1
 1042 1315 l 1,2,-1
 279 1315 l 1,3,-1
 279 817 l 1,4,-1
 999 817 l 1,5,-1
 999 676 l 1,6,-1
 279 676 l 1,7,-1
 279 141 l 1,8,-1
 1042 141 l 1,9,-1
 1042 0 l 1,10,-1
 121 0 l 1,11,-1
 121 1456 l 1,0,-1
EndSplineSet
EndChar

StartChar: F
Encoding: 70 70 93
Width: 1146
Flags: HMW
LayerCount: 2
Fore
SplineSet
121 1456 m 1,0,-1
 1042 1456 l 1,1,-1
 1042 1315 l 1,2,-1
 279 1315 l 1,3,-1
 279 817 l 1,4,-1
 999 817 l 1,5,-1
 999 676 l 1,6,-1
 279 676 l 1,7,-1
 279 0 l 1,8,-1
 121 0 l 1,9,-1
 121 1456 l 1,0,-1
EndSplineSet
EndChar

StartChar: G
Encoding: 71 71 94
Width: 1363
Flags: HMW
LayerCount: 2
Fore
SplineSet
700 -29 m 2,0,1
 559 -29 559 -29 443.5 34.5 c 128,-1,2
 328 98 328 98 254 204.5 c 0,3,4
 100 426.135135135 100 426.135135135 100 731 c 0,5,6
 100 955.163265306 100 955.163265306 194 1147 c 0,7,8
 299.987559318 1363.30114146 299.987559318 1363.30114146 482 1448 c 0,9,10
 583 1495 583 1495 722 1495 c 0,11,12
 987.826086957 1495 987.826086957 1495 1137 1260 c 1,13,-1
 999 1192 l 1,14,15
 941 1273 941 1273 874.5 1313.5 c 128,-1,16
 808 1354 808 1354 703.5 1354 c 128,-1,17
 599 1354 599 1354 513.5 1295.5 c 128,-1,18
 428 1237 428 1237 375.5 1144.5 c 0,19,20
 266 951.571428571 266 951.571428571 266 731 c 0,21,22
 266 499.714285714 266 499.714285714 375.5 312 c 0,23,24
 428 222 428 222 512.5 166.5 c 128,-1,25
 597 111 597 111 683.5 111 c 128,-1,26
 770 111 770 111 829 132 c 128,-1,27
 888 153 888 153 928 189.5 c 128,-1,28
 968 226 968 226 998 270.5 c 128,-1,29
 1028 315 1028 315 1044.5 366.5 c 0,30,31
 1077 467.939393939 1077 467.939393939 1077 555 c 1,32,-1
 684 555 l 1,33,-1
 684 696 l 1,34,-1
 1233 696 l 1,35,-1
 1233 610 l 2,36,37
 1233 417.445783133 1233 417.445783133 1154.5 259.5 c 0,38,39
 1064.71576887 78.849800017 1064.71576887 78.849800017 903.5 9.5 c 0,40,41
 814 -29 814 -29 706 -29 c 2,42,-1
 700 -29 l 2,0,1
EndSplineSet
EndChar

StartChar: H
Encoding: 72 72 95
Width: 1198
Flags: HMW
LayerCount: 2
Fore
SplineSet
121 1456 m 1,0,-1
 279 1456 l 1,1,-1
 279 815 l 1,2,-1
 940 815 l 1,3,-1
 940 1456 l 1,4,-1
 1098 1456 l 1,5,-1
 1098 0 l 1,6,-1
 940 0 l 1,7,-1
 940 674 l 1,8,-1
 279 674 l 1,9,-1
 279 0 l 1,10,-1
 121 0 l 1,11,-1
 121 1456 l 1,0,-1
EndSplineSet
EndChar

StartChar: I
Encoding: 73 73 96
Width: 444
Flags: HMW
LayerCount: 2
Fore
SplineSet
154 0 m 1,0,-1
 154 1456 l 1,1,-1
 311 1456 l 1,2,-1
 311 0 l 1,3,-1
 154 0 l 1,0,-1
EndSplineSet
EndChar

StartChar: J
Encoding: 74 74 97
Width: 1140
Flags: HMW
LayerCount: 2
Fore
SplineSet
113 535 m 1,0,-1
 254 535 l 1,1,2
 254 343.222222222 254 343.222222222 373 211 c 0,3,4
 454 121 454 121 555.5 121 c 128,-1,5
 657 121 657 121 728.5 183.5 c 0,6,7
 870 307.188811189 870 307.188811189 870 535 c 2,8,-1
 870 1456 l 1,9,-1
 1028 1456 l 1,10,-1
 1028 535 l 2,11,12
 1028 289 1028 289 899 130 c 128,-1,13
 770 -29 770 -29 565 -29 c 0,14,15
 400 -29 400 -29 283.5 84.5 c 0,16,17
 113 250.60944206 113 250.60944206 113 535 c 1,0,-1
EndSplineSet
EndChar

StartChar: K
Encoding: 75 75 98
Width: 1239
Flags: HMW
LayerCount: 2
Fore
SplineSet
121 1456 m 1,0,-1
 279 1456 l 1,1,-1
 279 702 l 1,2,-1
 1026 1456 l 1,3,-1
 1219 1456 l 1,4,-1
 571 803 l 1,5,-1
 1235 0 l 1,6,-1
 1028 0 l 1,7,-1
 467 702 l 1,8,-1
 279 516 l 1,9,-1
 279 0 l 1,10,-1
 121 0 l 1,11,-1
 121 1456 l 1,0,-1
EndSplineSet
EndChar

StartChar: L
Encoding: 76 76 99
Width: 1105
Flags: HMW
LayerCount: 2
Fore
SplineSet
121 1456 m 1,0,-1
 279 1456 l 1,1,-1
 279 141 l 1,2,-1
 1044 141 l 1,3,-1
 1044 0 l 1,4,-1
 121 0 l 1,5,-1
 121 1456 l 1,0,-1
EndSplineSet
EndChar

StartChar: M
Encoding: 77 77 100
Width: 1562
Flags: HMW
LayerCount: 2
Fore
SplineSet
121 0 m 1,0,-1
 121 1456 l 1,1,-1
 336 1456 l 1,2,-1
 795 209 l 1,3,-1
 1255 1456 l 1,4,-1
 1462 1456 l 1,5,-1
 1462 0 l 1,6,-1
 1309 0 l 1,7,-1
 1309 1204 l 1,8,-1
 881 16 l 1,9,-1
 702 16 l 1,10,-1
 274 1204 l 1,11,-1
 274 0 l 1,12,-1
 121 0 l 1,0,-1
EndSplineSet
EndChar

StartChar: N
Encoding: 78 78 101
Width: 1271
Flags: HMW
LayerCount: 2
Fore
SplineSet
121 0 m 1,0,-1
 121 1456 l 1,1,-1
 274 1456 l 1,2,-1
 1014 295 l 1,3,-1
 1014 1456 l 1,4,-1
 1171 1456 l 1,5,-1
 1171 0 l 1,6,-1
 1026 0 l 1,7,-1
 279 1190 l 1,8,-1
 279 0 l 1,9,-1
 121 0 l 1,0,-1
EndSplineSet
EndChar

StartChar: O
Encoding: 79 79 102
Width: 1333
Flags: HMW
LayerCount: 2
Fore
SplineSet
1083.5 558 m 128,-1,1
 1096 640 1096 640 1096 741.5 c 128,-1,2
 1096 843 1096 843 1075.5 939 c 128,-1,3
 1055 1035 1055 1035 1024.5 1104 c 128,-1,4
 994 1173 994 1173 947 1231 c 0,5,6
 847.327586207 1354 847.327586207 1354 676 1354 c 0,7,8
 583 1354 583 1354 509 1314 c 128,-1,9
 435 1274 435 1274 389 1210.5 c 128,-1,10
 343 1147 343 1147 312.5 1062.5 c 0,11,12
 258 911.508196721 258 911.508196721 258 762.754098361 c 128,-1,13
 258 614 258 614 277.5 519.5 c 128,-1,14
 297 425 297 425 327.5 357.5 c 128,-1,15
 358 290 358 290 405 233.5 c 0,16,17
 505.238938053 113 505.238938053 113 676 113 c 0,18,19
 769 113 769 113 843 151.5 c 128,-1,20
 917 190 917 190 963 251 c 128,-1,21
 1009 312 1009 312 1040 394 c 128,-1,0
 1071 476 1071 476 1083.5 558 c 128,-1,1
181 309 m 128,-1,23
 138 401 138 401 115 507.5 c 128,-1,24
 92 614 92 614 92 720 c 128,-1,25
 92 826 92 826 111 929 c 128,-1,26
 130 1032 130 1032 175 1135 c 128,-1,27
 220 1238 220 1238 285 1317 c 128,-1,28
 350 1396 350 1396 451.5 1445.5 c 128,-1,29
 553 1495 553 1495 675 1495 c 128,-1,30
 797 1495 797 1495 896 1449 c 128,-1,31
 995 1403 995 1403 1062 1323.5 c 0,32,33
 1191.07489598 1170.34396671 1191.07489598 1170.34396671 1238 950 c 0,34,35
 1262 834 1262 834 1262 729.5 c 128,-1,36
 1262 625 1262 625 1242.5 524 c 128,-1,37
 1223 423 1223 423 1178 322 c 128,-1,38
 1133 221 1133 221 1067.5 144 c 128,-1,39
 1002 67 1002 67 900.5 19 c 128,-1,40
 799 -29 799 -29 677.5 -29 c 128,-1,41
 556 -29 556 -29 457 16 c 128,-1,42
 358 61 358 61 291 139 c 128,-1,22
 224 217 224 217 181 309 c 128,-1,23
EndSplineSet
EndChar

StartChar: P
Encoding: 80 80 103
Width: 1099
Flags: HMW
LayerCount: 2
Fore
SplineSet
279 774 m 1,0,-1
 485 774 l 2,1,2
 870 774 870 774 870 1047 c 0,3,4
 870 1172.21686747 870 1172.21686747 769.5 1248.5 c 0,5,6
 681.888888889 1315 681.888888889 1315 485 1315 c 2,7,-1
 279 1315 l 1,8,-1
 279 774 l 1,0,-1
121 1456 m 1,9,-1
 485 1456 l 2,10,11
 715 1456 715 1456 853.5 1368 c 128,-1,12
 992 1280 992 1280 1024 1132 c 1,13,14
 1032 1087 1032 1087 1032 1023.5 c 128,-1,15
 1032 960 1032 960 999 886 c 128,-1,16
 966 812 966 812 901 754.5 c 0,17,18
 761.391304348 631 761.391304348 631 485 631 c 2,19,-1
 279 631 l 1,20,-1
 279 0 l 1,21,-1
 121 0 l 1,22,-1
 121 1456 l 1,9,-1
EndSplineSet
EndChar

StartChar: Q
Encoding: 81 81 104
Width: 1370
Flags: HMW
LayerCount: 2
Back
SplineSet
1273.04 83.6143 m 5,0,-1
 1186.51 -32.9658 l 1,1,-1
 699.626 328.428 l 1,2,-1
 786.157 445.006 l 1,3,-1
 1273.04 83.6143 l 5,0,-1
1101.68 725.914 m 0,4,5
 1101.68 785.598492778 1101.68 785.598492778 1094.98024666 845.504719879 c 0
 1088.28049333 905.410946981 1088.28049333 905.410946981 1072.84375625 967.886813649 c 0
 1057.40701918 1030.36268032 1057.40701918 1030.36268032 1034.44014171 1086.02494145 c 0
 1011.47326423 1141.68720259 1011.47326423 1141.68720259 976.636817477 1191.15273202 c 0
 941.800370722 1240.61826144 941.800370722 1240.61826144 898.7568764 1276.35024758 c 0
 855.713382078 1312.08223371 855.713382078 1312.08223371 797.667732929 1332.85111686 c 0
 739.622083781 1353.62 739.622083781 1353.62 672.539 1353.62 c 0,6,7
 447.718504325 1353.62 447.718504325 1353.62 332.116811616 1131.33000639 c 0
 244.959091794 963.734804895 244.959091794 963.734804895 243.417754063 732.725768062 c 0
 243.397847244 728.81788728 243.397847244 728.81788728 243.395 725.914 c 0,8,9
 243.395 655.966922056 243.395 655.966922056 253.205852913 586.688803317 c 0
 263.016705826 517.410684578 263.016705826 517.410684578 283.22385542 447.204196683 c 0
 303.431005015 376.997708789 303.431005015 376.997708789 338.133102913 317.317692206 c 0
 372.835200811 257.637675622 372.835200811 257.637675622 418.680522087 210.926418906 c 0
 464.525843363 164.215162189 464.525843363 164.215162189 529.812686246 137.618581094 c 0
 595.09952913 111.022 595.09952913 111.022 672.539 111.022 c 0,10,11
 739.226135023 111.022 739.226135023 111.022 797.000136616 131.07148851 c 0
 854.77413821 151.120977021 854.77413821 151.120977021 897.819306532 185.760721402 c 0
 940.864474855 220.400465784 940.864474855 220.400465784 975.745244488 268.436013292 c 0
 1010.62601412 316.471560799 1010.62601412 316.471560799 1033.76387796 370.855578545 c 0
 1056.9017418 425.239596291 1056.9017418 425.239596291 1072.47479551 486.471605128 c 0
 1088.04784922 547.703613966 1088.04784922 547.703613966 1094.86392461 607.042307408 c 0
 1101.68 666.38100085 1101.68 666.38100085 1101.68 725.914 c 0,4,5
93.9424 725.914 m 0,12,13
 93.9424 827.089693026 93.9424 827.089693026 112.32388889 929.177497628 c 0
 130.705377779 1031.26530223 130.705377779 1031.26530223 174.60966471 1134.46829437 c 0
 218.513951642 1237.67128651 218.513951642 1237.67128651 282.88805529 1316.56002563 c 0
 347.262158938 1395.44876474 347.262158938 1395.44876474 448.16839111 1444.98938237 c 0
 549.074623283 1494.53 549.074623283 1494.53 672.539 1494.53 c 0,14,15
 761.766202661 1494.53 761.766202661 1494.53 839.500533409 1468.63966915 c 0
 917.234864158 1442.7493383 917.234864158 1442.7493383 975.127889331 1398.29314718 c 0
 1033.0209145 1353.83695605 1033.0209145 1353.83695605 1080.21666169 1292.73175078 c 0
 1127.41240887 1231.62654552 1127.41240887 1231.62654552 1158.73960362 1163.00237167 c 0
 1190.06679836 1094.37819781 1190.06679836 1094.37819781 1211.28049842 1018.22595487 c 0
 1232.49419849 942.073711916 1232.49419849 942.073711916 1241.81209924 869.449392074 c 0
 1251.13 796.825072231 1251.13 796.825072231 1251.13 725.914 c 0,16,17
 1251.13 655.137627552 1251.13 655.137627552 1241.69589813 583.096147486 c 0
 1232.26179626 511.054667419 1232.26179626 511.054667419 1210.91232636 436.133545809 c 0
 1189.56285646 361.212424199 1189.56285646 361.212424199 1158.06451038 293.876119497 c 0
 1126.5661643 226.539814795 1126.5661643 226.539814795 1079.32685697 166.85742336 c 0
 1032.08754965 107.175031925 1032.08754965 107.175031925 974.191979764 63.8151399053 c 0
 916.296409882 20.4552478861 916.296409882 20.4552478861 838.834285542 -4.71717605694 c 0
 761.372161203 -29.8896 761.372161203 -29.8896 672.539 -29.8896 c 0,18,19
 583.706245075 -29.8896 583.706245075 -29.8896 506.244034223 -4.71719610168 c 0
 428.781823371 20.4552077966 428.781823371 20.4552077966 370.885784436 63.8151599501 c 0
 312.989745502 107.175112104 312.989745502 107.175112104 265.749778829 166.857403315 c 0
 218.509812157 226.539694527 218.509812157 226.539694527 187.010723212 293.876139542 c 0
 155.511634267 361.212584557 155.511634267 361.212584557 134.161533931 436.133525764 c 0
 112.811433595 511.054466972 112.811433595 511.054466972 103.376916798 583.09616753 c 0
 93.9424 655.137868089 93.9424 655.137868089 93.9424 725.914 c 0,12,13
EndSplineSet
Fore
SplineSet
950.5 1230.5 m 0,0,1
 848.111111111 1354 848.111111111 1354 674 1354 c 0,2,3
 574 1354 574 1354 493 1301.5 c 128,-1,4
 412 1249 412 1249 361.5 1160 c 0,5,6
 258 977.594059406 258 977.594059406 258 725 c 0,7,8
 258 616 258 616 277.5 525 c 128,-1,9
 297 434 297 434 327.5 366 c 128,-1,10
 358 298 358 298 406.5 239 c 0,11,12
 510.076271186 113 510.076271186 113 692 113 c 0,13,14
 746 113 746 113 807.5 133.5 c 128,-1,15
 869 154 869 154 903 188 c 1,16,-1
 715 330 l 1,17,-1
 803 446 l 1,18,-1
 1001 297 l 1,19,20
 1104 441 1104 441 1104 743.175257732 c 128,-1,21
 1104 1045.35051546 1104 1045.35051546 950.5 1230.5 c 0,0,1
163.5 348.5 m 128,-1,23
 133 424 133 424 112.5 519 c 128,-1,24
 92 614 92 614 92 720 c 128,-1,25
 92 826 92 826 112 929 c 128,-1,26
 132 1032 132 1032 177.5 1135 c 128,-1,27
 223 1238 223 1238 288.5 1317 c 128,-1,28
 354 1396 354 1396 454.5 1445.5 c 128,-1,29
 555 1495 555 1495 664.5 1495 c 128,-1,30
 774 1495 774 1495 859.5 1463.5 c 128,-1,31
 945 1432 945 1432 1007 1380 c 128,-1,32
 1069 1328 1069 1328 1118 1256 c 0,33,34
 1208.24194654 1123.39958876 1208.24194654 1123.39958876 1246 943 c 0,35,36
 1270 832 1270 832 1270 700.5 c 128,-1,37
 1270 569 1270 569 1227.5 429 c 128,-1,38
 1185 289 1185 289 1122 207 c 1,39,-1
 1288 86 l 1,40,-1
 1198 -31 l 1,41,-1
 1026 96 l 1,42,43
 950 36 950 36 874 3.5 c 128,-1,44
 798 -29 798 -29 693 -29 c 128,-1,45
 588 -29 588 -29 502.5 1 c 128,-1,46
 417 31 417 31 354.5 81.5 c 128,-1,47
 292 132 292 132 243 202.5 c 128,-1,22
 194 273 194 273 163.5 348.5 c 128,-1,23
EndSplineSet
EndChar

StartChar: R
Encoding: 82 82 105
Width: 1101
Flags: HMW
LayerCount: 2
Back
SplineSet
268.288 774.145 m 5,0,-1
 475.136 774.145 l 2,1,2
 567.442409035 774.145 567.442409035 774.145 637.513597129 790.445085864 c 0
 707.584785224 806.745171728 707.584785224 806.745171728 749.031554871 832.506490136 c 0
 790.478324518 858.267808544 790.478324518 858.267808544 816.295805129 895.269789864 c 0
 842.113285741 932.271771184 842.113285741 932.271771184 851.136642871 968.297434136 c 0
 860.16 1004.32309709 860.16 1004.32309709 860.16 1046.53 c 0,3,4
 860.16 1066.57751787 860.16 1066.57751787 857.815588845 1085.46823993 c 0
 855.471177689 1104.35896199 855.471177689 1104.35896199 849.255621032 1125.74398229 c 0
 843.040064374 1147.1290026 843.040064374 1147.1290026 833.228351533 1166.22000948 c 0
 823.416638692 1185.31101635 823.416638692 1185.31101635 807.407873432 1204.69229505 c 0
 791.399108173 1224.07357375 791.399108173 1224.07357375 770.614052493 1240.09474199 c 0
 749.828996814 1256.11591022 749.828996814 1256.11591022 720.5209818 1270.22332386 c 0
 691.212966786 1284.33073749 691.212966786 1284.33073749 655.948527116 1294.01194363 c 0
 620.684087446 1303.69314977 620.684087446 1303.69314977 574.570781526 1309.25657489 c 0
 528.457475605 1314.82 528.457475605 1314.82 475.136 1314.82 c 2,5,-1
 268.288 1314.82 l 1,6,-1
 268.288 774.145 l 5,0,-1
110.592 1456.13 m 5,7,-1
 268.288 1456.13 l 1,8,-1
 475.136 1456.13 l 2,9,10
 607.5246242 1455.37705733 607.5246242 1455.37705733 712.1764582 1424.49233318 c 0
 816.8282922 1393.60760902 816.8282922 1393.60760902 884.1742293 1338.77407307 c 0
 951.5201664 1283.94053713 951.5201664 1283.94053713 986.7350832 1209.70889568 c 0
 1021.95 1135.47725422 1021.95 1135.47725422 1021.95 1046.53 c 0,11,12
 1021.95 997.756138918 1021.95 997.756138918 1011.660813 952.543376008 c 0
 1001.37162599 907.330613098 1001.37162599 907.330613098 979.702224905 865.610915537 c 0
 958.032823817 823.891217977 958.032823817 823.891217977 926.147040401 788.296472218 c 0
 894.261256986 752.701726459 894.261256986 752.701726459 849.299775925 723.50422166 c 0
 804.338294865 694.30671686 804.338294865 694.30671686 749.351122034 673.775329361 c 0
 694.363949203 653.243941862 694.363949203 653.243941862 624.605595167 642.013970931 c 0
 554.847241131 630.784 554.847241131 630.784 475.136 630.784 c 2,13,-1
 268.288 630.784 l 1,14,-1
 268.288 0 l 1,15,-1
 110.592 0 l 1,16,-1
 110.592 1456.13 l 5,7,-1
EndSplineSet
Fore
SplineSet
279 774 m 1,0,-1
 485 774 l 2,1,2
 745.763157895 774 745.763157895 774 828 899 c 0,3,4
 870 962.84 870 962.84 870 1047 c 0,5,6
 870 1171 870 1171 777 1243 c 128,-1,7
 684 1315 684 1315 485 1315 c 2,8,-1
 279 1315 l 1,9,-1
 279 774 l 1,0,-1
923 0 m 1,10,-1
 494 631 l 1,11,-1
 279 631 l 1,12,-1
 279 0 l 1,13,-1
 121 0 l 1,14,-1
 121 1456 l 1,15,-1
 485 1456 l 2,16,17
 727 1456 727 1456 880.5 1347.5 c 128,-1,18
 1034 1239 1034 1239 1034 1047 c 0,19,20
 1034 898 1034 898 935 788 c 128,-1,21
 836 678 836 678 670 648 c 1,22,-1
 1104 0 l 1,23,-1
 923 0 l 1,10,-1
EndSplineSet
EndChar

StartChar: S
Encoding: 83 83 106
Width: 1079
Flags: HMW
LayerCount: 2
Back
SplineSet
75.8164 395.264 m 0,0,1
 75.8164 482.062090771 75.8164 482.062090771 114.440451697 560.794864087 c 0
 153.064503395 639.527637403 153.064503395 639.527637403 218.903445178 696.664714038 c 0
 284.74238696 753.801790674 284.74238696 753.801790674 376.758895447 787.524895337 c 0
 468.775403935 821.248 468.775403935 821.248 571.054 821.248 c 0,2,3
 673.332579028 821.248 673.332579028 821.248 765.348851713 787.524901373 c 0
 857.365124398 753.801802745 857.365124398 753.801802745 923.203757662 696.664708002 c 0
 989.042390926 639.52761326 989.042390926 639.52761326 1027.66619546 560.794870123 c 0
 1066.29 482.062126985 1066.29 482.062126985 1066.29 395.264 c 0,4,5
 1066.29 325.779538592 1066.29 325.779538592 1041.72039096 260.872009224 c 0
 1017.15078192 195.964479856 1017.15078192 195.964479856 971.742905038 143.529919576 c 0
 926.335028153 91.0953592958 926.335028153 91.0953592958 865.684054962 51.7107004239 c 0
 805.03308177 12.3260415521 805.03308177 12.3260415521 729.012249038 -9.19682922395 c 0
 652.991416306 -30.7197 652.991416306 -30.7197 571.054 -30.7197 c 0,6,7
 468.775341946 -30.7197 468.775341946 -30.7197 376.758885116 3.00322200557 c 0
 284.742428286 36.7261440111 284.742428286 36.7261440111 218.903455509 93.8630561194 c 0
 153.064482732 150.999968228 153.064482732 150.999968228 114.440441366 229.732765756 c 0
 75.8164 308.465563283 75.8164 308.465563283 75.8164 395.264 c 0,0,1
233.994 397.312 m 0,8,9
 233.994 444.002870019 233.994 444.002870019 250.903734584 487.758130752 c 0
 267.813469167 531.513391486 267.813469167 531.513391486 298.810889416 566.757693248 c 0
 329.808309665 602.001995009 329.808309665 602.001995009 370.975030584 628.539986752 c 0
 412.141751502 655.077978495 412.141751502 655.077978495 463.249545416 669.554989248 c 0
 514.357339331 684.032 514.357339331 684.032 568.894 684.032 c 0,10,11
 659.817847316 684.032 659.817847316 684.032 736.970378496 645.647341916 c 0
 814.122909675 607.262683833 814.122909675 607.262683833 858.957954838 541.20932475 c 0
 903.793 475.155965668 903.793 475.155965668 903.793 397.312 c 0,12,13
 903.793 371.23858295 903.793 371.23858295 898.421300065 345.818611023 c 0
 893.049600131 320.398639096 893.049600131 320.398639096 882.802440675 297.275932187 c 0
 872.55528122 274.153225278 872.55528122 274.153225278 858.074962617 252.658682353 c 0
 843.594644013 231.164139429 843.594644013 231.164139429 824.969634091 212.592456193 c 0
 806.344624169 194.020772956 806.344624169 194.020772956 784.652180724 178.075247511 c 0
 762.959737278 162.129722066 762.959737278 162.129722066 737.853370717 149.73265098 c 0
 712.747004155 137.335579894 712.747004155 137.335579894 685.738929695 128.562660406 c 0
 658.730855235 119.789740917 658.730855235 119.789740917 629.039625861 115.190870459 c 0
 599.348396487 110.592 599.348396487 110.592 568.894 110.592 c 0,14,15
 477.969237629 110.592 477.969237629 110.592 400.816476074 148.976683153 c 0
 323.663714519 187.361366307 323.663714519 187.361366307 278.828857259 253.41465018 c 0
 233.994 319.467934053 233.994 319.467934053 233.994 397.312 c 0,8,9
114.688 1105.92 m 4,16,17
 114.688 1211.56400092 114.688 1211.56400092 175.280646569 1301.2076669 c 0
 235.873293138 1390.85133287 235.873293138 1390.85133287 340.143353431 1442.94566644 c 0
 444.413413723 1495.04 444.413413723 1495.04 567.296 1495.04 c 0,18,19
 620.093360721 1495.04 620.093360721 1495.04 670.95361971 1484.82627848 c 0
 721.813878699 1474.61255696 721.813878699 1474.61255696 766.365109153 1455.40001889 c 0
 810.916339606 1436.18748082 810.916339606 1436.18748082 850.243135745 1409.58773621 c 0
 889.569931884 1382.98799159 889.569931884 1382.98799159 920.508782622 1349.17716175 c 0
 951.44763336 1315.36633191 951.44763336 1315.36633191 973.794156153 1277.06406274 c 0
 996.140678947 1238.76179357 996.140678947 1238.76179357 1008.02033947 1195.0361705 c 0
 1019.9 1151.31054742 1019.9 1151.31054742 1019.9 1105.92 c 0,20,21
 1019.9 1042.55362567 1019.9 1042.55362567 997.047520116 983.171531209 c 0
 974.195040231 923.789436747 974.195040231 923.789436747 932.303615884 875.957844791 c 0
 890.412191538 828.126252835 890.412191538 828.126252835 834.777184116 792.110475209 c 0
 779.142176693 756.094697582 779.142176693 756.094697582 710.071679884 736.447348791 c 0
 641.001183075 716.8 641.001183075 716.8 567.296 716.8 c 0,22,23
 389.401933487 716.8 389.401933487 716.8 259.125085857 821.007463208 c 0
 136.98491508 918.70646026 136.98491508 918.70646026 117.755874216 1060.40571577 c 0
 114.754584435 1083.52566354 114.754584435 1083.52566354 114.688 1105.92 c 4,16,17
276.48 1107.97 m 4,24,25
 276.48 1209.71492653 276.48 1209.71492653 361.088956837 1281.72246327 c 0
 445.697913674 1353.73 445.697913674 1353.73 565.248 1353.73 c 0,26,27
 623.96527756 1353.73 623.96527756 1353.73 677.438587927 1334.25715088 c 0
 730.911898293 1314.78430175 730.911898293 1314.78430175 769.583287073 1281.87253662 c 0
 808.254675853 1248.96077149 808.254675853 1248.96077149 831.135337927 1203.45152588 c 0
 854.016 1157.94228026 854.016 1157.94228026 854.016 1107.97 c 0,28,29
 854.016 1006.22430551 854.016 1006.22430551 769.407032614 934.216152757 c 0
 684.798065227 862.208 684.798065227 862.208 565.248 862.208 c 0,30,31
 445.697934773 862.208 445.697934773 862.208 361.088967386 934.216152757 c 0
 276.48 1006.22430551 276.48 1006.22430551 276.48 1107.97 c 4,24,25
EndSplineSet
Fore
SplineSet
45 327 m 1,0,-1
 215 358 l 1,1,2
 236 271 236 271 330 192 c 128,-1,3
 424 113 424 113 552 113 c 128,-1,4
 680 113 680 113 780.5 185 c 128,-1,5
 881 257 881 257 881 371 c 0,6,7
 881 567 881 567 558.5 696 c 0,8,9
 531 707 531 707 489.5 723 c 128,-1,10
 448 739 448 739 419 751 c 128,-1,11
 390 763 390 763 359.5 778 c 128,-1,12
 329 793 329 793 287.5 817.5 c 128,-1,13
 246 842 246 842 218.5 871 c 128,-1,14
 191 900 191 900 165.5 938 c 0,15,16
 114 1014.74509804 114 1014.74509804 114 1136 c 0,17,18
 114 1300 114 1300 236 1397.5 c 128,-1,19
 358 1495 358 1495 534.5 1495 c 128,-1,20
 711 1495 711 1495 832 1410 c 128,-1,21
 953 1325 953 1325 994 1194 c 1,22,-1
 842 1169 l 1,23,24
 819 1241 819 1241 735 1297.5 c 128,-1,25
 651 1354 651 1354 537.5 1354 c 128,-1,26
 424 1354 424 1354 350 1292 c 128,-1,27
 276 1230 276 1230 276 1136 c 0,28,29
 276 1051.04347826 276 1051.04347826 319 1001.5 c 0,30,31
 366.739657334 946.495612202 366.739657334 946.495612202 416.869828667 921.747806101 c 128,-1,32
 467 897 467 897 495 885 c 128,-1,33
 523 873 523 873 572 854 c 128,-1,34
 621 835 621 835 658.5 819.5 c 128,-1,35
 696 804 696 804 733 785 c 128,-1,36
 770 766 770 766 818.5 736.5 c 128,-1,37
 867 707 867 707 902 672 c 128,-1,38
 937 637 937 637 969 592.5 c 0,39,40
 1034 502.109375 1034 502.109375 1034 370.0546875 c 128,-1,41
 1034 238 1034 238 965.5 146.5 c 0,42,43
 834.114754098 -29 834.114754098 -29 539 -29 c 0,44,45
 348 -29 348 -29 225.5 69 c 128,-1,46
 103 167 103 167 45 327 c 1,0,-1
EndSplineSet
EndChar

StartChar: T
Encoding: 84 84 107
Width: 1243
Flags: HMW
LayerCount: 2
Fore
SplineSet
88 1456 m 1,0,-1
 1180 1456 l 1,1,-1
 1180 1315 l 1,2,-1
 723 1315 l 1,3,-1
 723 0 l 1,4,-1
 565 0 l 1,5,-1
 565 1315 l 1,6,-1
 88 1315 l 1,7,-1
 88 1456 l 1,0,-1
EndSplineSet
EndChar

StartChar: U
Encoding: 85 85 108
Width: 1265
Flags: HMW
LayerCount: 2
Back
SplineSet
272.384 1456.13 m 5,0,-1
 110.592 1456.13 l 1,1,-1
 110.592 661.504 l 2,2,3
 110.592 504.268804056 110.592 504.268804056 146.623036779 375.522180884 c 0
 182.654073558 246.775557713 182.654073558 246.775557713 249.376963221 157.022015991 c 0
 316.099852884 67.2684742687 316.099852884 67.2684742687 414.079036779 18.2743871344 c 0
 512.058220674 -30.7197 512.058220674 -30.7197 632.832 -30.7197 c 0,4,5
 793.845363893 -30.7197 793.845363893 -30.7197 912.190840973 54.2139975439 c 0
 1030.53631805 139.147695088 1030.53631805 139.147695088 1092.80315903 295.311635789 c 0
 1155.07 451.475576491 1155.07 451.475576491 1155.07 661.504 c 2,6,-1
 1155.07 1456.13 l 1,7,-1
 993.28 1456.13 l 1,8,-1
 993.28 661.504 l 2,9,10
 993.28 600.608704636 993.28 600.608704636 987.322187363 545.036447332 c 0
 981.364374726 489.464190028 981.364374726 489.464190028 970.211837328 442.428244026 c 0
 959.05929993 395.392298024 959.05929993 395.392298024 943.064036472 353.979679156 c 0
 927.068773013 312.567060289 927.068773013 312.567060289 907.024435408 279.166965562 c 0
 886.980097802 245.766870836 886.980097802 245.766870836 863.206083111 218.345330734 c 0
 839.43206842 190.923790631 839.43206842 190.923790631 812.754630195 170.99098751 c 0
 786.077191971 151.058184389 786.077191971 151.058184389 756.783125635 137.459163381 c 0
 727.489059299 123.860142373 727.489059299 123.860142373 696.437220044 117.226071187 c 0
 665.385380789 110.592 665.385380789 110.592 632.832 110.592 c 0,11,12
 558.697252468 110.592 558.697252468 110.592 494.520578368 145.201098271 c 0
 430.343904267 179.810196542 430.343904267 179.810196542 380.615421632 246.382901729 c 0
 330.886938998 312.955606916 330.886938998 312.955606916 302.008578368 419.697098271 c 0
 273.130217737 526.438589626 273.130217737 526.438589626 272.384 661.504 c 2,13,-1
 272.384 1456.13 l 5,0,-1
EndSplineSet
Fore
SplineSet
1004 1456 m 1,0,-1
 1165 1456 l 1,1,-1
 1165 645 l 2,2,3
 1165 328 1165 328 1027 149.5 c 128,-1,4
 889 -29 889 -29 643 -29 c 0,5,6
 447 -29 447 -29 317.5 86.5 c 0,7,8
 121 261.756756757 121 261.756756757 121 645 c 2,9,-1
 121 1456 l 1,10,-1
 283 1456 l 1,11,-1
 283 645 l 2,12,13
 283 327.717391304 283 327.717391304 429 196 c 0,14,15
 521 113 521 113 643 113 c 0,16,17
 795.5 113 795.5 113 896.5 239 c 0,18,19
 1004 373.108910891 1004 373.108910891 1004 645 c 2,20,-1
 1004 1456 l 1,0,-1
EndSplineSet
EndChar

StartChar: V
Encoding: 86 86 109
Width: 1245
Flags: HMW
LayerCount: 2
Fore
SplineSet
1022 1456 m 1,0,-1
 1186 1456 l 1,1,-1
 745 0 l 1,2,-1
 526 0 l 1,3,-1
 80 1456 l 1,4,-1
 250 1456 l 1,5,-1
 635 168 l 1,6,-1
 1022 1456 l 1,0,-1
EndSplineSet
EndChar

StartChar: W
Encoding: 87 87 110
Width: 1576
Flags: HMW
LayerCount: 2
Fore
SplineSet
84 1456 m 1,0,-1
 244 1456 l 1,1,-1
 428 182 l 1,2,-1
 702 1419 l 1,3,-1
 897 1419 l 1,4,-1
 1171 182 l 1,5,-1
 1356 1456 l 1,6,-1
 1516 1456 l 1,7,-1
 1286 0 l 1,8,-1
 1067 0 l 1,9,-1
 801 1229 l 1,10,-1
 535 0 l 1,11,-1
 311 0 l 1,12,-1
 84 1456 l 1,0,-1
EndSplineSet
EndChar

StartChar: X
Encoding: 88 88 111
Width: 1214
Flags: HMW
LayerCount: 2
Fore
SplineSet
74 1456 m 1,0,-1
 256 1456 l 1,1,-1
 618 850 l 1,2,-1
 973 1456 l 1,3,-1
 1155 1456 l 1,4,-1
 702 729 l 1,5,-1
 1161 0 l 1,6,-1
 971 0 l 1,7,-1
 618 586 l 1,8,-1
 258 0 l 1,9,-1
 80 0 l 1,10,-1
 535 729 l 1,11,-1
 74 1456 l 1,0,-1
EndSplineSet
EndChar

StartChar: Y
Encoding: 89 89 112
Width: 1179
Flags: HMW
LayerCount: 2
Fore
SplineSet
76 1456 m 1,0,-1
 244 1456 l 1,1,-1
 600 856 l 1,2,-1
 956 1456 l 1,3,-1
 1124 1456 l 1,4,-1
 678 748 l 1,5,-1
 678 0 l 1,6,-1
 520 0 l 1,7,-1
 520 748 l 1,8,-1
 76 1456 l 1,0,-1
EndSplineSet
EndChar

StartChar: Z
Encoding: 90 90 113
Width: 1325
Flags: HMW
LayerCount: 2
Fore
SplineSet
129 1456 m 1,0,-1
 1233 1456 l 1,1,-1
 369 141 l 1,2,-1
 1245 141 l 1,3,-1
 1245 0 l 1,4,-1
 100 0 l 1,5,-1
 973 1315 l 1,6,-1
 129 1315 l 1,7,-1
 129 1456 l 1,0,-1
EndSplineSet
EndChar

StartChar: bracketleft
Encoding: 91 91 114
Width: 626
Flags: HMW
LayerCount: 2
Fore
SplineSet
526 -96 m 1,0,-1
 131 -96 l 1,1,-1
 131 1530 l 1,2,-1
 526 1530 l 1,3,-1
 526 1389 l 1,4,-1
 281 1389 l 1,5,-1
 281 43 l 1,6,-1
 526 43 l 1,7,-1
 526 -96 l 1,0,-1
EndSplineSet
EndChar

StartChar: backslash
Encoding: 92 92 115
Width: 811
Flags: HMW
LayerCount: 2
Fore
SplineSet
690 0 m 1,0,-1
 -29 1544 l 1,1,-1
 143 1544 l 1,2,-1
 860 0 l 1,3,-1
 690 0 l 1,0,-1
EndSplineSet
EndChar

StartChar: bracketright
Encoding: 93 93 116
Width: 638
Flags: HMW
LayerCount: 2
Fore
SplineSet
129 -96 m 1,0,-1
 129 45 l 1,1,-1
 375 45 l 1,2,-1
 375 1389 l 1,3,-1
 129 1389 l 1,4,-1
 129 1530 l 1,5,-1
 524 1530 l 1,6,-1
 524 -96 l 1,7,-1
 129 -96 l 1,0,-1
EndSplineSet
EndChar

StartChar: asciicircum
Encoding: 94 94 117
Width: 927
Flags: HMW
LayerCount: 2
Fore
SplineSet
821 1149 m 1,0,-1
 633 1149 l 1,1,-1
 477 1362 l 1,2,-1
 319 1151 l 1,3,-1
 133 1151 l 1,4,-1
 410 1493 l 1,5,-1
 541 1493 l 1,6,-1
 821 1149 l 1,0,-1
EndSplineSet
EndChar

StartChar: underscore
Encoding: 95 95 118
Width: 1241
Flags: HMW
LayerCount: 2
Fore
SplineSet
88 -231 m 1,0,-1
 88 -90 l 1,1,-1
 1178 -90 l 1,2,-1
 1178 -231 l 1,3,-1
 88 -231 l 1,0,-1
EndSplineSet
EndChar

StartChar: grave
Encoding: 96 96 119
Width: 550
Flags: HMW
LayerCount: 2
Fore
SplineSet
464 1676 m 1,0,1
 480 1660 480 1660 480 1641 c 128,-1,2
 480 1622 480 1622 467.5 1605.5 c 0,3,4
 449.696969697 1582 449.696969697 1582 428.348484848 1582 c 128,-1,5
 407 1582 407 1582 395 1591 c 2,6,-1
 90 1810 l 1,7,8
 60 1835.71428571 60 1835.71428571 60 1864.85714286 c 128,-1,9
 60 1894 60 1894 76.5 1915 c 0,10,11
 99.2857142857 1944 99.2857142857 1944 130.142857143 1944 c 128,-1,12
 161 1944 161 1944 183 1926 c 1,13,-1
 464 1676 l 1,0,1
EndSplineSet
EndChar

StartChar: a
Encoding: 97 97 120
Width: 993
Flags: HMW
LayerCount: 2
Back
SplineSet
143.36 1474.56 m 29,0,-1
 143.36 -53.248 l 1
430.08 1466.37 m 29,2,-1
 430.08 -61.4404 l 1
286.72 -69.6318 m 29,4,-1
 286.72 1458.18 l 1,5,-1
 286.72 -69.6318 l 29,4,-1
573.44 1470.46 m 29,6,-1
 573.44 -57.3438 l 1
716.8 1466.37 m 29,8,-1
 716.8 -61.4404 l 1
860.16 -49.1523 m 29,10,-1
 860.16 1478.66 l 1,11,-1
 860.16 -49.1523 l 29,10,-1
143.36 1474.56 m 29,12,-1
 143.36 -53.248 l 1
430.08 1466.37 m 29,14,-1
 430.08 -61.4404 l 1
286.72 -69.6318 m 29,16,-1
 286.72 1458.18 l 1,17,-1
 286.72 -69.6318 l 29,16,-1
573.44 1470.46 m 29,18,-1
 573.44 -57.3438 l 1
716.8 1466.37 m 29,20,-1
 716.8 -61.4404 l 1
860.16 -49.1523 m 29,22,-1
 860.16 1478.66 l 1,23,-1
 860.16 -49.1523 l 29,22,-1
143.36 1474.56 m 29,24,-1
 143.36 -53.248 l 1
430.08 1466.37 m 29,26,-1
 430.08 -61.4404 l 1
286.72 -69.6318 m 29,28,-1
 286.72 1458.18 l 1,29,-1
 286.72 -69.6318 l 29,28,-1
573.44 1470.46 m 29,30,-1
 573.44 -57.3438 l 1
716.8 1466.37 m 29,32,-1
 716.8 -61.4404 l 1
860.16 -49.1523 m 29,34,-1
 860.16 1478.66 l 1,35,-1
 860.16 -49.1523 l 29,34,-1
143.36 1474.56 m 29,36,-1
 143.36 -53.248 l 1
430.08 1466.37 m 29,38,-1
 430.08 -61.4404 l 1
286.72 -69.6318 m 29,40,-1
 286.72 1458.18 l 1,41,-1
 286.72 -69.6318 l 29,40,-1
573.44 1470.46 m 29,42,-1
 573.44 -57.3438 l 1
716.8 1466.37 m 29,44,-1
 716.8 -61.4404 l 1
860.16 -49.1523 m 29,46,-1
 860.16 1478.66 l 1,47,-1
 860.16 -49.1523 l 29,46,-1
143.36 1474.56 m 29,48,-1
 143.36 -53.248 l 1
430.08 1466.37 m 29,50,-1
 430.08 -61.4404 l 1
286.72 -69.6318 m 29,52,-1
 286.72 1458.18 l 1,53,-1
 286.72 -69.6318 l 29,52,-1
573.44 1470.46 m 29,54,-1
 573.44 -57.3438 l 1
716.8 1466.37 m 29,56,-1
 716.8 -61.4404 l 1
860.16 -49.1523 m 29,58,-1
 860.16 1478.66 l 1,59,-1
 860.16 -49.1523 l 29,58,-1
143.36 1474.56 m 29,60,-1
 143.36 -53.248 l 1
430.08 1466.37 m 29,62,-1
 430.08 -61.4404 l 1
286.72 -69.6318 m 29,64,-1
 286.72 1458.18 l 1,65,-1
 286.72 -69.6318 l 29,64,-1
573.44 1470.46 m 29,66,-1
 573.44 -57.3438 l 1
716.8 1466.37 m 29,68,-1
 716.8 -61.4404 l 1
860.16 -49.1523 m 29,70,-1
 860.16 1478.66 l 1,71,-1
 860.16 -49.1523 l 29,70,-1
143.36 1474.56 m 29,72,-1
 143.36 -53.248 l 1
430.08 1466.37 m 29,74,-1
 430.08 -61.4404 l 1
286.72 -69.6318 m 29,76,-1
 286.72 1458.18 l 1,77,-1
 286.72 -69.6318 l 29,76,-1
573.44 1470.46 m 29,78,-1
 573.44 -57.3438 l 1
716.8 1466.37 m 29,80,-1
 716.8 -61.4404 l 1
860.16 -49.1523 m 29,82,-1
 860.16 1478.66 l 1,83,-1
 860.16 -49.1523 l 29,82,-1
143.36 1474.56 m 29,84,-1
 143.36 -53.248 l 1
430.08 1466.37 m 29,86,-1
 430.08 -61.4404 l 1
286.72 -69.6318 m 29,88,-1
 286.72 1458.18 l 1,89,-1
 286.72 -69.6318 l 29,88,-1
573.44 1470.46 m 29,90,-1
 573.44 -57.3438 l 1
716.8 1466.37 m 29,92,-1
 716.8 -61.4404 l 1
860.16 -49.1523 m 29,94,-1
 860.16 1478.66 l 1,95,-1
 860.16 -49.1523 l 29,94,-1
143.36 1474.56 m 29,96,-1
 143.36 -53.248 l 1
430.08 1466.37 m 29,98,-1
 430.08 -61.4404 l 1
286.72 -69.6318 m 29,100,-1
 286.72 1458.18 l 1,101,-1
 286.72 -69.6318 l 29,100,-1
573.44 1470.46 m 29,102,-1
 573.44 -57.3438 l 1
716.8 1466.37 m 29,104,-1
 716.8 -61.4404 l 1
860.16 -49.1523 m 29,106,-1
 860.16 1478.66 l 1,107,-1
 860.16 -49.1523 l 29,106,-1
143.36 1474.56 m 29,108,-1
 143.36 -53.248 l 1
430.08 1466.37 m 29,110,-1
 430.08 -61.4404 l 1
286.72 -69.6318 m 29,112,-1
 286.72 1458.18 l 1,113,-1
 286.72 -69.6318 l 29,112,-1
573.44 1470.46 m 29,114,-1
 573.44 -57.3438 l 1
716.8 1466.37 m 29,116,-1
 716.8 -61.4404 l 1
860.16 -49.1523 m 29,118,-1
 860.16 1478.66 l 1,119,-1
 860.16 -49.1523 l 29,118,-1
143.36 1474.56 m 29,120,-1
 143.36 -53.248 l 1
430.08 1466.37 m 29,122,-1
 430.08 -61.4404 l 1
286.72 -69.6318 m 29,124,-1
 286.72 1458.18 l 1,125,-1
 286.72 -69.6318 l 29,124,-1
573.44 1470.46 m 29,126,-1
 573.44 -57.3438 l 1
716.8 1466.37 m 29,128,-1
 716.8 -61.4404 l 1
860.16 -49.1523 m 29,130,-1
 860.16 1478.66 l 1,131,-1
 860.16 -49.1523 l 29,130,-1
143.36 1474.56 m 29,132,-1
 143.36 -53.248 l 1
430.08 1466.37 m 29,134,-1
 430.08 -61.4404 l 1
286.72 -69.6318 m 29,136,-1
 286.72 1458.18 l 1,137,-1
 286.72 -69.6318 l 29,136,-1
573.44 1470.46 m 29,138,-1
 573.44 -57.3438 l 1
716.8 1466.37 m 29,140,-1
 716.8 -61.4404 l 1
860.16 -49.1523 m 29,142,-1
 860.16 1478.66 l 1,143,-1
 860.16 -49.1523 l 29,142,-1
143.36 1474.56 m 29,144,-1
 143.36 -53.248 l 1
430.08 1466.37 m 29,146,-1
 430.08 -61.4404 l 1
286.72 -69.6318 m 29,148,-1
 286.72 1458.18 l 1,149,-1
 286.72 -69.6318 l 29,148,-1
573.44 1470.46 m 29,150,-1
 573.44 -57.3438 l 1
716.8 1466.37 m 29,152,-1
 716.8 -61.4404 l 1
860.16 -49.1523 m 29,154,-1
 860.16 1478.66 l 1,155,-1
 860.16 -49.1523 l 29,154,-1
143.36 1474.56 m 29,156,-1
 143.36 -53.248 l 1
430.08 1466.37 m 29,158,-1
 430.08 -61.4404 l 1
286.72 -69.6318 m 29,160,-1
 286.72 1458.18 l 1,161,-1
 286.72 -69.6318 l 29,160,-1
573.44 1470.46 m 29,162,-1
 573.44 -57.3438 l 1
716.8 1466.37 m 29,164,-1
 716.8 -61.4404 l 1
860.16 -49.1523 m 29,166,-1
 860.16 1478.66 l 1,167,-1
 860.16 -49.1523 l 29,166,-1
143.36 1474.56 m 29,168,-1
 143.36 -53.248 l 1
430.08 1466.37 m 29,170,-1
 430.08 -61.4404 l 1
286.72 -69.6318 m 29,172,-1
 286.72 1458.18 l 1,173,-1
 286.72 -69.6318 l 29,172,-1
573.44 1470.46 m 29,174,-1
 573.44 -57.3438 l 1
716.8 1466.37 m 29,176,-1
 716.8 -61.4404 l 1
860.16 -49.1523 m 29,178,-1
 860.16 1478.66 l 1,179,-1
 860.16 -49.1523 l 29,178,-1
143.36 1474.56 m 29,180,-1
 143.36 -53.248 l 1
430.08 1466.37 m 29,182,-1
 430.08 -61.4404 l 1
286.72 -69.6318 m 29,184,-1
 286.72 1458.18 l 1,185,-1
 286.72 -69.6318 l 29,184,-1
573.44 1470.46 m 29,186,-1
 573.44 -57.3438 l 1
716.8 1466.37 m 29,188,-1
 716.8 -61.4404 l 1
860.16 -49.1523 m 29,190,-1
 860.16 1478.66 l 1,191,-1
 860.16 -49.1523 l 29,190,-1
143.36 1474.56 m 25,192,-1
 143.36 -53.248 l 1
430.08 1466.37 m 25,194,-1
 430.08 -61.4404 l 1
286.72 -69.6318 m 25,196,-1
 286.72 1458.18 l 1,197,-1
 286.72 -69.6318 l 25,196,-1
573.44 1470.46 m 25,198,-1
 573.44 -57.3438 l 1
716.8 1466.37 m 25,200,-1
 716.8 -61.4404 l 1
860.16 -49.1523 m 25,202,-1
 860.16 1478.66 l 1,203,-1
 860.16 -49.1523 l 25,202,-1
143.36 1474.56 m 25,204,-1
 143.36 -53.248 l 1
430.08 1466.37 m 25,206,-1
 430.08 -61.4404 l 1
286.72 -69.6318 m 25,208,-1
 286.72 1458.18 l 1,209,-1
 286.72 -69.6318 l 25,208,-1
573.44 1470.46 m 25,210,-1
 573.44 -57.3438 l 1
716.8 1466.37 m 25,212,-1
 716.8 -61.4404 l 1
860.16 -49.1523 m 25,214,-1
 860.16 1478.66 l 1,215,-1
 860.16 -49.1523 l 25,214,-1
143.36 1474.56 m 25,216,-1
 143.36 -53.248 l 1
430.08 1466.37 m 25,218,-1
 430.08 -61.4404 l 1
286.72 -69.6318 m 25,220,-1
 286.72 1458.18 l 1,221,-1
 286.72 -69.6318 l 25,220,-1
573.44 1470.46 m 25,222,-1
 573.44 -57.3438 l 1
716.8 1466.37 m 25,224,-1
 716.8 -61.4404 l 1
860.16 -49.1523 m 25,226,-1
 860.16 1478.66 l 1,227,-1
 860.16 -49.1523 l 25,226,-1
143.36 1474.56 m 25,228,-1
 143.36 -53.248 l 1
430.08 1466.37 m 25,230,-1
 430.08 -61.4404 l 1
286.72 -69.6318 m 25,232,-1
 286.72 1458.18 l 1,233,-1
 286.72 -69.6318 l 25,232,-1
573.44 1470.46 m 25,234,-1
 573.44 -57.3438 l 1
716.8 1466.37 m 25,236,-1
 716.8 -61.4404 l 1
860.16 -49.1523 m 25,238,-1
 860.16 1478.66 l 1,239,-1
 860.16 -49.1523 l 25,238,-1
143.36 1474.56 m 25,240,-1
 143.36 -53.248 l 1
430.08 1466.37 m 25,242,-1
 430.08 -61.4404 l 1
286.72 -69.6318 m 25,244,-1
 286.72 1458.18 l 1,245,-1
 286.72 -69.6318 l 25,244,-1
573.44 1470.46 m 25,246,-1
 573.44 -57.3438 l 1
716.8 1466.37 m 25,248,-1
 716.8 -61.4404 l 1
860.16 -49.1523 m 25,250,-1
 860.16 1478.66 l 1,251,-1
 860.16 -49.1523 l 25,250,-1
143.36 1474.56 m 25,252,-1
 143.36 -53.248 l 1
430.08 1466.37 m 25,254,-1
 430.08 -61.4404 l 1
286.72 -69.6318 m 25,256,-1
 286.72 1458.18 l 1,257,-1
 286.72 -69.6318 l 25,256,-1
573.44 1470.46 m 25,258,-1
 573.44 -57.3438 l 1
716.8 1466.37 m 25,260,-1
 716.8 -61.4404 l 1
860.16 -49.1523 m 25,262,-1
 860.16 1478.66 l 1,263,-1
 860.16 -49.1523 l 25,262,-1
143.36 1474.56 m 25,264,-1
 143.36 -53.248 l 1
430.08 1466.37 m 25,266,-1
 430.08 -61.4404 l 1
286.72 -69.6318 m 25,268,-1
 286.72 1458.18 l 1,269,-1
 286.72 -69.6318 l 25,268,-1
573.44 1470.46 m 25,270,-1
 573.44 -57.3438 l 1
716.8 1466.37 m 25,272,-1
 716.8 -61.4404 l 1
860.16 -49.1523 m 25,274,-1
 860.16 1478.66 l 1,275,-1
 860.16 -49.1523 l 25,274,-1
143.36 1474.56 m 25,276,-1
 143.36 -53.248 l 1
430.08 1466.37 m 25,278,-1
 430.08 -61.4404 l 1
286.72 -69.6318 m 25,280,-1
 286.72 1458.18 l 1,281,-1
 286.72 -69.6318 l 25,280,-1
573.44 1470.46 m 25,282,-1
 573.44 -57.3438 l 1
716.8 1466.37 m 25,284,-1
 716.8 -61.4404 l 1
860.16 -49.1523 m 25,286,-1
 860.16 1478.66 l 1,287,-1
 860.16 -49.1523 l 25,286,-1
143.36 1474.56 m 25,288,-1
 143.36 -53.248 l 1
430.08 1466.37 m 25,290,-1
 430.08 -61.4404 l 1
286.72 -69.6318 m 25,292,-1
 286.72 1458.18 l 1,293,-1
 286.72 -69.6318 l 25,292,-1
573.44 1470.46 m 25,294,-1
 573.44 -57.3438 l 1
716.8 1466.37 m 25,296,-1
 716.8 -61.4404 l 1
860.16 -49.1523 m 25,298,-1
 860.16 1478.66 l 1,299,-1
 860.16 -49.1523 l 25,298,-1
143.36 1474.56 m 25,300,-1
 143.36 -53.248 l 1
430.08 1466.37 m 25,302,-1
 430.08 -61.4404 l 1
286.72 -69.6318 m 25,304,-1
 286.72 1458.18 l 1,305,-1
 286.72 -69.6318 l 25,304,-1
573.44 1470.46 m 25,306,-1
 573.44 -57.3438 l 1
716.8 1466.37 m 25,308,-1
 716.8 -61.4404 l 1
860.16 -49.1523 m 25,310,-1
 860.16 1478.66 l 1,311,-1
 860.16 -49.1523 l 25,310,-1
143.36 1474.56 m 25,312,-1
 143.36 -53.248 l 1
430.08 1466.37 m 25,314,-1
 430.08 -61.4404 l 1
286.72 -69.6318 m 25,316,-1
 286.72 1458.18 l 1,317,-1
 286.72 -69.6318 l 25,316,-1
573.44 1470.46 m 25,318,-1
 573.44 -57.3438 l 1
716.8 1466.37 m 25,320,-1
 716.8 -61.4404 l 1
860.16 -49.1523 m 25,322,-1
 860.16 1478.66 l 1,323,-1
 860.16 -49.1523 l 25,322,-1
143.36 1474.56 m 25,324,-1
 143.36 -53.248 l 1
430.08 1466.37 m 25,326,-1
 430.08 -61.4404 l 1
286.72 -69.6318 m 25,328,-1
 286.72 1458.18 l 1,329,-1
 286.72 -69.6318 l 25,328,-1
573.44 1470.46 m 25,330,-1
 573.44 -57.3438 l 1
716.8 1466.37 m 25,332,-1
 716.8 -61.4404 l 1
860.16 -49.1523 m 25,334,-1
 860.16 1478.66 l 1,335,-1
 860.16 -49.1523 l 25,334,-1
143.36 1474.56 m 25,336,-1
 143.36 -53.248 l 1
430.08 1466.37 m 25,338,-1
 430.08 -61.4404 l 1
286.72 -69.6318 m 25,340,-1
 286.72 1458.18 l 1,341,-1
 286.72 -69.6318 l 25,340,-1
573.44 1470.46 m 25,342,-1
 573.44 -57.3438 l 1
716.8 1466.37 m 25,344,-1
 716.8 -61.4404 l 1
860.16 -49.1523 m 25,346,-1
 860.16 1478.66 l 1,347,-1
 860.16 -49.1523 l 25,346,-1
143.36 1474.56 m 25,348,-1
 143.36 -53.248 l 1
430.08 1466.37 m 25,350,-1
 430.08 -61.4404 l 1
286.72 -69.6318 m 25,352,-1
 286.72 1458.18 l 1,353,-1
 286.72 -69.6318 l 25,352,-1
573.44 1470.46 m 25,354,-1
 573.44 -57.3438 l 1
716.8 1466.37 m 25,356,-1
 716.8 -61.4404 l 1
860.16 -49.1523 m 25,358,-1
 860.16 1478.66 l 1,359,-1
 860.16 -49.1523 l 25,358,-1
143.36 1474.56 m 25,360,-1
 143.36 -53.248 l 1
430.08 1466.37 m 25,362,-1
 430.08 -61.4404 l 1
286.72 -69.6318 m 25,364,-1
 286.72 1458.18 l 1,365,-1
 286.72 -69.6318 l 25,364,-1
573.44 1470.46 m 25,366,-1
 573.44 -57.3438 l 1
716.8 1466.37 m 25,368,-1
 716.8 -61.4404 l 1
860.16 -49.1523 m 25,370,-1
 860.16 1478.66 l 1,371,-1
 860.16 -49.1523 l 25,370,-1
143.36 1474.56 m 25,372,-1
 143.36 -53.248 l 1
430.08 1466.37 m 25,374,-1
 430.08 -61.4404 l 1
286.72 -69.6318 m 25,376,-1
 286.72 1458.18 l 1,377,-1
 286.72 -69.6318 l 25,376,-1
573.44 1470.46 m 25,378,-1
 573.44 -57.3438 l 1
716.8 1466.37 m 25,380,-1
 716.8 -61.4404 l 1
860.16 -49.1523 m 25,382,-1
 860.16 1478.66 l 1,383,-1
 860.16 -49.1523 l 25,382,-1
EndSplineSet
Fore
SplineSet
653.5 514 m 128,-1,1
 580 582 580 582 479 582 c 128,-1,2
 378 582 378 582 308 512.5 c 128,-1,3
 238 443 238 443 238 342 c 128,-1,4
 238 241 238 241 309.5 173.5 c 128,-1,5
 381 106 381 106 483 106 c 128,-1,6
 585 106 585 106 656 175.5 c 128,-1,7
 727 245 727 245 727 345.5 c 128,-1,0
 727 446 727 446 653.5 514 c 128,-1,1
457 717 m 0,8,9
 561 717 561 717 637 662.5 c 128,-1,10
 713 608 713 608 725 559 c 1,11,-1
 725 655 l 2,12,13
 725 797 725 797 661.5 875.5 c 128,-1,14
 598 954 598 954 481 954 c 0,15,16
 412 954 412 954 351 932.5 c 128,-1,17
 290 911 290 911 256 877 c 1,18,-1
 178 981 l 1,19,20
 312 1090 312 1090 479.5 1090 c 128,-1,21
 647 1090 647 1090 756.5 975 c 128,-1,22
 866 860 866 860 866 655 c 2,23,-1
 866 0 l 1,24,-1
 727 0 l 1,25,-1
 727 156 l 1,26,27
 719.491199826 107.597653287 719.491199826 107.597653287 639.245599913 39.2988266435 c 128,-1,28
 559 -29 559 -29 456 -29 c 0,29,30
 294 -29 294 -29 189 74 c 128,-1,31
 84 177 84 177 84 340.5 c 128,-1,32
 84 504 84 504 192.5 610.5 c 128,-1,33
 301 717 301 717 457 717 c 0,8,9
EndSplineSet
EndChar

StartChar: b
Encoding: 98 98 121
Width: 1044
Flags: HMW
LayerCount: 2
Back
SplineSet
281 0 m 13,0,-1
 129 0 l 1,1,-1
 129 1454 l 1,2,-1
 281 1454 l 1,3,-1
 281 892 l 1,4,5
 316 984 316 984 395 1043 c 0
 474 1102 474 1102 586 1102 c 0,6,7
 759 1102 759 1102 857.5 980 c 0
 956 858 956 858 956 627 c 2,8,-1
 956 0 l 1,9,-1
 805 0 l 1,10,-1
 805 527 l 2,11,12
 805 605 805 605 799 666 c 0
 793 727 793 727 775.5 785 c 0
 758 843 758 843 729.5 881 c 0
 701 919 701 919 654.5 942 c 0
 608 965 608 965 546 965 c 0,13,14
 483 965 483 965 436 943.5 c 0
 389 922 389 922 360 885 c 0
 331 848 331 848 313 792.5 c 0
 295 737 295 737 288 676.5 c 0
 281 616 281 616 281 540 c 2,15,-1
 281 0 l 13,0,-1
143.36 1474.56 m 25,16,-1
 143.36 -53.248 l 1
430.08 1466.37 m 25,18,-1
 430.08 -61.4404 l 1
286.72 -69.6318 m 25,20,-1
 286.72 1458.18 l 1,21,-1
 286.72 -69.6318 l 25,20,-1
573.44 1470.46 m 25,22,-1
 573.44 -57.3438 l 1
716.8 1466.37 m 25,24,-1
 716.8 -61.4404 l 1
860.16 -49.1523 m 25,26,-1
 860.16 1478.66 l 1,27,-1
 860.16 -49.1523 l 25,26,-1
EndSplineSet
Fore
SplineSet
281 886 m 1,0,1
 372.2 1102 372.2 1102 580 1102 c 0,2,3
 681 1102 681 1102 759 1055.5 c 128,-1,4
 837 1009 837 1009 883 928.5 c 0,5,6
 975 767.5 975 767.5 975 539 c 0,7,8
 975 313 975 313 883 149 c 0,9,10
 837 67 837 67 758.5 19 c 128,-1,11
 680 -29 680 -29 598 -29 c 128,-1,12
 516 -29 516 -29 466 -11.5 c 128,-1,13
 416 6 416 6 381 38 c 0,14,15
 321.855614973 92.0748663102 321.855614973 92.0748663102 281 184 c 1,16,-1
 281 0 l 1,17,-1
 129 0 l 1,18,-1
 129 1454 l 1,19,-1
 281 1454 l 9,20,-1
 281 886 l 1,0,1
821 539 m 128,-1,22
 821 739 821 739 744.5 852.5 c 128,-1,23
 668 966 668 966 552 966 c 128,-1,24
 436 966 436 966 356 851 c 128,-1,25
 276 736 276 736 276 537.5 c 128,-1,26
 276 339 276 339 356 222.5 c 128,-1,27
 436 106 436 106 551.5 106 c 128,-1,28
 667 106 667 106 744 222.5 c 128,-1,21
 821 339 821 339 821 539 c 128,-1,22
EndSplineSet
EndChar

StartChar: c
Encoding: 99 99 122
Width: 921
Flags: HMW
LayerCount: 2
Back
SplineSet
1242 0 m 21,0,-1
 228 537 l 1,1,-1
 1242 1074 l 1
86.0156 532.48 m 0,3,4
 86.0156 646.999259574 86.0156 646.999259574 121.391477162 751.291199512 c 0
 156.767354324 855.583139451 156.767354324 855.583139451 216.557235338 931.006081738 c 0
 276.347116352 1006.42902402 276.347116352 1006.42902402 359.022252162 1051.05451201 c 0
 441.697387972 1095.68 441.697387972 1095.68 532.48 1095.68 c 0,5,6
 605.184535475 1095.68 605.184535475 1095.68 673.317762934 1067.24305502 c 0
 741.450990394 1038.80611005 741.450990394 1038.80611005 796.331389066 986.677968977 c 0
 851.211787738 934.549827908 851.211787738 934.549827908 892.535170934 865.319951023 c 0
 933.858554131 796.090074139 933.858554131 796.090074139 956.401277066 710.142224977 c 0
 978.944 624.194375815 978.944 624.194375815 978.944 532.48 c 0,7,8
 978.944 440.765625786 978.944 440.765625786 956.401276589 354.817806123 c 0
 933.858553178 268.86998646 933.858553178 268.86998646 892.535171411 199.640154677 c 0
 851.211789643 130.410322893 851.211789643 130.410322893 796.331388589 78.2822253233 c 0
 741.450987535 26.1541277534 741.450987535 26.1541277534 673.317763411 -2.2827861233 c 0
 605.184539286 -30.7197 605.184539286 -30.7197 532.48 -30.7197 c 0,9,10
 441.697381988 -30.7197 441.697381988 -30.7197 359.022251165 13.9057416451 c 0
 276.347120341 58.5311832903 276.347120341 58.5311832903 216.557236335 133.95406773 c 0
 156.767352329 209.376952169 156.767352329 209.376952169 121.391476165 313.668847895 c 0
 86.0156 417.960743621 86.0156 417.960743621 86.0156 532.48 c 0,3,4
239.616 530.432 m 0,11,12
 239.616 617.050270514 239.616 617.050270514 262.821214728 695.932894044 c 0
 286.026429456 774.815517574 286.026429456 774.815517574 325.246332147 831.862684081 c 0
 364.466234839 888.909850588 364.466234839 888.909850588 418.698058478 922.662925294 c 0
 472.929882117 956.416 472.929882117 956.416 532.48 956.416 c 0,13,14
 611.992432068 956.416 611.992432068 956.416 679.461108017 899.387413127 c 0
 746.929783966 842.358826253 746.929783966 842.358826253 786.136891983 744.222586873 c 0
 825.344 646.086347493 825.344 646.086347493 825.344 530.432 c 0,15,16
 825.344 350.496456703 825.344 350.496456703 736.533135762 224.957157881 c 0
 656.477354115 111.793675227 656.477354115 111.793675227 545.241330608 104.845784417 c 0
 538.368704056 104.476814916 538.368704056 104.476814916 532.48 104.448 c 0,17,18
 419.750991229 104.448 419.750991229 104.448 336.142481667 214.435300929 c 0
 245.594074206 333.552062991 245.594074206 333.552062991 239.937117858 510.321372039 c 0
 239.631226585 520.860250161 239.631226585 520.860250161 239.616 530.432 c 0,11,12
143.36 1474.56 m 25,19,-1
 143.36 -53.248 l 1
430.08 1466.37 m 25,21,-1
 430.08 -61.4404 l 1
286.72 -69.6318 m 25,23,-1
 286.72 1458.18 l 1,24,-1
 286.72 -69.6318 l 25,23,-1
573.44 1470.46 m 25,25,-1
 573.44 -57.3438 l 1
716.8 1466.37 m 25,27,-1
 716.8 -61.4404 l 1
860.16 -49.1523 m 25,29,-1
 860.16 1478.66 l 1,30,-1
 860.16 -49.1523 l 25,29,-1
EndSplineSet
Fore
SplineSet
745 809 m 1,0,1
 727 859 727 859 667 908.5 c 128,-1,2
 607 958 607 958 537 958 c 0,3,4
 410 958 410 958 319.5 838.5 c 128,-1,5
 229 719 229 719 229 531 c 128,-1,6
 229 343 229 343 317 224.5 c 128,-1,7
 405 106 405 106 535 106 c 0,8,9
 649.8125 106 649.8125 106 727.5 219 c 0,10,11
 744 243 744 243 754 264 c 1,12,-1
 876 187 l 1,13,14
 822 97 822 97 735 34 c 128,-1,15
 648 -29 648 -29 526 -29 c 128,-1,16
 404 -29 404 -29 298.5 47 c 128,-1,17
 193 123 193 123 134.5 252.5 c 128,-1,18
 76 382 76 382 76 537 c 0,19,20
 76 810.302752294 76 810.302752294 250.5 980 c 0,21,22
 367.726415094 1094 367.726415094 1094 537 1094 c 0,23,24
 651 1094 651 1094 736.5 1033 c 128,-1,25
 822 972 822 972 876 875 c 1,26,-1
 745 809 l 1,0,1
EndSplineSet
EndChar

StartChar: d
Encoding: 100 100 123
Width: 1044
Flags: HMW
LayerCount: 2
Back
SplineSet
761.856 1062.91 m 21,0,-1
 913.408 1062.91 l 1,1,-1
 913.408 -391.168 l 1,2,-1
 761.856 -391.168 l 1,3,-1
 761.856 163.84 l 1,4,5
 739.987542865 129.64960693 739.987542865 129.64960693 722.782585865 106.134218494 c 0
 705.577628865 82.618830058 705.577628865 82.618830058 678.688390135 54.6762655059 c 0
 651.799151405 26.7337009537 651.799151405 26.7337009537 624.904569865 10.0167944941 c 0
 598.009988326 -6.70011196544 598.009988326 -6.70011196544 560.658054135 -17.9494784941 c 0
 523.306119944 -29.1988450228 523.306119944 -29.1988450228 481.28 -28.6719 c 0,6,7
 444.098210691 -28.6719 444.098210691 -28.6719 409.664265038 -20.4297109518 c 0
 375.230319386 -12.1875219035 375.230319386 -12.1875219035 345.750774962 3.20621775176 c 0
 316.271230537 18.599957407 316.271230537 18.599957407 289.712905038 40.4368302482 c 0
 263.154579539 62.2737030895 263.154579539 62.2737030895 241.220854962 89.6317929518 c 0
 219.287130384 116.989882814 219.287130384 116.989882814 200.481545038 148.980801848 c 0
 181.675959693 180.971720882 181.675959693 180.971720882 167.165174962 216.853523352 c 0
 152.65439023 252.735325821 152.65439023 252.735325821 141.478665038 291.439653448 c 0
 130.302939846 330.143981075 130.302939846 330.143981075 123.092214962 371.108858552 c 0
 115.881490077 412.073736028 115.881490077 412.073736028 112.212745038 454.050834648 c 0
 108.544 496.027933268 108.544 496.027933268 108.544 538.624 c 0,8,9
 108.544 624.994670515 108.544 624.994670515 122.48180772 704.727953814 c 0
 136.419615441 784.461237113 136.419615441 784.461237113 166.41726428 855.289166186 c 0
 196.414913118 926.117095258 196.414913118 926.117095258 239.66017572 978.404113814 c 0
 282.905438323 1030.69113237 282.905438323 1030.69113237 345.52715228 1061.13556619 c 0
 408.148866236 1091.58 408.148866236 1091.58 483.328 1091.58 c 0,10,11
 653.523183673 1091.58 653.523183673 1091.58 761.856 894.976 c 1,12,-1
 761.856 1062.91 l 21,0,-1
262.144 538.624 m 4,13,14
 262.144 488.92390516 262.144 488.92390516 267.365808055 441.221202009 c 0
 272.587616109 393.518498858 272.587616109 393.518498858 282.752069496 350.805480207 c 0
 292.916522883 308.092461555 292.916522883 308.092461555 307.239114177 270.574438161 c 0
 321.561705471 233.056414767 321.561705471 233.056414767 340.430436843 203.01511286 c 0
 359.299168216 172.973810952 359.299168216 172.973810952 381.217889687 151.372478977 c 0
 403.136611159 129.771147002 403.136611159 129.771147002 429.204967456 118.133573501 c 0
 455.273323752 106.496 455.273323752 106.496 483.328 106.496 c 0,15,16
 535.6032 106.496 535.6032 106.496 586.248533333 137.940459016 c 0
 636.893866667 169.384918033 636.893866667 169.384918033 676.855466667 224.235540984 c 0
 716.817066667 279.086163934 716.817066667 279.086163934 741.384533333 361.044459016 c 0
 765.952 443.002754098 765.952 443.002754098 765.952 536.576 c 0,17,18
 765.952 620.178948985 765.952 620.178948985 747.333384718 691.473856623 c 0
 728.714769437 762.768764261 728.714769437 762.768764261 698.947831282 810.431039377 c 0
 669.180893127 858.093314492 669.180893127 858.093314492 631.432968718 891.948480623 c 0
 593.68504431 925.803646754 593.68504431 925.803646754 556.013815282 941.109823377 c 0
 518.342586254 956.416 518.342586254 956.416 483.328 956.416 c 0,19,20
 418.890139068 956.416 418.890139068 956.416 368.2318681 902.121244444 c 0
 317.573597133 847.826488889 317.573597133 847.826488889 289.858798566 752.662755556 c 0
 262.144 657.499022222 262.144 657.499022222 262.144 538.624 c 4,13,14
143.36 1474.56 m 25,21,-1
 143.36 -53.248 l 1
430.08 1466.37 m 25,23,-1
 430.08 -61.4404 l 1
286.72 -69.6318 m 25,25,-1
 286.72 1458.18 l 1,26,-1
 286.72 -69.6318 l 25,25,-1
573.44 1470.46 m 25,27,-1
 573.44 -57.3438 l 1
716.8 1466.37 m 25,29,-1
 716.8 -61.4404 l 1
860.16 -49.1523 m 25,31,-1
 860.16 1478.66 l 1,32,-1
 860.16 -49.1523 l 25,31,-1
EndSplineSet
Fore
SplineSet
468 1102 m 0,0,1
 675.8 1102 675.8 1102 767 886 c 1,2,-1
 767 1454 l 17,3,-1
 919 1454 l 1,4,-1
 919 0 l 1,5,-1
 767 0 l 1,6,-1
 767 184 l 1,7,8
 725 87 725 87 656.5 29 c 128,-1,9
 588 -29 588 -29 478 -29 c 128,-1,10
 368 -29 368 -29 289.5 19 c 128,-1,11
 211 67 211 67 165 149 c 0,12,13
 73 313 73 313 73 539 c 0,14,15
 73 767.5 73 767.5 165 928.5 c 0,16,17
 211 1009 211 1009 289 1055.5 c 128,-1,18
 367 1102 367 1102 468 1102 c 0,0,1
227 539 m 128,-1,20
 227 339 227 339 304 222.5 c 128,-1,21
 381 106 381 106 496.5 106 c 128,-1,22
 612 106 612 106 692 222.5 c 128,-1,23
 772 339 772 339 772 537.5 c 128,-1,24
 772 736 772 736 692 851 c 128,-1,25
 612 966 612 966 496 966 c 128,-1,26
 380 966 380 966 303.5 852.5 c 128,-1,19
 227 739 227 739 227 539 c 128,-1,20
EndSplineSet
EndChar

StartChar: e
Encoding: 101 101 124
Width: 1013
Flags: HMW
LayerCount: 2
Back
SplineSet
143.36 1474.56 m 25,0,-1
 143.36 -53.248 l 1
430.08 1466.37 m 25,2,-1
 430.08 -61.4404 l 1
286.72 -69.6318 m 25,4,-1
 286.72 1458.18 l 1,5,-1
 286.72 -69.6318 l 25,4,-1
573.44 1470.46 m 25,6,-1
 573.44 -57.3438 l 1
716.8 1466.37 m 25,8,-1
 716.8 -61.4404 l 1
860.16 -49.1523 m 25,10,-1
 860.16 1478.66 l 1,11,-1
 860.16 -49.1523 l 25,10,-1
EndSplineSet
Fore
SplineSet
257 604 m 1,0,-1
 779 604 l 1,1,2
 770 749 770 749 700 853.5 c 128,-1,3
 630 958 630 958 518 958 c 0,4,5
 442 958 442 958 382.5 904 c 0,6,7
 270.363773509 802.22930705 270.363773509 802.22930705 257 604 c 1,0,-1
924 565 m 1,8,-1
 925 469 l 1,9,-1
 257 469 l 1,10,11
 274.483423285 259.198920586 274.483423285 259.198920586 383.5 159.5 c 0,12,13
 442 106 442 106 516 106 c 128,-1,14
 590 106 590 106 660.5 144.5 c 128,-1,15
 731 183 731 183 763 243 c 1,16,-1
 896 188 l 1,17,18
 845 89 845 89 740.5 30 c 128,-1,19
 636 -29 636 -29 512 -29 c 128,-1,20
 388 -29 388 -29 291.5 47.5 c 128,-1,21
 195 124 195 124 146.5 251 c 128,-1,22
 98 378 98 378 98 537 c 128,-1,23
 98 696 98 696 147 821 c 128,-1,24
 196 946 196 946 292 1020 c 128,-1,25
 388 1094 388 1094 501.5 1094 c 128,-1,26
 615 1094 615 1094 694 1048.5 c 128,-1,27
 773 1003 773 1003 822.5 927.5 c 0,28,29
 924 772.686868687 924 772.686868687 924 565 c 1,8,-1
EndSplineSet
EndChar

StartChar: f
Encoding: 102 102 125
Width: 716
Flags: HMW
LayerCount: 2
Back
SplineSet
143.36 1474.56 m 25,0,-1
 143.36 -53.248 l 1
430.08 1466.37 m 25,2,-1
 430.08 -61.4404 l 1
286.72 -69.6318 m 25,4,-1
 286.72 1458.18 l 1,5,-1
 286.72 -69.6318 l 25,4,-1
573.44 1470.46 m 25,6,-1
 573.44 -57.3438 l 1
716.8 1466.37 m 25,8,-1
 716.8 -61.4404 l 1
860.16 -49.1523 m 25,10,-1
 860.16 1478.66 l 1,11,-1
 860.16 -49.1523 l 25,10,-1
EndSplineSet
Fore
SplineSet
416 938 m 1,0,-1
 416 0 l 1,1,-1
 264 0 l 1,2,-1
 264 938 l 1,3,-1
 125 938 l 1,4,-1
 125 1073 l 1,5,-1
 263 1073 l 1,6,-1
 263 1208 l 2,7,8
 263 1268 263 1268 292.5 1321 c 128,-1,9
 322 1374 322 1374 366 1408 c 0,10,11
 460.470588235 1481 460.470588235 1481 531.735294118 1481 c 128,-1,12
 603 1481 603 1481 641.5 1460.5 c 128,-1,13
 680 1440 680 1440 723 1399 c 1,14,-1
 614 1294 l 1,15,16
 587.806451613 1327.67741935 587.806451613 1327.67741935 564.903225806 1336.83870968 c 128,-1,17
 542 1346 542 1346 508 1346 c 128,-1,18
 474 1346 474 1346 445.5 1320 c 128,-1,19
 417 1294 417 1294 417 1249 c 2,20,-1
 417 1073 l 1,21,-1
 612 1073 l 1,22,-1
 612 938 l 1,23,-1
 416 938 l 1,0,-1
EndSplineSet
EndChar

StartChar: g
Encoding: 103 103 126
Width: 1021
Flags: HMW
LayerCount: 2
Back
SplineSet
741.376 1062.91 m 21,0,-1
 892.928 1062.91 l 1,1,-1
 892.928 -391.168 l 1,2,-1
 741.376 -391.168 l 1,3,-1
 741.376 163.84 l 1,4,5
 729.772053907 145.697917758 729.772053907 145.697917758 720.301442437 131.749587517 c 0
 710.830830966 117.801257276 710.830830966 117.801257276 698.00176744 100.724655693 c 0
 685.172703913 83.648054111 685.172703913 83.648054111 673.582320352 70.7025082299 c 0
 661.99193679 57.7569623488 661.99193679 57.7569623488 647.018085684 43.5594364889 c 0
 632.044234577 29.361910629 632.044234577 29.361910629 617.356432835 19.1034783259 c 0
 602.668631092 8.8450460229 602.668631092 8.8450460229 584.572346315 -0.789074896576 c 0
 566.476061538 -10.423195816 566.476061538 -10.423195816 547.713195523 -16.3101853229 c 0
 528.950329509 -22.1971748298 528.950329509 -22.1971748298 506.753964971 -25.5835615907 c 0
 484.557600432 -28.9699483516 484.557600432 -28.9699483516 460.8 -28.6719 c 0,6,7
 387.508471106 -28.6719 387.508471106 -28.6719 325.584210388 3.22354121984 c 0
 263.659949671 35.1189824397 263.659949671 35.1189824397 220.494737612 89.5919731802 c 0
 177.329525553 144.064963921 177.329525553 144.064963921 146.998882388 216.87084682 c 0
 116.668239224 289.676729719 116.668239224 289.676729719 102.366369612 371.06903878 c 0
 88.0645 452.461347841 88.0645 452.461347841 88.0645 538.624 c 0,8,9
 88.0645 610.267215508 88.0645 610.267215508 98.0643331134 677.815758588 c 0
 108.064166227 745.364301668 108.064166227 745.364301668 127.72850022 807.494908079 c 0
 147.392834213 869.62551449 147.392834213 869.62551449 178.846342373 921.184721551 c 0
 210.299850533 972.743928612 210.299850533 972.743928612 250.835815035 1010.92764882 c 0
 291.371779537 1049.11136903 291.371779537 1049.11136903 345.644351632 1070.34568451 c 0
 399.916923727 1091.58 399.916923727 1091.58 462.848 1091.58 c 0,10,11
 633.043183673 1091.58 633.043183673 1091.58 741.376 894.976 c 1,12,-1
 741.376 1062.91 l 21,0,-1
241.664 538.624 m 4,13,14
 241.664 358.762807947 241.664 358.762807947 303.50212987 232.629403974 c 0
 365.34025974 106.496 365.34025974 106.496 462.848 106.496 c 0,15,16
 515.1232 106.496 515.1232 106.496 565.768533333 137.940459016 c 0
 616.413866667 169.384918033 616.413866667 169.384918033 656.375466667 224.235540984 c 0
 696.337066667 279.086163934 696.337066667 279.086163934 720.904533333 361.044459016 c 0
 745.472 443.002754098 745.472 443.002754098 745.472 536.576 c 0,17,18
 745.472 620.178948985 745.472 620.178948985 726.853384718 691.473856623 c 0
 708.234769437 762.768764261 708.234769437 762.768764261 678.467831282 810.431039377 c 0
 648.700893127 858.093314492 648.700893127 858.093314492 610.952968718 891.948480623 c 0
 573.20504431 925.803646754 573.20504431 925.803646754 535.533815282 941.109823377 c 0
 497.862586254 956.416 497.862586254 956.416 462.848 956.416 c 0,19,20
 398.410139068 956.416 398.410139068 956.416 347.7518681 902.121244444 c 0
 297.093597133 847.826488889 297.093597133 847.826488889 269.378798566 752.662755556 c 0
 241.664 657.499022222 241.664 657.499022222 241.664 538.624 c 4,13,14
1003.52 -49.1523 m 25,21,-1
 1003.52 1478.66 l 1,22,-1
 1003.52 -49.1523 l 25,21,-1
143.36 1474.56 m 25,23,-1
 143.36 -53.248 l 1
430.08 1466.37 m 25,25,-1
 430.08 -61.4404 l 1
286.72 -69.6318 m 25,27,-1
 286.72 1458.18 l 1,28,-1
 286.72 -69.6318 l 25,27,-1
573.44 1470.46 m 25,29,-1
 573.44 -57.3438 l 1
716.8 1466.37 m 25,31,-1
 716.8 -61.4404 l 1
860.16 -49.1523 m 25,33,-1
 860.16 1478.66 l 1,34,-1
 860.16 -49.1523 l 25,33,-1
EndSplineSet
Fore
SplineSet
468 1102 m 0,0,1
 675.8 1102 675.8 1102 767 886 c 1,2,-1
 767 1073 l 1,3,-1
 919 1073 l 1,4,-1
 919 -18 l 2,5,6
 919 -117 919 -117 884 -200 c 128,-1,7
 849 -283 849 -283 791.5 -336.5 c 0,8,9
 670.588785047 -449 670.588785047 -449 513 -449 c 0,10,11
 422 -449 422 -449 343.5 -416.5 c 128,-1,12
 265 -384 265 -384 214.5 -332.5 c 0,13,14
 111.85248227 -227.819858156 111.85248227 -227.819858156 97 -109 c 1,15,-1
 240 -109 l 1,16,17
 254 -196 254 -196 333 -254.5 c 128,-1,18
 412 -313 412 -313 510 -313 c 128,-1,19
 608 -313 608 -313 687.5 -240 c 128,-1,20
 767 -167 767 -167 767 -33 c 2,21,-1
 767 184 l 1,22,23
 698.184210526 29.1644736842 698.184210526 29.1644736842 582 -11.5 c 0,24,25
 532 -29 532 -29 460 -29 c 128,-1,26
 388 -29 388 -29 320.5 3 c 128,-1,27
 253 35 253 35 208 89 c 128,-1,28
 163 143 163 143 132 216.5 c 0,29,30
 73 356.387096774 73 356.387096774 73 503.693548387 c 128,-1,31
 73 651 73 651 96 749.5 c 128,-1,32
 119 848 119 848 165 928.5 c 128,-1,33
 211 1009 211 1009 289 1055.5 c 128,-1,34
 367 1102 367 1102 468 1102 c 0,0,1
227 539 m 128,-1,36
 227 339 227 339 304 222.5 c 128,-1,37
 381 106 381 106 496.5 106 c 128,-1,38
 612 106 612 106 692 222.5 c 128,-1,39
 772 339 772 339 772 537.5 c 128,-1,40
 772 736 772 736 692 851 c 128,-1,41
 612 966 612 966 496 966 c 128,-1,42
 380 966 380 966 303.5 852.5 c 128,-1,35
 227 739 227 739 227 539 c 128,-1,36
EndSplineSet
EndChar

StartChar: h
Encoding: 104 104 127
Width: 1064
Flags: HMW
LayerCount: 2
Back
SplineSet
1003.52 -49.1523 m 25,0,-1
 1003.52 1478.66 l 1,1,-1
 1003.52 -49.1523 l 25,0,-1
143.36 1474.56 m 25,2,-1
 143.36 -53.248 l 1
430.08 1466.37 m 25,4,-1
 430.08 -61.4404 l 1
286.72 -69.6318 m 25,6,-1
 286.72 1458.18 l 1,7,-1
 286.72 -69.6318 l 25,6,-1
573.44 1470.46 m 25,8,-1
 573.44 -57.3438 l 1
716.8 1466.37 m 25,10,-1
 716.8 -61.4404 l 1
860.16 -49.1523 m 25,12,-1
 860.16 1478.66 l 1,13,-1
 860.16 -49.1523 l 25,12,-1
EndSplineSet
Fore
SplineSet
281 0 m 9,0,-1
 129 0 l 1,1,-1
 129 1456 l 1,2,-1
 281 1456 l 1,3,-1
 281 892 l 1,4,5
 309 981 309 981 391 1041.5 c 128,-1,6
 473 1102 473 1102 586 1102 c 0,7,8
 755 1102 755 1102 855.5 962.5 c 128,-1,9
 956 823 956 823 956 541 c 2,10,-1
 956 0 l 1,11,-1
 805 0 l 1,12,-1
 805 541 l 2,13,14
 805 841.411764706 805 841.411764706 665 932 c 0,15,16
 614 965 614 965 535.5 965 c 128,-1,17
 457 965 457 965 395.5 905 c 0,18,19
 281 793.292682927 281 793.292682927 281 540 c 2,20,-1
 281 0 l 9,0,-1
EndSplineSet
EndChar

StartChar: i
Encoding: 105 105 128
Width: 430
Flags: HMW
LayerCount: 2
Back
SplineSet
143.36 1474.56 m 25,0,-1
 143.36 -53.248 l 1
430.08 1466.37 m 25,2,-1
 430.08 -61.4404 l 1
286.72 -69.6318 m 25,4,-1
 286.72 1458.18 l 1,5,-1
 286.72 -69.6318 l 25,4,-1
573.44 1470.46 m 25,6,-1
 573.44 -57.3438 l 1
716.8 1466.37 m 25,8,-1
 716.8 -61.4404 l 1
860.16 -49.1523 m 25,10,-1
 860.16 1478.66 l 1,11,-1
 860.16 -49.1523 l 25,10,-1
EndSplineSet
Fore
SplineSet
159 1399 m 128,-1,1
 187 1427 187 1427 223 1427 c 128,-1,2
 259 1427 259 1427 284.5 1405.5 c 0,3,4
 319 1376.41176471 319 1376.41176471 319 1335.70588235 c 128,-1,5
 319 1295 319 1295 291 1267 c 128,-1,6
 263 1239 263 1239 227.5 1239 c 128,-1,7
 192 1239 192 1239 166 1260.5 c 0,8,9
 131 1289.44230769 131 1289.44230769 131 1330.22115385 c 128,-1,0
 131 1371 131 1371 159 1399 c 128,-1,1
150 1073 m 1,10,-1
 301 1073 l 1,11,-1
 301 0 l 1,12,-1
 150 0 l 1,13,-1
 150 1073 l 1,10,-1
EndSplineSet
EndChar

StartChar: j
Encoding: 106 106 129
Width: 468
Flags: HMW
LayerCount: 2
Back
SplineSet
188.416 114.688 m 5,0,-1
 188.416 1052.67 l 1,1,-1
 339.968 1052.67 l 1,2,-1
 339.968 114.688 l 1,3,-1
 479.232 114.688 l 1,4,-1
 479.232 -20.4805 l 1,5,-1
 339.968 -20.4805 l 1,6,-1
 340.851 -155.648 l 2,7,8
 340.851 -273.782985796 340.851 -273.782985796 233.128942376 -358.517757988 c 0
 153.907521343 -420.833770252 153.907521343 -420.833770252 72.449797427 -427.481675668 c 0
 65.2535927904 -427.992949497 65.2535927904 -427.992949497 59.3896 -428.032 c 0,9,10
 -33.1398181818 -428.032 -33.1398181818 -428.032 -118.784 -346.112 c 1,11,-1
 -10.2402 -241.664 l 1,12,13
 0.500708078985 -255.334064605 0.500708078985 -255.334064605 7.11968432125 -262.246187851 c 0
 13.7386605635 -269.158311097 13.7386605635 -269.158311097 25.5844547413 -277.529155899 c 0
 37.430248919 -285.900000702 37.430248919 -285.900000702 53.0725874462 -289.381500351 c 0
 68.7149259735 -292.863 68.7149259735 -292.863 90.1143 -292.863 c 0,14,15
 130.522934187 -292.863 130.522934187 -292.863 159.000467093 -266.857579254 c 0
 187.478 -240.852158508 187.478 -240.852158508 187.478 -196.608 c 2,16,-1
 188.416 -20.4805 l 1,17,-1
 -8.19238 -20.4805 l 1,18,-1
 -8.19238 114.688 l 1,19,-1
 188.416 114.688 l 5,0,-1
143.36 1474.56 m 25,20,-1
 143.36 -53.248 l 1
430.08 1466.37 m 25,22,-1
 430.08 -61.4404 l 1
286.72 -69.6318 m 25,24,-1
 286.72 1458.18 l 1,25,-1
 286.72 -69.6318 l 25,24,-1
573.44 1470.46 m 25,26,-1
 573.44 -57.3438 l 1
716.8 1466.37 m 25,28,-1
 716.8 -61.4404 l 1
860.16 -49.1523 m 25,30,-1
 860.16 1478.66 l 1,31,-1
 860.16 -49.1523 l 25,30,-1
EndSplineSet
Fore
SplineSet
198.5 1266.5 m 128,-1,1
 170 1294 170 1294 170 1332.5 c 128,-1,2
 170 1371 170 1371 198 1399 c 128,-1,3
 226 1427 226 1427 263.5 1427 c 128,-1,4
 301 1427 301 1427 329.5 1399.5 c 128,-1,5
 358 1372 358 1372 358 1333.5 c 128,-1,6
 358 1295 358 1295 330 1267 c 128,-1,7
 302 1239 302 1239 264.5 1239 c 128,-1,0
 227 1239 227 1239 198.5 1266.5 c 128,-1,1
-119 -346 m 9,8,-1
 -12 -244 l 1,9,10
 3 -258 3 -258 4.5 -259 c 128,-1,11
 6 -260 6 -260 13 -266 c 128,-1,12
 20 -272 20 -272 23 -273.5 c 128,-1,13
 26 -275 26 -275 32.5 -279.5 c 128,-1,14
 39 -284 39 -284 44 -285.5 c 128,-1,15
 49 -287 49 -287 56 -289 c 0,16,17
 70 -293 70 -293 86 -293 c 0,18,19
 188 -293 188 -293 188 -170 c 2,20,-1
 188 1073 l 1,21,-1
 340 1073 l 1,22,-1
 340 -139 l 2,23,24
 340 -307.481481481 340 -307.481481481 185.5 -389.5 c 0,25,26
 112.976744186 -428 112.976744186 -428 62.988372093 -428 c 128,-1,27
 13 -428 13 -428 -23 -413 c 128,-1,28
 -59 -398 -59 -398 -75 -385.5 c 128,-1,29
 -91 -373 -91 -373 -119 -346 c 9,8,-1
EndSplineSet
EndChar

StartChar: k
Encoding: 107 107 130
Width: 944
Flags: HMW
LayerCount: 2
Back
SplineSet
143.36 1474.56 m 29,0,-1
 143.36 -53.248 l 1
430.08 1466.37 m 29,2,-1
 430.08 -61.4404 l 1
286.72 -69.6318 m 29,4,-1
 286.72 1458.18 l 1,5,-1
 286.72 -69.6318 l 29,4,-1
573.44 1470.46 m 29,6,-1
 573.44 -57.3438 l 1
716.8 1466.37 m 29,8,-1
 716.8 -61.4404 l 1
860.16 -49.1523 m 29,10,-1
 860.16 1478.66 l 1,11,-1
 860.16 -49.1523 l 29,10,-1
EndSplineSet
Fore
SplineSet
479 616 m 1,0,-1
 940 0 l 1,1,-1
 766 0 l 1,2,-1
 387 512 l 1,3,-1
 281 379 l 1,4,-1
 281 0 l 1,5,-1
 129 0 l 1,6,-1
 129 1454 l 1,7,-1
 281 1454 l 1,8,-1
 281 582 l 1,9,-1
 690 1073 l 1,10,-1
 864 1073 l 1,11,-1
 479 616 l 1,0,-1
EndSplineSet
EndChar

StartChar: l
Encoding: 108 108 131
Width: 430
Flags: HMW
LayerCount: 2
Back
SplineSet
143.36 1474.56 m 29,0,-1
 143.36 -53.248 l 1
430.08 1466.37 m 29,2,-1
 430.08 -61.4404 l 1
286.72 -69.6318 m 29,4,-1
 286.72 1458.18 l 1,5,-1
 286.72 -69.6318 l 29,4,-1
573.44 1470.46 m 29,6,-1
 573.44 -57.3438 l 1
716.8 1466.37 m 29,8,-1
 716.8 -61.4404 l 1
860.16 -49.1523 m 29,10,-1
 860.16 1478.66 l 1,11,-1
 860.16 -49.1523 l 29,10,-1
EndSplineSet
Fore
SplineSet
301 207 m 2,0,1
 301 102 301 102 420 102 c 1,2,-1
 420 -29 l 1,3,4
 307 -29 307 -29 241.5 8 c 0,5,6
 150 59.6870229008 150 59.6870229008 150 203 c 2,7,-1
 150 1454 l 1,8,-1
 301 1454 l 1,9,-1
 301 207 l 2,0,1
EndSplineSet
EndChar

StartChar: braceleft
Encoding: 123 123 132
Width: 747
Flags: HMW
LayerCount: 2
Fore
SplineSet
286.111111111 1176.03703704 m 1,0,-1
 285.8 1216.1 l 1,1,2
 285.8 1357.8 285.8 1357.8 300.4 1389.4 c 128,-1,3
 315 1421 315 1421 329 1438 c 128,-1,4
 343 1455 343 1455 355 1467 c 128,-1,5
 367 1479 367 1479 389 1489 c 128,-1,6
 411 1499 411 1499 422 1505 c 128,-1,7
 433 1511 433 1511 462 1515.5 c 128,-1,8
 491 1520 491 1520 501 1522.5 c 128,-1,9
 511 1525 511 1525 546 1526.5 c 128,-1,10
 581 1528 581 1528 588.5 1528.5 c 128,-1,11
 596 1529 596 1529 635 1530 c 1,12,-1
 635 1395 l 1,13,14
 607 1399 607 1399 578 1399 c 128,-1,15
 549 1399 549 1399 504 1383 c 128,-1,16
 459 1367 459 1367 443.5 1342 c 128,-1,17
 428 1317 428 1317 428 1237 c 2,18,-1
 428 1192 l 2,19,20
 428 995.533333333 428 995.533333333 379 842 c 0,21,22
 349 748 349 748 303 729 c 1,23,24
 363 706 363 706 395.5 555.5 c 128,-1,25
 428 405 428 405 428 238 c 2,26,-1
 428 195 l 2,27,28
 428 133 428 133 432 114 c 128,-1,29
 436 95 436 95 447.5 78 c 128,-1,30
 459 61 459 61 503.5 45 c 128,-1,31
 548 29 548 29 577.5 29 c 128,-1,32
 607 29 607 29 635 33 c 1,33,-1
 635 -102 l 1,34,35
 596 -101 596 -101 588.5 -100.5 c 128,-1,36
 581 -100 581 -100 546 -98.5 c 128,-1,37
 511 -97 511 -97 501 -94.5 c 128,-1,38
 491 -92 491 -92 462 -87.5 c 128,-1,39
 433 -83 433 -83 422 -77 c 128,-1,40
 411 -71 411 -71 389 -61 c 128,-1,41
 367 -51 367 -51 355 -39 c 0,42,43
 306.272727273 9.72727272727 306.272727273 9.72727272727 297.636363636 50.8636363636 c 128,-1,44
 289 92 289 92 286 252 c 128,-1,45
 283 412 283 412 264 499 c 0,46,47
 224 689 224 689 90 729 c 1,48,49
 154 749 154 749 196 800 c 128,-1,50
 238 851 238 851 254.5 913.5 c 0,51,52
 286.111111111 1033.23905724 286.111111111 1033.23905724 286.111111111 1176.03703704 c 1,0,-1
EndSplineSet
EndChar

StartChar: bar
Encoding: 124 124 133
Width: 368
Flags: HMW
LayerCount: 2
Fore
SplineSet
125 0 m 17,0,-1
 125 1454 l 1,1,-1
 268 1454 l 1,2,-1
 268 0 l 1,3,-1
 125 0 l 17,0,-1
EndSplineSet
EndChar

StartChar: braceright
Encoding: 125 125 134
Width: 747
Flags: HMW
LayerCount: 2
Fore
SplineSet
481.888888889 266.62962963 m 1,0,-1
 482.2 224.72 l 1,1,2
 482.2 76.2 482.2 76.2 467.6 44.6 c 128,-1,3
 453 13 453 13 439 -4 c 128,-1,4
 425 -21 425 -21 413 -33 c 128,-1,5
 401 -45 401 -45 379 -55 c 128,-1,6
 357 -65 357 -65 346 -71 c 128,-1,7
 335 -77 335 -77 306 -81.5 c 128,-1,8
 277 -86 277 -86 267 -88.5 c 128,-1,9
 257 -91 257 -91 222 -92.5 c 128,-1,10
 187 -94 187 -94 179.5 -94.5 c 128,-1,11
 172 -95 172 -95 133 -96 c 1,12,-1
 133 39 l 1,13,14
 161 35 161 35 190.5 35 c 128,-1,15
 220 35 220 35 264.5 51 c 128,-1,16
 309 67 309 67 328 94 c 1,17,18
 340 117 340 117 340 201 c 2,19,-1
 340 244 l 2,20,21
 340 452.616666667 340 452.616666667 389 613.5 c 0,22,23
 419 712 419 712 465 729 c 1,24,25
 402 754 402 754 371 901 c 128,-1,26
 340 1048 340 1048 340 1192 c 2,27,-1
 340 1237 l 2,28,29
 340 1294 340 1294 335.5 1313.5 c 128,-1,30
 331 1333 331 1333 320 1350 c 128,-1,31
 309 1367 309 1367 264 1383 c 128,-1,32
 219 1399 219 1399 190 1399 c 128,-1,33
 161 1399 161 1399 133 1395 c 1,34,-1
 133 1530 l 1,35,36
 172 1529 172 1529 179.5 1528.5 c 128,-1,37
 187 1528 187 1528 222 1526.5 c 128,-1,38
 257 1525 257 1525 267 1522.5 c 128,-1,39
 277 1520 277 1520 306 1515.5 c 128,-1,40
 335 1511 335 1511 346 1505 c 128,-1,41
 357 1499 357 1499 379 1489 c 128,-1,42
 401 1479 401 1479 413 1467 c 0,43,44
 447 1433 447 1433 458 1409.5 c 128,-1,45
 469 1386 469 1386 474 1361 c 128,-1,46
 479 1336 479 1336 482 1188 c 128,-1,47
 485 1040 485 1040 503 958 c 0,48,49
 542 773 542 773 678 729 c 1,50,51
 614 710 614 710 572 657.5 c 128,-1,52
 530 605 530 605 513.5 540 c 0,53,54
 481.888888889 415.471380471 481.888888889 415.471380471 481.888888889 266.62962963 c 1,0,-1
EndSplineSet
EndChar

StartChar: asciitilde
Encoding: 126 126 135
Width: 735
Flags: HMW
LayerCount: 2
Fore
SplineSet
63 764 m 17,0,1
 68 768 68 768 86.5 783.5 c 128,-1,2
 105 799 105 799 114 806 c 128,-1,3
 123 813 123 813 142 825.5 c 128,-1,4
 161 838 161 838 175 844 c 0,5,6
 212.333333333 860 212.333333333 860 242.666666667 860 c 128,-1,7
 273 860 273 860 301 844.5 c 128,-1,8
 329 829 329 829 353 806.5 c 128,-1,9
 377 784 377 784 401 762 c 0,10,11
 458.818181818 709 458.818181818 709 512 709 c 0,12,13
 555 709 555 709 585 727 c 128,-1,14
 615 745 615 745 626 752 c 128,-1,15
 637 759 637 759 665.5 781 c 128,-1,16
 694 803 694 803 700 807 c 1,17,-1
 700 662 l 1,18,19
 696 659 696 659 671 639 c 128,-1,20
 646 619 646 619 639.5 614 c 128,-1,21
 633 609 633 609 612 595.5 c 128,-1,22
 591 582 591 582 579 577.5 c 0,23,24
 540.333333333 563 540.333333333 563 510.166666667 563 c 128,-1,25
 480 563 480 563 448.5 578.5 c 128,-1,26
 417 594 417 594 391 616.5 c 128,-1,27
 365 639 365 639 341 661.5 c 128,-1,28
 317 684 317 684 291.5 699.5 c 128,-1,29
 266 715 266 715 244 715 c 128,-1,30
 222 715 222 715 202.5 711 c 128,-1,31
 183 707 183 707 160.5 693 c 128,-1,32
 138 679 138 679 130 673.5 c 128,-1,33
 122 668 122 668 94 644 c 128,-1,34
 66 620 66 620 63 618 c 1,35,-1
 63 764 l 17,0,1
EndSplineSet
EndChar

StartChar: cent
Encoding: 162 162 137
Width: 808
Flags: HMW
LayerCount: 2
Fore
SplineSet
381 279 m 1,0,1
 274 292 274 292 195 364.5 c 0,2,3
 80 470.037974684 80 470.037974684 80 657 c 0,4,5
 80 862.604166667 80 862.604166667 277 957 c 0,6,7
 325 980 325 980 377 993 c 1,8,-1
 377 1208 l 1,9,-1
 512 1208 l 1,10,-1
 512 993 l 1,11,12
 611 968 611 968 711 881 c 1,13,-1
 621 786 l 1,14,15
 541 866 541 866 445 866 c 128,-1,16
 349 866 349 866 286 805 c 128,-1,17
 223 744 223 744 223 653 c 0,18,19
 223 620 223 620 230 582 c 1,20,21
 248 499 248 499 304 452.5 c 128,-1,22
 360 406 360 406 440 406 c 0,23,24
 567 406 567 406 649 512 c 1,25,-1
 739 422 l 1,26,27
 679 326 679 326 516 274 c 1,28,-1
 516 78 l 1,29,-1
 381 78 l 1,30,-1
 381 279 l 1,0,1
EndSplineSet
EndChar

StartChar: sterling
Encoding: 163 163 138
Width: 1120
Flags: HMW
LayerCount: 2
Fore
SplineSet
311 596 m 1,0,-1
 84 596 l 1,1,-1
 84 731 l 1,2,-1
 322 731 l 1,3,4
 322 1094 322 1094 387 1280 c 128,-1,5
 452 1466 452 1466 596 1466 c 0,6,7
 818 1466 818 1466 924 1169 c 1,8,-1
 780 1163 l 1,9,10
 763 1233 763 1233 716 1283 c 128,-1,11
 669 1333 669 1333 596 1333 c 0,12,13
 565 1333 565 1333 536 1266 c 0,14,15
 475 1125.06896552 475 1125.06896552 475 934 c 2,16,-1
 475 731 l 1,17,-1
 834 731 l 1,18,-1
 834 596 l 1,19,-1
 469 596 l 1,20,21
 456 411 456 411 362 135 c 1,22,-1
 866 135 l 1,23,24
 933.453744493 138.066079295 933.453744493 138.066079295 983 207 c 1,25,-1
 1063 92 l 1,26,27
 1023.98780488 32.5528455285 1023.98780488 32.5528455285 945 15 c 0,28,29
 918 9 918 9 888.5 5 c 128,-1,30
 859 1 859 1 854 0 c 1,31,-1
 145 0 l 1,32,33
 155 42 155 42 197 155 c 0,34,35
 300.782608696 434.224637681 300.782608696 434.224637681 311 596 c 1,0,-1
EndSplineSet
EndChar

